<?xml version="1.0" encoding="utf-8"?>
<!-- Generator: Adobe Illustrator 18.0.0, SVG Export Plug-In . SVG Version: 6.00 Build 0)  -->
<!DOCTYPE svg PUBLIC "-//W3C//DTD SVG 1.1//EN" "http://www.w3.org/Graphics/SVG/1.1/DTD/svg11.dtd">
<svg version="1.1" id="Layer_1" xmlns="http://www.w3.org/2000/svg" xmlns:xlink="http://www.w3.org/1999/xlink" x="0px" y="0px"
	 viewBox="0 0 74 143.2" enable-background="new 0 0 74 143.2" xml:space="preserve">
<path fill="none" stroke="#000000" stroke-miterlimit="10" d="M3.1,5.9c0,0,18.7-9.4,15.8-4C16,7.3,45.5,12.7,61.4,0L74,1.9
	l-5.7,90.8l2.7,47.4l-32.1,2.6L34,129.7v13.5l-34.5-3.1L3.1,5.9z"/>
<polygon fill="#FFFF33" points="41.9,55 30.1,42.7 21.6,57.5 26.3,41.1 9.2,41.2 25.8,37.1 17.2,22.4 29.1,34.7 37.5,19.8 
	32.8,36.3 49.9,36.2 33.3,40.3 "/>
<polygon fill="#FFFF33" points="48.1,74.7 47.3,63.3 36.6,67.3 46,60.9 37.2,53.6 47.5,58.6 49.3,47.3 50.2,58.7 60.9,54.7 
	51.5,61.1 60.3,68.4 50,63.4 "/>
</svg>
