<?xml version="1.0" encoding="utf-8"?>
<!-- Generator: Adobe Illustrator 18.0.0, SVG Export Plug-In . SVG Version: 6.00 Build 0)  -->
<!DOCTYPE svg PUBLIC "-//W3C//DTD SVG 1.1//EN" "http://www.w3.org/Graphics/SVG/1.1/DTD/svg11.dtd">
<svg version="1.1" id="Layer_1" xmlns="http://www.w3.org/2000/svg" xmlns:xlink="http://www.w3.org/1999/xlink" x="0px" y="0px"
	 viewBox="0 0 91.5 160.5" enable-background="new 0 0 91.5 160.5" xml:space="preserve">
<path fill="#00FFFF" stroke="#000000" stroke-miterlimit="10" d="M12.3,17.1c0,0,18.7-9.4,15.8-4c-2.9,5.4,26.6,10.8,42.4-1.9
	l12.6,1.9l-5.7,90.8l2.7,47.4L48.1,154l-4.9-13.1v13.5l-34.5-3.1L12.3,17.1z"/>
<polygon fill="#FFFF00" points="51.3,66.3 39.5,53.9 31,68.8 35.7,52.4 18.6,52.4 35.2,48.3 26.6,33.6 38.5,45.9 46.9,31.1 
	42.2,47.5 59.3,47.4 42.7,51.5 "/>
<polygon fill="#FFFF00" points="57.5,85.9 56.7,74.5 46,78.6 55.4,72.1 46.6,64.8 56.9,69.8 58.7,58.5 59.6,69.9 70.3,65.9 
	60.9,72.3 69.7,79.6 59.4,74.6 "/>
</svg>
