<?xml version="1.0" encoding="utf-8"?>
<!-- Generator: Adobe Illustrator 15.1.0, SVG Export Plug-In . SVG Version: 6.00 Build 0)  -->
<!DOCTYPE svg PUBLIC "-//W3C//DTD SVG 1.1//EN" "http://www.w3.org/Graphics/SVG/1.1/DTD/svg11.dtd">
<svg version="1.1" id="Layer_1" xmlns="http://www.w3.org/2000/svg" xmlns:xlink="http://www.w3.org/1999/xlink" x="0px" y="0px"
	 viewBox="0 0 800 600" enable-background="new 0 0 800 600" xml:space="preserve" preserveAspectRatio="none">
<linearGradient id="SVGID_1_" gradientUnits="userSpaceOnUse" x1="400.5757" y1="359.6895" x2="397.5757" y2="550.6895">
	<stop  offset="0" style="stop-color:#FFFFFF"/>
	<stop  offset="1" style="stop-color:#996600"/>
</linearGradient>
<rect x="-1" y="319" fill="url(#SVGID_1_)" width="800" height="282"/>
<linearGradient id="SVGID_2_" gradientUnits="userSpaceOnUse" x1="399.5005" y1="199.3877" x2="399.5005" y2="-22.0137">
	<stop  offset="0" style="stop-color:#FFFFFF"/>
	<stop  offset="0.9367" style="stop-color:#3FA9F5"/>
</linearGradient>
<rect x="-0.5" y="-4.5" fill="url(#SVGID_2_)" stroke="#000000" stroke-miterlimit="10" width="800" height="191"/>
<path fill="#FFFFFF" d="M479,188.5c0,0-5-70.5,60-59.5c0,0,4-45,51-36c0,0,3-41,42-17c0,0-2-49.341,36-47c0,0,62,4,42,51
	c0,0,65,7,43,65c0,0,32-18,37,24c0,0,21,2,12,19.5S479,188.5,479,188.5z"/>
<linearGradient id="SVGID_3_" gradientUnits="userSpaceOnUse" x1="400.0005" y1="338.5811" x2="400.0005" y2="173.9795">
	<stop  offset="0" style="stop-color:#FFFFFF"/>
	<stop  offset="1" style="stop-color:#33CCFF"/>
</linearGradient>
<rect y="187" fill="url(#SVGID_3_)" width="800" height="142"/>
<g>
	<path fill="#999999" d="M803,247c-37,1-74,5-111,10c-14,2-24,3-37,10c-11,7-18,15-31,17c-24,5-47,1-70,9c-12,4-21,15-31,18
		c-9,2-19-3-28-2c-9,2-40,12-46,20c-8,11,1,10,11,16c17,10,14,16,24,35c12,23,27,21,52,22c16,1,59-8,72,6c3,4,2,16,2,20
		c2,15,4,30,10,44c11,21,28,36,50,42c23,6,45,7,67,15c17,7,31,12,49,14c7,1,18,0,16,2L803,247z"/>
</g>
</svg>
