<?xml version="1.0" encoding="utf-8"?>
<!-- Generator: Adobe Illustrator 18.0.0, SVG Export Plug-In . SVG Version: 6.00 Build 0)  -->
<!DOCTYPE svg PUBLIC "-//W3C//DTD SVG 1.1//EN" "http://www.w3.org/Graphics/SVG/1.1/DTD/svg11.dtd">
<svg version="1.1" id="Layer_1" xmlns="http://www.w3.org/2000/svg" xmlns:xlink="http://www.w3.org/1999/xlink" x="0px" y="0px"
	 viewBox="0 0 58.7 92.1" enable-background="new 0 0 58.7 92.1" xml:space="preserve">
<linearGradient id="SVGID_1_" gradientUnits="userSpaceOnUse" x1="6.8281" y1="48.6064" x2="52.4354" y2="48.6064" gradientTransform="matrix(1 0 0 -1 0 95.1746)">
	<stop  offset="0" style="stop-color:#754C24"/>
	<stop  offset="1" style="stop-color:#42210B"/>
</linearGradient>
<path fill="url(#SVGID_1_)" d="M6.8,9c0,0,10.1,5.2,20.2-1.7l6.9,37.2c0,0,21.8,27.7,18.1,33.6s-13.1,8.5-20.2,7.2
	c-7.2-1.2-13.7-18.1-13.7-18.1l-3.8-20.8L6.9,13.4L6.8,9z"/>
<g>
	<g>
		<path fill="#754C24" d="M10.7,15.2c6.5,2.7,12.7,5.7,19.6,7.4c0.5,0.1,2.2-0.6,1.6-0.8c-6.8-1.6-13-4.6-19.4-7.3
			C12,14.3,10.5,15.1,10.7,15.2L10.7,15.2z"/>
	</g>
</g>
<g>
	<g>
		<path fill="#754C24" d="M30.1,22.4c0.9,0.4,0.5,2.1-0.4,2.2c-0.3,0.1-0.9,0.4-0.8,0.8c0.1,0.5,0.8,0.4,1.1,0.3c1.1-0.2,2-1,2.4-2
			c0.4-0.9,0.2-2-0.8-2.5c-0.4-0.2-1-0.1-1.4,0.1C29.9,21.7,29.6,22.2,30.1,22.4L30.1,22.4z"/>
	</g>
</g>
<g>
	<g>
		<path fill="#754C24" d="M24.2,14.6c-2.2,4.9-5.7,9-6.2,14.6c0,0.3,1.9,0.1,1.9-0.5c0.4-5.5,3.9-9.6,6.1-14.4
			C26.3,14,24.5,14.1,24.2,14.6L24.2,14.6z"/>
	</g>
</g>
<g>
	<g>
		<path fill="#754C24" d="M28.3,29.8c-1.8,2.8-4,5.2-4.9,8.5c-0.2,0.7,1.7,0.4,1.9-0.2c0.9-3.1,3-5.5,4.8-8.2
			C30.6,29.1,28.6,29.3,28.3,29.8L28.3,29.8z"/>
	</g>
</g>
<g>
	<g>
		<path fill="#754C24" d="M20.6,31.4c3.6,0.4,6.1,2.8,8.2,5.5c0.5,0.7,2.4-0.1,1.8-0.8c-2.4-3.1-5.2-5.6-9.3-6
			C20.4,30,19.3,31.3,20.6,31.4L20.6,31.4z"/>
	</g>
</g>
<g>
	<g>
		<path fill="#754C24" d="M28.6,41.3c-0.3,2.3-1.8,3.7-3.4,5.2c-0.3,0.3-0.2,0.7,0.2,0.9c0.5,0.1,1,0,1.4-0.4
			c1.8-1.7,3.5-3.2,3.8-5.8C30.6,40.2,28.7,40.5,28.6,41.3L28.6,41.3z"/>
	</g>
</g>
<g>
	<g>
		<path fill="#754C24" d="M21.8,41.4c3.6,1.2,6.8,3.2,10.4,4.6c0.8,0.3,2.3-0.8,1.1-1.3c-3.5-1.4-6.8-3.4-10.4-4.6
			C22.1,39.8,20.7,41,21.8,41.4L21.8,41.4z"/>
	</g>
</g>
<g>
	<g>
		<path fill="#754C24" d="M31.8,51.4c0,1.6-2.1,2.9-3.5,3.1c-0.3,0.1-0.9,0.2-1.1,0.5c-0.2,0.3,0.7,0.1,0.8,0.1
			c2-0.4,5.8-1.8,5.8-4.3C33.7,50.6,31.8,50.9,31.8,51.4L31.8,51.4z"/>
	</g>
</g>
<g>
	<g>
		<path fill="#754C24" d="M28.1,51.7c3,0.9,5.9,2.4,8.1,4.8c0.6,0.6,2.4-0.2,1.8-0.8c-2.4-2.5-5.5-4.2-8.8-5.2
			C28.4,50.3,26.9,51.4,28.1,51.7L28.1,51.7z"/>
	</g>
</g>
<g>
	<g>
		<path fill="#754C24" d="M37.8,60.3c-0.9,0.6-1.7,1.4-2.4,2.2c-1,1-2.3,1.2-3.6,1.7c-1.2,0.5-0.1,1.4,0.8,1
			c1.3-0.5,2.5-0.7,3.6-1.6c1-0.8,1.8-1.8,2.8-2.5C40.1,60.4,38.5,59.9,37.8,60.3L37.8,60.3z"/>
	</g>
</g>
<g>
	<g>
		<path fill="#754C24" d="M31,61.7c2.5,1.6,5.3,2.7,7.8,4.4c0.5,0.4,2.3-0.4,1.8-0.7c-2.6-1.7-5.5-2.9-8.1-4.6
			C32,60.5,30.2,61.2,31,61.7L31,61.7z"/>
	</g>
</g>
<g>
	<g>
		<path fill="#754C24" d="M23.1,16.4c0.6-1.6,1.4-3.1,2.3-4.5c0.3-0.8,0.9-0.9,1.8-0.4c-0.1,0.6-0.4,1.2-0.8,1.6
			c-0.9,1.4-3.6,1.7-5.1,1.9c-2.8,0.4-6.1-1.3-8.8-0.2c-1.7,0.7-2.5,3.6-0.1,4c2.8,0.5,5.4-1.1,8-2.1c1.3-0.5,0.1-1.1-0.8-0.8
			c-1.6,0.6-5,2.8-6.5,1.5c-1.7-1.5,1.7-1.8,2.5-1.6c0.8,0.1,1.7,0.3,2.5,0.4c3.1,0.4,7.2-0.6,9.6-2.5c2-1.6,1.8-5.1-1.3-4.3
			c-2.9,0.8-4.3,4.7-5.3,7.2C20.9,17.3,22.8,17,23.1,16.4L23.1,16.4z"/>
	</g>
</g>
<g>
	<g>
		<path fill="#754C24" d="M20.3,16.4c-0.2,4.8-2.6,10.1-6.6,12.9c-1.1,0.8,0.6,1.1,1.2,0.7c4.2-3,7.1-8.6,7.3-13.8
			C22.2,15.3,20.3,15.6,20.3,16.4L20.3,16.4z"/>
	</g>
</g>
<g>
	<g>
		<path fill="#754C24" d="M21.5,16.3c2.2,2.9,2.5,6.8,5.1,9.5c2.2,2.2,5.6,2.8,8.3,4c0.8,0.4,2.2-0.8,1.1-1.3
			c-3-1.3-6.5-1.9-8.6-4.6c-1.9-2.4-2.3-5.8-4.1-8.4C22.7,14.7,20.9,15.5,21.5,16.3L21.5,16.3z"/>
	</g>
</g>
<g>
	<g>
		<path fill="#754C24" d="M12.6,16.3c2.6,5,4.2,10.5,6.1,15.8c1.9,5.4,3.9,10.5,4.8,16.2c0,0.2,0.5,0.1,0.5-0.1
			c-1-5.6-2.8-10.9-4.8-16.2c-2-5.3-3.4-10.8-6.1-15.8C13,16,12.6,16.1,12.6,16.3L12.6,16.3z"/>
	</g>
</g>
<g>
	<g>
		<path fill="#754C24" d="M23.4,48.5c2.2,3.2,1.7,7.3,2.9,10.8c1,2.8,3.1,5.9,5.8,7.3c0.2,0.1,0.6-0.2,0.4-0.3
			c-3.2-1.6-5.4-5.5-6.3-8.9c-0.8-3.1-0.5-6.4-2.4-9.1C23.8,48.1,23.3,48.3,23.4,48.5L23.4,48.5z"/>
	</g>
</g>
<g>
	<g>
		<path fill="#754C24" d="M37.8,55c2.3,3,4.1,8.3,3,12c0.2,0,0.3-0.1,0.5-0.1c-0.2-0.2-0.3-0.5-0.4-0.8c0-0.1-0.5,0-0.5,0.1
			c0.1,0.3,0.2,0.5,0.4,0.8c0.1,0.1,0.4,0,0.5-0.1c1.2-3.8-0.7-9-2.9-12.1C38.2,54.8,37.7,55,37.8,55L37.8,55z"/>
	</g>
</g>
<g>
	<g>
		<path fill="#754C24" d="M24.2,75.5c-1.7-10.2,19-13.5,24.5-7.5c0.2,0.2,0.6,0,0.4-0.2c-5.8-6.2-27.3-3.1-25.5,7.9
			C23.7,75.9,24.2,75.8,24.2,75.5L24.2,75.5z"/>
	</g>
</g>
<g>
	<g>
		<path fill="#754C24" d="M49.7,68.8c-5.4,0.4-11.4-3.7-16.7-1.7c-4.4,1.6-7.4,5-7.9,9.7c0,0.1,0.5,0,0.5-0.1
			c0.8-7.9,8.7-10.7,16.2-8.6c2.6,0.7,5,1.2,7.7,1C49.6,69,50,68.8,49.7,68.8L49.7,68.8z"/>
	</g>
</g>
<g>
	<g>
		<path fill="#754C24" d="M30,66c-0.8-0.4-1.5-1-1.8-1.8c0-0.1-0.5,0-0.5,0.1c0.3,0.8,1,1.4,1.8,1.8C29.7,66.3,30.1,66.1,30,66
			L30,66z"/>
	</g>
</g>
<g>
	<g>
		<path fill="#754C24" d="M39.3,54.3c-0.7-3.6-2.6-6.6-4.8-9.5c-0.1-0.1-0.6,0-0.4,0.2c2.1,2.9,4,5.9,4.7,9.5
			C38.8,54.6,39.3,54.4,39.3,54.3L39.3,54.3z"/>
	</g>
</g>
</svg>
