<?xml version="1.0" encoding="utf-8"?>
<!-- Generator: Adobe Illustrator 18.0.0, SVG Export Plug-In . SVG Version: 6.00 Build 0)  -->
<!DOCTYPE svg PUBLIC "-//W3C//DTD SVG 1.1//EN" "http://www.w3.org/Graphics/SVG/1.1/DTD/svg11.dtd">
<svg version="1.1" id="Layer_1" xmlns="http://www.w3.org/2000/svg" xmlns:xlink="http://www.w3.org/1999/xlink" x="0px" y="0px"
	 viewBox="0 0 63.5 87.3" enable-background="new 0 0 63.5 87.3" xml:space="preserve">
<g>
	<path fill="#FFFFFF" d="M43.1,17c0,0,7.7,7.4,6.7,12"/>
	<path d="M43.1,17c1,0.7,1.9,1.5,2.7,2.3c0.8,0.9,1.6,1.8,2.3,2.8c0.7,1,1.3,2.1,1.6,3.2c0.4,1.1,0.6,2.5,0.1,3.6
		c0-1.2-0.4-2.3-0.9-3.3c-0.5-1-1.1-2-1.7-3C45.9,20.7,44.5,18.9,43.1,17z"/>
</g>
<g>
	<path fill="#FFFFFF" d="M46.5,14.3c0,0,3.8,3.6,5.9,11.2"/>
	<path d="M46.5,14.3c1.7,1.3,2.9,3.2,3.9,5.1c1,1.9,1.7,4,2,6.1c-0.9-2-1.7-3.9-2.7-5.8c-0.5-0.9-1-1.8-1.5-2.8
		C47.7,16.1,47.2,15.2,46.5,14.3z"/>
</g>
<g>
	<path d="M31.6,9.5c4.5,0,8.7,1.3,13.2,0.6c2.7-0.3,6-2.6,8.6-2.2c0.4,5.2-0.6,10.7-0.4,16.1c0.3,5.5,0.3,11,0.6,16.5
		c0.3,5.8,2.2,11.2,3.4,16.8c1,5.2,0.3,10.7-0.4,16c-0.3,2.8-0.4,2.8-3.4,3c-1.1,0.1-4.8,0.7-5.6,0.1c-0.7-0.6-0.1-1.9-0.7-2.6
		c-1.3-1.7-5.1,0-6.9,0.4c-3.2,0.7-6.3,2-9.7,2.5c-5.5,1-11,2.8-16.6,2.2c-2.4-0.3-6.3-0.7-7.6-3.2c-1.5-3.2,1.4-7,3.4-8.8
		c3-2.8,5.5-5,8.8-6.8c3.9-2,7.3-5.4,10.7-8.3c4.2-3.5,7.8-4.7,6.6-10.3c-1.1-5.9-2-11.6-2.4-17.6C33,19,33.1,13.5,32,8.7"/>
</g>
</svg>
