<?xml version="1.0" encoding="utf-8"?>
<!-- Generator: Adobe Illustrator 18.0.0, SVG Export Plug-In . SVG Version: 6.00 Build 0)  -->
<!DOCTYPE svg PUBLIC "-//W3C//DTD SVG 1.1//EN" "http://www.w3.org/Graphics/SVG/1.1/DTD/svg11.dtd">
<svg version="1.1" id="Layer_1" xmlns="http://www.w3.org/2000/svg" xmlns:xlink="http://www.w3.org/1999/xlink" x="0px" y="0px"
	 viewBox="0 0 63.5 84.9" enable-background="new 0 0 63.5 84.9" xml:space="preserve">
<linearGradient id="SVGID_1_" gradientUnits="userSpaceOnUse" x1="5.564" y1="43.7862" x2="57.3952" y2="43.7862" gradientTransform="matrix(1 0 0 -1 0 85.6508)">
	<stop  offset="0" style="stop-color:#754C24"/>
	<stop  offset="1" style="stop-color:#42210B"/>
</linearGradient>
<path fill="url(#SVGID_1_)" d="M56.9,55.7c-1.1-5.7-3.1-11-3.4-16.8c-0.3-5.5-0.3-11-0.6-16.5c-0.1-5.4,0.8-10.9,0.4-16.1
	c-1.2-0.2-21.2,1.6-21.2,1.6c0-0.2-0.1-0.5-0.1-0.7l-0.4,0.7c0.1,0,0.1,0,0.2,0L31,8l2.8,36.9c-0.8,2.8-1.8,2.8-4.9,5.4
	c-3.4,2.9-5.8,4-10.7,8.3c-2.8,2.5-5.9,4-8.8,6.8c-2,1.9-4.9,5.7-3.4,8.8c1.3,2.5,5.2,2.9,7.6,3.2c5.6,0.6,11.1-1.2,16.6-2.2
	c3.4-0.4,6.5-1.7,9.7-2.5c1.8-0.4,5.6-2.2,6.9-0.4c0.6,0.7,0,2,0.7,2.6c0.8,0.6,4.5,0,5.6-0.1c3-0.3,3.1-0.3,3.4-3
	C57.2,66.5,57.9,61,56.9,55.7z"/>
<g>
	<g>
		<path fill="#754C24" d="M32.7,13.9c0.7,2.6,3.2,3.1,5.6,3.3c0.8,0,2.1-1,0.7-1.1c-2-0.1-3.8-0.5-4.4-2.6
			C34.5,12.7,32.5,13.2,32.7,13.9L32.7,13.9z"/>
	</g>
</g>
<g>
	<g>
		<path fill="#754C24" d="M33.2,21.4c0.4,3.5,4.6,4.5,7.5,5.1c0.5,0.1,0.9,0,1.4-0.2c0.2-0.1,0.7-0.5,0.2-0.6
			c-2.8-0.6-6.7-1.5-7.1-4.9C35.1,20.5,33.2,20.9,33.2,21.4L33.2,21.4z"/>
	</g>
</g>
<g>
	<g>
		<path fill="#754C24" d="M33.2,29.8c0.4,4.9,5.5,6,9.6,6c1.1,0,1.5-1.5,0.2-1.5c-3.5,0-7.5-0.9-7.8-5
			C35.1,28.3,33.2,28.8,33.2,29.8L33.2,29.8z"/>
	</g>
</g>
<g>
	<g>
		<path fill="#754C24" d="M33.9,40.8c0.4,1.3,0.9,2.7,1.9,3.7c1,1.1,2.7,1.2,4.1,1.1c0.5,0,1-0.1,1.4-0.4c0.3-0.2,0.3-0.4-0.1-0.4
			c-1.3,0-2.6-0.1-3.5-1c-1-0.9-1.4-2.4-1.8-3.6C35.7,39.9,33.8,40.4,33.9,40.8L33.9,40.8z"/>
	</g>
</g>
<g>
	<g>
		<path fill="#754C24" d="M37,12.6c-0.9,1.6-2.9,3.4-4.6,4.1c-0.1,0-0.9,0.4-0.6,0.6c0.3,0.2,0.9,0,1.2-0.1c2.2-0.8,4.7-2.8,5.9-4.9
			C39,12,37.2,12.1,37,12.6L37,12.6z"/>
	</g>
</g>
<g>
	<g>
		<path fill="#754C24" d="M39.8,21.8c-0.7,2.6-4.6,3.5-6.7,4.7c-1.1,0.7,0.6,1,1.2,0.6c2.5-1.5,6.6-2.4,7.4-5.6
			C41.9,20.8,40,21.1,39.8,21.8L39.8,21.8z"/>
	</g>
</g>
<g>
	<g>
		<path fill="#754C24" d="M38.5,32c-0.6,2.2-1.9,4-3.2,5.8c-0.2,0.3,0.7,0.2,0.8,0.2c0.4-0.1,0.9-0.2,1.1-0.5
			c1.3-1.8,2.6-3.6,3.2-5.8C40.5,31.3,38.7,31.5,38.5,32L38.5,32z"/>
	</g>
</g>
<g>
	<g>
		<path fill="#754C24" d="M37.3,41.4c-0.2,2-1.2,3.5-2.7,4.7c-1,0.8,0.6,1.3,1.2,0.7c1.8-1.4,3.2-3.2,3.4-5.6
			C39.4,40.3,37.4,40.6,37.3,41.4L37.3,41.4z"/>
	</g>
</g>
<g>
	<g>
		<path fill="#754C24" d="M36.9,50.9c-1.8-1.7-5.7-3-7.9-1.4c-1.1,0.7,0.5,1.5,1.3,0.9c0.7-0.5,2.1,0.1,2.8,0.4
			c0.8,0.3,1.7,0.7,2.3,1.3C36,52.6,37.7,51.6,36.9,50.9L36.9,50.9z"/>
	</g>
</g>
<g>
	<g>
		<path fill="#754C24" d="M32.2,48.1c0.2,1.1,0.7,2.4,0,3.4c-0.3,0.3,0.2,0.4,0.5,0.4c0.4,0,1-0.1,1.3-0.5c0.9-1.2,0.5-2.5,0.2-3.8
			C34,47,32.1,47.5,32.2,48.1L32.2,48.1z"/>
	</g>
</g>
<g>
	<g>
		<path fill="#754C24" d="M29.1,58.6c-2.4-2-6.8-2.2-9.6-0.9c-1.2,0.6,0.6,0.7,1.2,0.4c1.7-0.9,5.1,0,6.6,1.2
			C27.8,59.7,29.5,59,29.1,58.6L29.1,58.6z"/>
	</g>
</g>
<g>
	<g>
		<path fill="#754C24" d="M24.1,53.2c0.1,2.4,1.4,6-1.3,7.5c-1.1,0.6,0.6,0.7,1.2,0.4c3.4-1.9,2.1-5.2,2.1-8.4
			C26.1,52.2,24.1,52.6,24.1,53.2L24.1,53.2z"/>
	</g>
</g>
<g>
	<g>
		<path fill="#754C24" d="M36.5,12.2c0.6-0.9,1.5-1.5,2.3-2.1c0.2-0.2,4.8-2.8,4-0.3c-0.8,2.3-6.6,3.5-8.5,3.1
			c-2.4-0.5-6.5-4.9-9.1-3c-2.9,2.1-0.4,5.4,2.1,6.1c3.8,1.1,7.4,0,9.9-2.8c-0.6-0.1-1.1-0.2-1.7-0.4c-2.1,4.9-4.2,9.9-8.3,13.4
			c-1,0.9,0.6,1.4,1.3,0.8c4.4-3.7,6.7-8.8,8.9-14c0.4-1-1.3-0.8-1.7-0.4c-1.9,2.1-9.5,4.2-9.7-0.8c0-1.9,5.3,1.5,6.3,1.9
			c3.4,1.6,7.9-0.3,10.8-2.2c1.8-1.2,2.8-4.8-0.4-4.6c-3,0.2-6.4,2.4-8,4.9C34.1,12.8,36.1,12.8,36.5,12.2L36.5,12.2z"/>
	</g>
</g>
<g>
	<g>
		<path fill="#754C24" d="M34.3,16.9c1.7,3.6,2.1,7.9,3.4,11.7c0.7,2.2,1.9,6.7,5,6c1.2-0.3,0.9-1.3-0.3-1
			c-2.3,0.6-5.3-15.3-6.2-17.2C35.9,15.7,34,16.3,34.3,16.9L34.3,16.9z"/>
	</g>
</g>
<g>
	<g>
		<path fill="#754C24" d="M41.4,14.3c3,6.1,2.2,13.1,2,19.7c-0.2,7.5-0.3,14.6-2.3,21.8c-0.1,0.2,0.4,0.1,0.5-0.1
			c2.2-7.6,2.1-15.2,2.3-23.1c0.2-6.2,0.7-12.7-2.1-18.5C41.8,14,41.3,14.2,41.4,14.3L41.4,14.3z"/>
	</g>
</g>
<g>
	<g>
		<path fill="#754C24" d="M41.4,50.1C37.6,56.4,29,60.2,22.1,62c-0.3,0.1-0.2,0.4,0.1,0.3c7.1-1.9,15.7-5.7,19.7-12.2
			C42,49.9,41.5,49.9,41.4,50.1L41.4,50.1z"/>
	</g>
</g>
<g>
	<g>
		<path fill="#754C24" d="M16.3,61.6c3,0,6.1-0.1,8.4,2.1c2,2,2.9,4.9,3.3,7.5c0,0.2,0.5,0.1,0.5-0.1c-0.4-3-1.5-5.8-3.6-7.9
			c-2.1-2.1-5.6-1.9-8.3-1.9C16.3,61.3,16,61.6,16.3,61.6L16.3,61.6z"/>
	</g>
</g>
<g>
	<g>
		<path fill="#754C24" d="M15.6,61.8c3.4-0.5,6.9,0.3,8.6,3.5c1.1,2.1,1.1,4.6,1.7,6.8c0,0.1,0.5,0,0.5-0.1c0-1.3-0.2-2.5-0.5-3.7
			c0-0.1-0.5,0-0.5,0.1c0.3,1.2,0.5,2.4,0.5,3.7c0.2,0,0.3-0.1,0.5-0.1c-0.9-3-0.8-6.2-3-8.6c-1.8-2-5.2-2.2-7.7-1.8
			C15.5,61.6,15.2,61.8,15.6,61.8L15.6,61.8z"/>
	</g>
</g>
<g>
	<g>
		<path fill="#754C24" d="M56.8,64.4c-1.8,3.9-6,4.8-9.7,5.9c-0.3,0.1,0,0.1,0.2,0.1c3.8-1.2,8.2-2.1,10-6.1
			C57.3,64.3,56.8,64.3,56.8,64.4L56.8,64.4z"/>
	</g>
</g>
<g>
	<g>
		<path fill="#754C24" d="M36.2,14.3c-0.3-0.1-0.7,0-0.9-0.3C35.2,14,35,14,34.9,14.1c0.3,0.3,0.4,0.5,0,0.7c0.1,0,0.3,0,0.4,0
			c-0.4-0.7,0.1-2.5,1.1-1.8c0.4,0.2,0.2,0.8,0.1,1.1c-0.3,0.6-0.9,0.7-1.5,0.6c-0.4-0.1-0.8-0.3-1.1-0.6c-0.6-0.6,0.2-1.2,0.8-0.8
			c0.7,0.5,1.2,1.6,1.2,2.4c0.1-0.1,0.2-0.1,0.3-0.2c-0.6,0-1.4,0-1.5-0.7c-0.1-0.6,0.3-1.2,0.7-1.6c0.3-0.4,0.8-1,1.4-1.1
			c0.7-0.2,0.6,1.1,0.6,1.4c0,0.2,0.5,0.1,0.5-0.1c0-0.6,0-1.6-0.8-1.6c-0.7,0-1.4,0.5-1.8,1c-0.5,0.5-1,1.3-1,2
			c0,0.9,1.1,1,1.7,0.9c0.1,0,0.3,0,0.3-0.2c0.1-1.1-1-3.2-2.4-2.7c-0.6,0.2-1,0.7-0.6,1.3c0.4,0.6,1.4,0.8,2,0.8
			c0.6,0,1.1-0.4,1.5-0.8c0.3-0.4,0.5-1.2-0.1-1.5c-1.3-0.5-2.7,1-1.9,2.2c0.1,0.1,0.3,0.1,0.4,0c0.6-0.4,0.8-0.5,0.2-1
			c-0.1-0.1-0.5,0-0.5,0.2c0.2,0.6,0.5,0.3,0.9,0.4C35.9,14.5,36.4,14.3,36.2,14.3L36.2,14.3z"/>
	</g>
</g>
</svg>
