<?xml version="1.0" encoding="utf-8"?>
<!-- Generator: Adobe Illustrator 18.0.0, SVG Export Plug-In . SVG Version: 6.00 Build 0)  -->
<!DOCTYPE svg PUBLIC "-//W3C//DTD SVG 1.1//EN" "http://www.w3.org/Graphics/SVG/1.1/DTD/svg11.dtd">
<svg version="1.1" id="Layer_1" xmlns="http://www.w3.org/2000/svg" xmlns:xlink="http://www.w3.org/1999/xlink" x="0px" y="0px"
	 viewBox="0 0 77.2 51.2" enable-background="new 0 0 77.2 51.2" xml:space="preserve">
<g>
	<path fill="#FFFF99" stroke="#33CCCC" stroke-miterlimit="10" d="M62.3,32.1c-15.2,2.2-21.2-6.7-23.4-12.5l0-4.6
		c0,0-0.1-8.5-0.6-6.8c-0.5-1.7-0.6,6.8-0.6,6.8l0,4.6c-2.2,5.8-8.1,14.7-23.4,12.5c0,0,3.7,9.5-8.6,14.5h32h1.2h32
		C58.6,41.6,62.3,32.1,62.3,32.1z"/>
	<polygon fill="#FFFF99" stroke="#33CCCC" stroke-miterlimit="10" points="38.3,0 40.1,3.7 44.2,4.3 41.3,7.1 41.9,11.1 38.3,9.2 
		34.7,11.1 35.4,7.1 32.5,4.3 36.5,3.7 	"/>
	<polygon fill="#FFFF99" stroke="#33CCCC" stroke-miterlimit="10" points="38.6,31 40.4,34.7 44.4,35.3 41.5,38.1 42.2,42.1 
		38.6,40.2 35,42.1 35.7,38.1 32.7,35.3 36.8,34.7 	"/>
	<circle fill="#FFFF99" stroke="#33CCCC" stroke-miterlimit="10" cx="12.2" cy="30" r="2.3"/>
	<circle fill="#FFFF99" stroke="#33CCCC" stroke-miterlimit="10" cx="64.2" cy="30" r="2.3"/>
</g>
</svg>
