<?xml version="1.0" encoding="utf-8"?>
<!-- Generator: Adobe Illustrator 18.0.0, SVG Export Plug-In . SVG Version: 6.00 Build 0)  -->
<!DOCTYPE svg PUBLIC "-//W3C//DTD SVG 1.1//EN" "http://www.w3.org/Graphics/SVG/1.1/DTD/svg11.dtd">
<svg version="1.1" id="Layer_1" xmlns="http://www.w3.org/2000/svg" xmlns:xlink="http://www.w3.org/1999/xlink" x="0px" y="0px"
	 viewBox="0 0 200 400" enable-background="new 0 0 200 400" xml:space="preserve">
<g>
	<path fill="#FFFFFF" d="M188.1,158.5l-66.6-45.4c-1.1-0.7-2.3-1.2-3.5-1.5c-1.6-7.4-3.6-13.8-5.9-18.7
		c14.9-5.1,25.7-19.3,25.7-35.9c0-21-17-38-38-38s-38,17-38,38c0,17.1,11.3,31.5,26.7,36.3c-2,4.4-3.7,9.8-5.2,16
		c-1.8,0.2-3.5,0.9-5,2.1l-63.3,49.9c-4.4,3.4-5.1,9.8-1.7,14.2c3.4,4.4,9.8,5.1,14.2,1.7l52-41c-0.4,5.3-0.6,10.9-0.6,16.6
		c0,19.7,2.4,37.6,6.3,50.5c-1.6,1.2-2.8,2.9-3.5,4.9L41.2,334.5c-1.7,5.3,1.2,11,6.5,12.7c5.3,1.7,11-1.2,12.7-6.5l37.7-117.2
		c0.8,0.3,1.6,0.5,2.4,0.5c0.2,0,0.4,0,0.6-0.1L136.7,341c1.6,5.3,7.3,8.3,12.6,6.7s8.3-7.3,6.7-12.6L117.3,208
		c-0.4-1.4-1.2-2.7-2.1-3.7c4.1-13,6.7-31.3,6.7-51.7c0-5.2-0.2-10.3-0.5-15.2l55.3,37.7c4.6,3.1,10.9,1.9,14-2.6v0
		C193.9,167.9,192.7,161.6,188.1,158.5z"/>
	<g>
		<path d="M188.9,157.2c-13.2-9-26.3-17.9-39.5-26.9c-7.6-5.2-15.2-10.3-22.7-15.5c-1.5-1-2.9-2-4.4-3c-0.8-0.6-1.4-0.8-2.3-1.2
			c-1.5-0.7-1.8-5-2.2-6.5c-1.1-4.1-2.6-8.1-4.3-12.1c-0.3,0.7-0.6,1.5-0.9,2.2c18.5-6.7,29.3-25.1,26.1-44.6
			c-3.1-18.7-20.3-31.9-38.8-32.3C80.9,17,64.7,31.4,61,49.6c-3.9,19.7,8.6,38.8,27.2,45c-0.3-0.7-0.6-1.5-0.9-2.2
			c-1.1,2.5-2.1,5.1-2.9,7.7c-0.9,2.7-0.9,7.3-3.9,8.3c-1.5,0.5-2.8,1.6-4.1,2.6c-3.7,2.9-7.5,5.9-11.2,8.8
			c-12.3,9.7-24.7,19.4-37,29.2c-7.3,5.7-20.2,12.2-18,23.2c1.7,8.3,12.4,10.7,18.5,5.9c3.1-2.4,6.2-4.9,9.3-7.3
			c14.2-11.2,28.5-22.4,42.7-33.6c-0.9-0.4-1.7-0.7-2.6-1.1c-1,15.1-0.7,30.3,1.2,45.3c0.7,5.7,1.8,11.4,3.1,17
			c0.8,3.2,1.1,3.5-0.5,6.2c-0.7,1.1-1.2,2-1.6,3.3c-2.4,7.5-4.8,15-7.2,22.5c-9.3,28.9-18.6,57.9-27.9,86.8
			c-2.1,6.5-6.1,14.4-6,21.4c0.2,8.8,11.5,13.8,18.3,8.5c3.1-2.4,4.1-5.5,5.3-9c8.5-26.4,16.9-52.7,25.4-79.1
			c3.7-11.7,7.5-23.3,11.2-35c-0.6,0.3-1.2,0.7-1.8,1c1.2,0.3,2.2,0.6,3.4,0.5c-0.5-0.4-1-0.7-1.4-1.1c6.7,22.1,13.4,44.1,20.1,66.2
			c4.1,13.5,8.2,26.9,12.3,40.4c2.5,8.4,4.3,19.7,15.9,18.6c7.2-0.7,11.4-8.5,9.4-15c-0.8-2.5-1.5-5-2.3-7.5
			c-3.8-12.3-7.5-24.7-11.3-37c-8-26.3-16-52.5-24-78.8c-0.3-1.1-0.7-2.3-1-3.4c-0.4-1.2-0.9-2.4-1.7-3.4c-1-1.3,1.9-8.7,2.3-10.4
			c4-18.5,4.6-37.8,3.5-56.6c-0.8,0.4-1.5,0.9-2.3,1.3c14.1,9.6,28.1,19.2,42.2,28.8c4.6,3.1,9.5,7.6,14.7,9.8
			c12.7,5.3,22.4-11.4,11.6-19.9c-1.5-1.2-3.6,0.9-2.1,2.1c7.2,5.7,3.6,15.8-5.3,15.8c-2.5,0-4.7-1.9-6.7-3.2
			c-6.1-4.1-12.2-8.3-18.2-12.4c-11.5-7.9-23.1-15.7-34.6-23.6c-0.9-0.6-2.3,0.2-2.3,1.3c1,15.6,0.5,31.2-1.7,46.7
			c-0.9,5.9-2.1,11.7-3.7,17.4c-1.2,4.3,0.1,2.9,1.4,7.4c2.4,8,4.9,16,7.3,24c8.8,29,17.7,58,26.5,87c2.3,7.5,9.9,22.4-0.9,26.5
			c-11,4.2-13.9-16-15.9-22.5c-8.7-28.7-17.4-57.4-26.2-86c-1.4-4.7-2.9-9.5-4.3-14.2c-0.2-0.6-0.8-1.2-1.4-1.1
			c-0.9,0.1-1.8,0-2.6-0.4c-0.8-0.2-1.6,0.3-1.8,1c-7,21.9-14.1,43.8-21.1,65.7c-4.3,13.5-8.7,27-13,40.5c-1.1,3.3-2.1,6.7-3.2,10
			c-0.6,1.8-1.4,3.3-2.8,4.7c-6.3,6.4-16.3-1.5-13.8-9.2c7-21.7,13.9-43.4,20.9-65c4.6-14.3,9.2-28.7,13.8-43
			c1.5-4.6,2.9-9.1,4.4-13.7c1.1-3.4,1.7-6.3,4.6-8.9c0.4-0.3,0.5-1,0.4-1.5c-6.3-21.5-7.2-44.6-5.7-66.8c0.1-1.5-1.6-1.8-2.6-1.1
			c-8.7,6.8-17.3,13.7-26,20.5c-8.9,7-17.5,14.7-26.8,21c-4,2.8-9.3,0.6-11.7-3c-2.6-3.7-0.8-8.5,2.2-11.2c0.6-0.6,1.4-1.1,2-1.6
			c4.3-3.4,8.5-6.7,12.8-10.1c12.3-9.7,24.6-19.4,36.9-29.1c4.5-3.6,10-9.7,15.9-10.8c0.5-0.1,0.9-0.6,1-1c1.3-5.3,2.8-10.6,5-15.6
			C90.3,93,90,92,89,91.7C71.5,86,61,68.6,63.9,50.4c2.8-16.9,17.8-29.1,34.5-30c17.2-0.9,32.3,11.2,36.7,27.4
			c5,18.3-6.1,37.2-23.4,43.5c-1,0.4-1.3,1.3-0.9,2.2c2.6,5.9,4.3,12.1,5.7,18.4c0.1,0.5,0.6,0.9,1,1c4.4,1.3,8.5,5,12.2,7.5
			c7.7,5.2,15.3,10.5,23,15.7c11.5,7.9,23,15.7,34.5,23.6C189,160.9,190.5,158.3,188.9,157.2z"/>
	</g>
</g>
<ellipse fill="#FFFFFF" stroke="#000000" stroke-miterlimit="10" cx="86.5" cy="45.2" rx="5.3" ry="3.5"/>
<ellipse fill="#FFFFFF" stroke="#000000" stroke-miterlimit="10" cx="115.8" cy="45.2" rx="6.2" ry="3.5"/>
<path fill="none" stroke="#000000" stroke-miterlimit="10" d="M110.7,75.6C105.5,82.6,94,82.8,85,76"/>
</svg>
