<?xml version="1.0" encoding="utf-8"?>
<!-- Generator: Adobe Illustrator 18.0.0, SVG Export Plug-In . SVG Version: 6.00 Build 0)  -->
<!DOCTYPE svg PUBLIC "-//W3C//DTD SVG 1.1//EN" "http://www.w3.org/Graphics/SVG/1.1/DTD/svg11.dtd">
<svg version="1.1" id="Layer_1" xmlns="http://www.w3.org/2000/svg" xmlns:xlink="http://www.w3.org/1999/xlink" x="0px" y="0px"
	 viewBox="0 0 238 439.9" enable-background="new 0 0 238 439.9" xml:space="preserve">
<path class="doll-hair" fill="#B26E04" stroke="#000000" stroke-miterlimit="10" d="M70.6,76.7c9.4,23.9,5,47.2,32.1,57.9c11.3,3.8,20.1,8.2,31.4,1.9
	c12.6-6.3,24.9-19.2,29.9-31.8c4.4-1.9,10.9-2.9,11.6-8.6c0.6-7.5-1.2-15.4-6.9-13.4h0c-0.6-2-1.3-3-1.9-4.3l-1.3-6.2
	c1.3,2.5,0.6,6.3,0.6,8.8c-11.9,5-17.6-10-20.1-19.5c-1.3,5,0,10.1,2.5,14.5c-9.4-1.9-20.8-7.5-28.9-13.2c0,6.3,3.8,11.3,8.8,14.5
	c-17,1.3-35.8-11.3-40.3-27.7c0.6,11.9,3.8,22.6,11.9,32.1c-14.5,1.9-34-2.5-38.4-17.6C59.3,56,59.9,44,67.5,37.7
	c0,0,4.5-36.4,57-37.6c0,0,90.9-8.9,55.5,118.4l0.5-0.7c16.7,6.7,25.6,38.4,8.9,48.8c-6.7,4.3-22-5.9-21.5,0
	c3.7,40.7-19.8,24.6-19.8,24.6c3.4,34.7-48,29.6-48,29.6c-5.5,0.6-7.4-1.2-11-4.9c0,11.6,1.8,19.5-10.4,22
	c-9.1,1.8-23.2,0.6-20.7-11.6c-17.7,7.3-34.8-10.4-20.1-25.6c-32.3,2.4-45.7-32.3-13.4-43.9C14,147.1,0.6,141,0,123.9
	c0-14,9.1-22,22-25.6c12.2-3.7,23.2,1.8,31.1-4.9c5.5-4.9,11-14.6,14-22"/>
<path class="doll-skin" fill="#FFCC99" stroke="#000000" stroke-miterlimit="10" d="M120.9,139.6l-0.4,7.3c-17.2,1.3-23.9,4.8-23.9,4.8h-0.1
	c0,0-20.3,37.7-27.1,58.1c-4.2,12.5-11.2,37.6-18.9,42.2c0,0-11.4,5.6-11.4,12.8s4.9,11.7,13.3,8.5c1.1-0.4-0.6-2.4-0.6-3.5
	c0-2.1,5.3-7.2,7-6.2c1.1,0.6,0.7,4.7,0.9,6.1c0.2,1.2,1.7,3.7,2.5,3.8c3,0.3,1.2-4.8,1.7-6.6c1.4-4.6,1-14.4,2.6-18.9
	c8-22.1,13.9-27.4,19.6-39.8L98.7,182l3.8,49.6l0,0c0,0,3.9,45.3,3.9,46.1c0,0,0,25.6,0,34.1c0,0.1,0,0.1,0,0.2
	c-0.8,11.1,7.8,96.6,6.4,99.3c-1.1,1.9-4.3,3.9-4.6,4.2c-2.9,2.9-17.8,10.4-16.5,15.8c1.3,5.4,11.6,7.5,22.9,4.8
	c11.4-2.8,19.5-9.4,18.2-14.8c-0.4-1.5-0.1-1.3-1.2-4.4c-4.4-9.6-4.1-27.3-4.1-27.8c1.2-38.6-2.2-76-2.2-77.2v-34
	c1.2-0.1,1.8-9.2,5.8-9.4c3.6-0.1,4.3,8.6,5,8.8c-0.3,6-0.5,22.8,4.7,35.1c0,0,21.3,70.1,24.9,86.6c0,0,2.6,13.8,3.2,20.6
	c0,0-1.7,10.7,7.2,17.7c0,0,10.3,4.5,16.4,1.9c0,0,7.2,3.3-9.4-31.6c-9.2-19.3-11.8-70.2-18.9-89.4c-0.7-1.9-7.7-19.1-7.7-19.1
	l-2-23.3c3.6-1.4,4.9-48.9,4.9-48.9l4-54.1V172l24.4,40.3c3.8,12.8,24.4,41,24.4,41c0.7,5.6,0.8,10.7,3.4,12.2c5,3,5.2,5.9,7.1,6.3
	c1.3,0.3-1.8-7.7-1.8-7.7s1.5,0.8,5.4,2.8c5.4,2.8,7.1,11.1,9.2,8.7c5.7-6.5,0-15.4,0-15.4c-14-12.2-41.3-66-41.3-66l-15.4-32
	c-5.5-14.1-13.4-13.4-13.4-13.4c-9.7-1.3-18.2-1.9-25.6-2.2l-2.6-11.9"/>
<g>
	<path d="M232.1,261.2c1.7,1.3,2.9,3.2,3.9,5.1c1,1.9,1.7,4,2,6.1c-0.9-2-1.7-3.9-2.7-5.8c-0.5-0.9-1-1.8-1.5-2.8
		C233.3,262.9,232.7,262,232.1,261.2z"/>
</g>
<g>
	<path d="M51.8,264.1c-0.8,0.5-1.4,1.2-1.9,2c-0.5,0.8-0.8,1.6-0.9,2.5c-0.1,0.9,0.1,1.7,0.3,2.6c0.2,0.9,0.5,1.7,0.7,2.7l-0.1,0.1
		c-0.8-0.7-1.3-1.5-1.7-2.5c-0.4-1-0.3-2-0.1-3c0.2-1,0.7-1.9,1.3-2.7C50.1,265.1,50.9,264.5,51.8,264.1L51.8,264.1z"/>
</g>
<g>
	<path d="M48.8,263c-1.6,1.3-2.7,3.1-2.8,5.1c-0.1,1,0.2,1.9,0.3,2.9c0.2,1,0.5,1.9,0.7,3l-0.1,0.1c-0.8-0.8-1.3-1.7-1.7-2.8
		c-0.4-1-0.3-2.2-0.1-3.3C45.5,265.8,46.9,263.9,48.8,263L48.8,263z"/>
</g>
<g>
	<path fill="#FFFFFF" d="M44.5,262c0,0-5,4.9,0,11.4"/>
	<path d="M44.6,262.1c-1.2,1.6-1.9,3.7-1.8,5.6c0.1,1,0.5,1.9,0.7,2.8c0.3,0.9,0.7,1.8,1,2.9l-0.1,0.1c-0.9-0.6-1.6-1.5-2.1-2.5
		c-0.5-1-0.6-2.2-0.6-3.3c0-1.1,0.3-2.2,0.8-3.2C43,263.6,43.7,262.7,44.6,262.1L44.6,262.1z"/>
</g>
<path fill="#FFFFFF" stroke="#000000" stroke-miterlimit="10" d="M109.4,147.9c0,0-8.9,14.9-3.8,28.9h48.3c0,0,1.2-24-3.3-29h5.3
	c0,0,8.2,13.7,7.5,24.2s2.1-0.6,1,1.6s-5.4,65.2-5.4,65.2h-57.1L98.7,182c0,0-4.6-25,4-32.3L109.4,147.9z"/>
<path fill="#FFFFFF" stroke="#000000" stroke-miterlimit="10" d="M102.7,238.6l56.2,0.7c0,0-1.2,35.6-3.9,36.4l-18.9,3.2
	c0,0-1.7-10.5-5.3-10.2c-0.2,0-0.3,0.1-0.5,0.1c-3.9,1.5-4,10-4,10l-20.8-4l-2.7-35.9"/>
<path class="doll-skin" fill="#FFCC99" stroke="#000000" stroke-miterlimit="10" d="M70.6,76.7c9.4,23.9,5,47.2,32.1,57.9c11.3,3.8,20.1,8.2,31.4,1.9
	c12.6-6.3,24.9-19.2,29.9-31.8c4.4-1.9,10.9-2.4,11.6-8.1c0.6-7.5-1.2-14.9-6.9-12.9h0c-0.6-2-1.3-3.5-1.9-4.8l-1.3-6.5
	c1.3,2.5,0.6,6.2,0.6,8.7c-11.9,5-17.6-10.1-20.1-19.5c-1.3,5,0,10,2.5,14.4c-9.4-1.9-20.8-7.6-28.9-13.2c0,6.3,3.8,11.3,8.8,14.5
	c-17,1.3-35.8-11.3-40.3-27.7c0.6,11.9,3.8,22.6,11.9,32.1c-15.4,0.8-21,0.1-29.6-6.2"/>
<path fill="none" stroke="#000000" stroke-width="0.25" stroke-miterlimit="10" d="M94.5,114.7c-0.6,0.3-1.2,0.5-1.6,0.9"/>
<path fill="none" stroke="#000000" stroke-width="0.25" stroke-miterlimit="10" d="M90.9,115.4c0.6-0.2,1.1-0.6,1.7-0.7"/>
<g>
	<path d="M114.8,108.2c-0.2,0.4-0.4,0.8-0.6,1.2c-0.1,0.4-0.2,0.8-0.1,1.2c0.1,0.4,0.4,0.6,0.8,0.9c0.4,0.2,0.8,0.4,1.2,0.6
		c-0.5,0-0.9-0.1-1.4-0.3c-0.4-0.2-0.9-0.5-1-1.1c-0.2-0.5,0-1.1,0.2-1.5C114.1,108.8,114.4,108.5,114.8,108.2z"/>
</g>
<ellipse opacity="0.43" fill="#FFCCBF" enable-background="new    " cx="94.1" cy="115.1" rx="4.4" ry="2.4"/>
<ellipse opacity="0.43" fill="#FF3600" enable-background="new    " cx="94.1" cy="115.1" rx="4.4" ry="2.4"/>
<g>
	<path fill="#FF3F1F" d="M109.2,119.4c0,0,10.3,1.9,23.3-0.9C132.5,118.5,123.7,137.3,109.2,119.4z"/>
	<path d="M109.2,119.4c1.9,0.2,3.9,0.3,5.8,0.3c1.9,0,3.9,0,5.8-0.1c3.9-0.3,7.7-0.7,11.5-1.6l1-0.2l-0.4,0.9
		c-1.1,2.3-2.7,4.3-4.6,6c-1.9,1.7-4.4,2.9-7,2.8c-2.6-0.1-5-1.2-7-2.8C112.3,123.3,110.7,121.4,109.2,119.4z M109.2,119.4
		c1.6,1.8,3.4,3.6,5.4,5c2,1.4,4.3,2.4,6.7,2.3c2.4,0,4.6-1.1,6.4-2.7c1.8-1.6,3.2-3.6,4.4-5.7l0.5,0.7c-3.9,0.8-7.8,1.3-11.7,1.3
		c-2,0-3.9,0-5.9-0.1C113.1,120,111.1,119.8,109.2,119.4z"/>
</g>
<g>
	<path d="M153.8,88.4c0.7,0,1.3,0,1.9-0.1c0.6-0.1,1.3-0.2,1.9-0.3c1.3-0.2,2.5-0.6,3.7-0.9c-1.1,0.8-2.3,1.3-3.6,1.6
		c-0.7,0.1-1.3,0.2-2,0.2C155.1,88.8,154.4,88.7,153.8,88.4z"/>
</g>
<g>
	<g>
		<path d="M155.7,95.5c0,2.8-1.1,5.6-3,7.7c-1.9,2.1-4.7,3.4-7.6,3.4c-2.9,0.1-5.8-1.1-7.8-3.2c-2.1-2.1-3.2-5-3.2-7.9
			c0-2.9,1.2-5.8,3.2-7.9c2-2.1,5-3.3,7.8-3.2c2.9,0,5.7,1.3,7.6,3.4C154.6,89.8,155.7,92.6,155.7,95.5z M155.7,95.5
			c0-2.8-1.1-5.6-3.1-7.6c-2-2-4.7-3.1-7.5-3c-2.7,0-5.4,1.3-7.2,3.3c-1.9,2-2.9,4.6-2.9,7.3c0,2.7,1,5.4,2.9,7.3
			c1.8,2,4.5,3.2,7.2,3.3c2.7,0.1,5.5-1,7.5-3C154.5,101,155.7,98.3,155.7,95.5z"/>
	</g>
	<g>
		<path d="M131.1,86.1c1.6-1.7,3.7-2.9,6-3.5c2.3-0.6,4.7-0.7,7-0.2c2.3,0.5,4.5,1.4,6.5,2.7c1.9,1.3,3.7,2.9,5.2,4.7l-0.1,0.1
			c-1.8-1.4-3.6-2.8-5.6-4c-1.9-1.2-3.9-2.2-6.1-2.8c-2.2-0.6-4.5-0.6-6.7-0.1C135,83.5,132.9,84.6,131.1,86.1L131.1,86.1z"/>
	</g>
	<g>
		<path d="M128,82.2c0.6,0.7,1.4,1.2,2.2,1.6c0.4,0.2,0.8,0.3,1.2,0.5c0.4,0.2,0.8,0.4,1.2,0.7l0,0.1c-0.5,0.2-1,0.2-1.5,0.1
			c-0.5-0.1-0.9-0.4-1.3-0.7C129,83.8,128.4,83,128,82.2L128,82.2z"/>
	</g>
	<g>
		<path d="M131.6,80.2c0.7,0.6,1.4,1.2,2.2,1.5c0.4,0.2,0.8,0.2,1.2,0.4c0.4,0.2,0.8,0.4,1.2,0.7l0,0.1c-0.5,0.2-1,0.2-1.5,0.1
			c-0.5-0.1-0.9-0.4-1.3-0.7C132.6,81.8,131.9,81.1,131.6,80.2L131.6,80.2z"/>
	</g>
	<g>
		<path d="M136.3,78.7c0.5,0.8,1.2,1.5,1.9,2c0.4,0.3,0.8,0.4,1.1,0.7c0.3,0.3,0.7,0.5,1.1,0.9l0,0.1c-0.5,0.1-1,0-1.5-0.2
			c-0.5-0.2-0.8-0.6-1.1-1C137,80.5,136.5,79.6,136.3,78.7L136.3,78.7z"/>
	</g>
	<g>
		<path d="M155.7,95.5c0,2.8-1.1,5.6-3,7.7c-1.9,2.1-4.7,3.4-7.6,3.4c-2.9,0.1-5.8-1.1-7.8-3.2c-2.1-2.1-3.2-5-3.2-7.9
			c0-2.9,1.2-5.8,3.2-7.9c2-2.1,5-3.3,7.8-3.2c2.9,0,5.7,1.3,7.6,3.4C154.6,89.8,155.7,92.6,155.7,95.5z M155.7,95.5
			c0-2.8-1.1-5.6-3.1-7.6c-2-2-4.7-3.1-7.5-3c-2.7,0-5.4,1.3-7.2,3.3c-1.9,2-2.9,4.6-2.9,7.3c0,2.7,1,5.4,2.9,7.3
			c1.8,2,4.5,3.2,7.2,3.3c2.7,0.1,5.5-1,7.5-3C154.5,101,155.7,98.3,155.7,95.5z"/>
	</g>
	<g>
		<path d="M131.1,86.1c1.6-1.7,3.7-2.9,6-3.5c2.3-0.6,4.7-0.7,7-0.2c2.3,0.5,4.5,1.4,6.5,2.7c1.9,1.3,3.7,2.9,5.2,4.7l-0.1,0.1
			c-1.8-1.4-3.6-2.8-5.6-4c-1.9-1.2-3.9-2.2-6.1-2.8c-2.2-0.6-4.5-0.6-6.7-0.1C135,83.5,132.9,84.6,131.1,86.1L131.1,86.1z"/>
	</g>
	<g>
		<path d="M128,82.2c0.6,0.7,1.4,1.2,2.2,1.6c0.4,0.2,0.8,0.3,1.2,0.5c0.4,0.2,0.8,0.4,1.2,0.7l0,0.1c-0.5,0.2-1,0.2-1.5,0.1
			c-0.5-0.1-0.9-0.4-1.3-0.7C129,83.8,128.4,83,128,82.2L128,82.2z"/>
	</g>
	<g>
		<path d="M131.6,80.2c0.7,0.6,1.4,1.2,2.2,1.5c0.4,0.2,0.8,0.2,1.2,0.4c0.4,0.2,0.8,0.4,1.2,0.7l0,0.1c-0.5,0.2-1,0.2-1.5,0.1
			c-0.5-0.1-0.9-0.4-1.3-0.7C132.6,81.8,131.9,81.1,131.6,80.2L131.6,80.2z"/>
	</g>
	<g>
		<path d="M136.3,78.7c0.5,0.8,1.2,1.5,1.9,2c0.4,0.3,0.8,0.4,1.1,0.7c0.3,0.3,0.7,0.5,1.1,0.9l0,0.1c-0.5,0.1-1,0-1.5-0.2
			c-0.5-0.2-0.8-0.6-1.1-1C137,80.5,136.5,79.6,136.3,78.7L136.3,78.7z"/>
	</g>
	<g>

			<linearGradient id="SVGID_1_" gradientUnits="userSpaceOnUse" x1="134.517" y1="343.0122" x2="155.687" y2="343.0122" gradientTransform="matrix(1 0 0 -1 0 438.4644)">
			<stop  offset="0" style="stop-color:#FFFFFF"/>
			<stop  offset="7.360000e-02" style="stop-color:#7FD0E8"/>
			<stop  offset="0.1534" style="stop-color:#00B0D8"/>
			<stop  offset="0.3006" style="stop-color:#008AA9"/>
			<stop  offset="0.9888" style="stop-color:#00708C"/>
		</linearGradient>
		<ellipse fill="url(#SVGID_1_)" cx="145.1" cy="95.5" rx="10.6" ry="10.8"/>
		<path d="M155.7,95.5c0,2.8-1.1,5.6-3,7.7c-1.9,2.1-4.7,3.4-7.6,3.4c-2.9,0.1-5.8-1.1-7.8-3.2c-2.1-2.1-3.2-5-3.2-7.9
			c0-2.9,1.2-5.8,3.2-7.9c2-2.1,5-3.3,7.8-3.2c2.9,0,5.7,1.3,7.6,3.4C154.6,89.8,155.7,92.6,155.7,95.5z M155.7,95.5
			c0-2.8-1.1-5.6-3.1-7.6c-2-2-4.7-3.1-7.5-3c-2.7,0-5.4,1.3-7.2,3.3c-1.9,2-2.9,4.6-2.9,7.3c0,2.7,1,5.4,2.9,7.3
			c1.8,2,4.5,3.2,7.2,3.3c2.7,0.1,5.5-1,7.5-3C154.5,101,155.7,98.3,155.7,95.5z"/>
	</g>
	<g>
		<path d="M131.1,86.1c1.6-1.7,3.7-2.9,6-3.5c2.3-0.6,4.7-0.7,7-0.2c2.3,0.5,4.5,1.4,6.5,2.7c1.9,1.3,3.7,2.9,5.2,4.7l-0.1,0.1
			c-1.8-1.4-3.6-2.8-5.6-4c-1.9-1.2-3.9-2.2-6.1-2.8c-2.2-0.6-4.5-0.6-6.7-0.1C135,83.5,132.9,84.6,131.1,86.1L131.1,86.1z"/>
	</g>
	<g>
		<path d="M128,82.2c0.6,0.7,1.4,1.2,2.2,1.6c0.4,0.2,0.8,0.3,1.2,0.5c0.4,0.2,0.8,0.4,1.2,0.7l0,0.1c-0.5,0.2-1,0.2-1.5,0.1
			c-0.5-0.1-0.9-0.4-1.3-0.7C129,83.8,128.4,83,128,82.2L128,82.2z"/>
	</g>
	<g>
		<path d="M131.6,80.2c0.7,0.6,1.4,1.2,2.2,1.5c0.4,0.2,0.8,0.2,1.2,0.4c0.4,0.2,0.8,0.4,1.2,0.7l0,0.1c-0.5,0.2-1,0.2-1.5,0.1
			c-0.5-0.1-0.9-0.4-1.3-0.7C132.6,81.8,131.9,81.1,131.6,80.2L131.6,80.2z"/>
	</g>
	<g>
		<path d="M136.3,78.7c0.5,0.8,1.2,1.5,1.9,2c0.4,0.3,0.8,0.4,1.1,0.7c0.3,0.3,0.7,0.5,1.1,0.9l0,0.1c-0.5,0.1-1,0-1.5-0.2
			c-0.5-0.2-0.8-0.6-1.1-1C137,80.5,136.5,79.6,136.3,78.7L136.3,78.7z"/>
	</g>
	<ellipse cx="147.8" cy="96.3" rx="4.9" ry="4.5"/>

		<radialGradient id="SVGID_2_" cx="126.9918" cy="346.2746" r="4.0866" gradientTransform="matrix(1.0793 0 0 -1 3.5056 438.4644)" gradientUnits="userSpaceOnUse">
		<stop  offset="0.4971" style="stop-color:#FFFFFF"/>
		<stop  offset="1" style="stop-color:#FFFFFF"/>
	</radialGradient>
	<path fill="url(#SVGID_2_)" d="M140.7,91.6c-1.6,2.5-1.3,6-2.6,5.3c-1.2-0.7-1.6-4,0-6.5c1.6-2.5,4.5-3.3,5.8-2.7
		S142.2,89,140.7,91.6z"/>
	<g>
		<path d="M131.2,84.1c1.6-1.6,3.7-2.8,6-3.4c2.2-0.6,4.6-0.6,6.9-0.1c2.3,0.5,4.4,1.5,6.3,2.8c1.9,1.3,3.7,2.8,5.3,4.4l0,0
			c-1.7-1.6-3.5-3-5.4-4.2c-1.9-1.2-4-2.2-6.3-2.8c-2.2-0.5-4.6-0.6-6.8,0C135,81.4,132.8,82.5,131.2,84.1L131.2,84.1z"/>
	</g>
	<g>
		<path d="M137.2,106.2c1.1,0.3,2.1,0.5,3.2,0.6c1.1,0.1,2.1,0.2,3.2,0.2c2.1,0,4.2-0.5,6.2-1.3c-0.9,0.7-1.9,1.2-2.9,1.5
			c-1.1,0.4-2.2,0.5-3.3,0.6C141.3,107.8,139.1,107.3,137.2,106.2z"/>
	</g>
	<g>
		<path d="M150.6,86.4c0.5,0.1,0.9,0,1.3-0.1c0.4-0.1,0.8-0.2,1.3-0.3c0.4-0.1,0.8-0.3,1.2-0.4c0.4-0.2,0.8-0.4,1.2-0.5
			c-0.6,0.7-1.4,1.2-2.3,1.5c-0.4,0.1-0.9,0.2-1.4,0.2C151.4,86.8,151,86.7,150.6,86.4z"/>
	</g>
	<ellipse fill="#1C252E" cx="148.8" cy="97.6" rx="3.1" ry="2.9"/>
	<path fill="#FFFFFF" d="M153.3,99.9c-0.5,1-1.6,1.5-2.4,1.1c-0.8-0.4-1.1-1.5-0.6-2.5c0.5-1,1.6-1.5,2.4-1.1
		C153.5,97.8,153.8,98.9,153.3,99.9z"/>
</g>
<path fill="#FF3600" stroke="#000000" stroke-width="0.25" stroke-miterlimit="10" d="M148.3,112.5c-0.7-0.1-1.6,0-2.2,0.3"/>
<path fill="#FF3600" stroke="#000000" stroke-width="0.25" stroke-miterlimit="10" d="M143.9,112.8c0.4-0.4,0.9-0.6,1.4-0.7"/>
<ellipse opacity="0.43" fill="#FF3600" enable-background="new    " cx="145.1" cy="113.1" rx="4.4" ry="2.4"/>
<g>
	<g>
		<path d="M106.3,96.6c0.3,2.6,0,5.3-1.3,7.6c-1.2,2.3-3.3,4.3-6,4.8c-2.6,0.6-5.5-0.5-7.4-2.4c-1.9-1.9-3.1-4.5-3.4-7.1
			c-0.3-2.6,0.1-5.4,1.4-7.8c1.3-2.3,3.6-4.2,6.3-4.6c2.7-0.5,5.4,0.7,7.1,2.6C104.9,91.5,106,94.1,106.3,96.6z M106.3,96.6
			c-0.4-2.6-1.5-5-3.3-6.9c-1.8-1.8-4.5-2.8-7-2.2c-2.5,0.5-4.5,2.3-5.7,4.5c-1.2,2.2-1.6,4.8-1.2,7.3c0.3,2.5,1.3,4.9,3.1,6.7
			c1.7,1.8,4.2,2.9,6.7,2.5c2.5-0.4,4.7-2.1,5.9-4.4C106.2,101.9,106.6,99.2,106.3,96.6z"/>
	</g>
	<g>
		<path d="M84.7,90.5c1-1.7,2.6-3.2,4.4-4.2c1.8-1,4-1.3,6-1.1c2.1,0.2,4.1,0.9,5.8,1.9c1.8,1.1,3.4,2.4,4.7,3.9l-0.1,0.1
			c-1.7-1.1-3.3-2.3-5.1-3.2c-1.7-0.9-3.6-1.7-5.5-2c-1.9-0.3-4,0-5.7,0.8C87.5,87.6,85.9,88.9,84.7,90.5L84.7,90.5z"/>
	</g>
	<g>
		<path d="M81.6,87.1c0.6,0.5,1.3,1,2,1.3c0.4,0.1,0.7,0.2,1.1,0.3c0.3,0.1,0.7,0.3,1.1,0.5l0,0.1c-0.4,0.3-0.9,0.3-1.3,0.3
			c-0.5,0-0.8-0.3-1.2-0.6C82.6,88.5,82,87.8,81.6,87.1L81.6,87.1z"/>
	</g>
	<g>
		<path d="M84.3,84.7c0.6,0.5,1.3,0.9,2,1.2c0.4,0.1,0.7,0.2,1.1,0.3c0.3,0.1,0.7,0.3,1.1,0.5l0,0.1c-0.4,0.3-0.9,0.3-1.3,0.3
			c-0.5,0-0.8-0.3-1.2-0.5C85.3,86,84.7,85.4,84.3,84.7L84.3,84.7z"/>
	</g>
	<g>
		<path d="M88.1,82.6c0.5,0.7,1.1,1.3,1.8,1.7c0.3,0.2,0.7,0.4,1,0.6c0.3,0.2,0.6,0.4,1,0.8l0,0.1c-0.5,0.1-1,0.1-1.4-0.1
			c-0.4-0.2-0.8-0.5-1.1-0.8C88.8,84.2,88.3,83.4,88.1,82.6L88.1,82.6z"/>
	</g>
	<g>
		<path d="M106.3,96.6c0.3,2.6,0,5.3-1.3,7.6c-1.2,2.3-3.3,4.3-6,4.8c-2.6,0.6-5.5-0.5-7.4-2.4c-1.9-1.9-3.1-4.5-3.4-7.1
			c-0.3-2.6,0.1-5.4,1.4-7.8c1.3-2.3,3.6-4.2,6.3-4.6c2.7-0.5,5.4,0.7,7.1,2.6C104.9,91.5,106,94.1,106.3,96.6z M106.3,96.6
			c-0.4-2.6-1.5-5-3.3-6.9c-1.8-1.8-4.5-2.8-7-2.2c-2.5,0.5-4.5,2.3-5.7,4.5c-1.2,2.2-1.6,4.8-1.2,7.3c0.3,2.5,1.3,4.9,3.1,6.7
			c1.7,1.8,4.2,2.9,6.7,2.5c2.5-0.4,4.7-2.1,5.9-4.4C106.2,101.9,106.6,99.2,106.3,96.6z"/>
	</g>
	<g>
		<path d="M84.7,90.5c1-1.7,2.6-3.2,4.4-4.2c1.8-1,4-1.3,6-1.1c2.1,0.2,4.1,0.9,5.8,1.9c1.8,1.1,3.4,2.4,4.7,3.9l-0.1,0.1
			c-1.7-1.1-3.3-2.3-5.1-3.2c-1.7-0.9-3.6-1.7-5.5-2c-1.9-0.3-4,0-5.7,0.8C87.5,87.6,85.9,88.9,84.7,90.5L84.7,90.5z"/>
	</g>
	<g>
		<path d="M81.6,87.1c0.6,0.5,1.3,1,2,1.3c0.4,0.1,0.7,0.2,1.1,0.3c0.3,0.1,0.7,0.3,1.1,0.5l0,0.1c-0.4,0.3-0.9,0.3-1.3,0.3
			c-0.5,0-0.8-0.3-1.2-0.6C82.6,88.5,82,87.8,81.6,87.1L81.6,87.1z"/>
	</g>
	<g>
		<path d="M84.3,84.7c0.6,0.5,1.3,0.9,2,1.2c0.4,0.1,0.7,0.2,1.1,0.3c0.3,0.1,0.7,0.3,1.1,0.5l0,0.1c-0.4,0.3-0.9,0.3-1.3,0.3
			c-0.5,0-0.8-0.3-1.2-0.5C85.3,86,84.7,85.4,84.3,84.7L84.3,84.7z"/>
	</g>
	<g>
		<path d="M88.1,82.6c0.5,0.7,1.1,1.3,1.8,1.7c0.3,0.2,0.7,0.4,1,0.6c0.3,0.2,0.6,0.4,1,0.8l0,0.1c-0.5,0.1-1,0.1-1.4-0.1
			c-0.4-0.2-0.8-0.5-1.1-0.8C88.8,84.2,88.3,83.4,88.1,82.6L88.1,82.6z"/>
	</g>
	<g>

			<linearGradient id="SVGID_3_" gradientUnits="userSpaceOnUse" x1="90.0082" y1="311.07" x2="107.824" y2="311.07" gradientTransform="matrix(0.99 -0.1412 -0.1412 -0.99 43.5227 419.9255)">
			<stop  offset="0" style="stop-color:#FFFFFF"/>
			<stop  offset="7.360000e-02" style="stop-color:#7FD0E8"/>
			<stop  offset="0.1534" style="stop-color:#00B0D8"/>
			<stop  offset="0.3006" style="stop-color:#008AA9"/>
			<stop  offset="0.9888" style="stop-color:#00708C"/>
		</linearGradient>
		<path fill="url(#SVGID_3_)" d="M106.3,96.6c0.8,5.9-2.6,11.4-7.4,12.1c-4.9,0.8-9.4-3.4-10.2-9.4C88,93.5,91.3,88,96.1,87.3
			S105.6,90.7,106.3,96.6z"/>
		<path d="M106.3,96.6c0.3,2.6,0,5.3-1.3,7.6c-1.2,2.3-3.3,4.3-6,4.8c-2.6,0.6-5.5-0.5-7.4-2.4c-1.9-1.9-3.1-4.5-3.4-7.1
			c-0.3-2.6,0.1-5.4,1.4-7.8c1.3-2.3,3.6-4.2,6.3-4.6c2.7-0.5,5.4,0.7,7.1,2.6C104.9,91.5,106,94.1,106.3,96.6z M106.3,96.6
			c-0.4-2.6-1.5-5-3.3-6.9c-1.8-1.8-4.5-2.8-7-2.2c-2.5,0.5-4.5,2.3-5.7,4.5c-1.2,2.2-1.6,4.8-1.2,7.3c0.3,2.5,1.3,4.9,3.1,6.7
			c1.7,1.8,4.2,2.9,6.7,2.5c2.5-0.4,4.7-2.1,5.9-4.4C106.2,101.9,106.6,99.2,106.3,96.6z"/>
	</g>
	<g>
		<path d="M84.7,90.5c1-1.7,2.6-3.2,4.4-4.2c1.8-1,4-1.3,6-1.1c2.1,0.2,4.1,0.9,5.8,1.9c1.8,1.1,3.4,2.4,4.7,3.9l-0.1,0.1
			c-1.7-1.1-3.3-2.3-5.1-3.2c-1.7-0.9-3.6-1.7-5.5-2c-1.9-0.3-4,0-5.7,0.8C87.5,87.6,85.9,88.9,84.7,90.5L84.7,90.5z"/>
	</g>
	<g>
		<path d="M81.6,87.1c0.6,0.5,1.3,1,2,1.3c0.4,0.1,0.7,0.2,1.1,0.3c0.3,0.1,0.7,0.3,1.1,0.5l0,0.1c-0.4,0.3-0.9,0.3-1.3,0.3
			c-0.5,0-0.8-0.3-1.2-0.6C82.6,88.5,82,87.8,81.6,87.1L81.6,87.1z"/>
	</g>
	<g>
		<path d="M84.3,84.7c0.6,0.5,1.3,0.9,2,1.2c0.4,0.1,0.7,0.2,1.1,0.3c0.3,0.1,0.7,0.3,1.1,0.5l0,0.1c-0.4,0.3-0.9,0.3-1.3,0.3
			c-0.5,0-0.8-0.3-1.2-0.5C85.3,86,84.7,85.4,84.3,84.7L84.3,84.7z"/>
	</g>
	<g>
		<path d="M88.1,82.6c0.5,0.7,1.1,1.3,1.8,1.7c0.3,0.2,0.7,0.4,1,0.6c0.3,0.2,0.6,0.4,1,0.8l0,0.1c-0.5,0.1-1,0.1-1.4-0.1
			c-0.4-0.2-0.8-0.5-1.1-0.8C88.8,84.2,88.3,83.4,88.1,82.6L88.1,82.6z"/>
	</g>
	<path d="M104,97.8c0.3,2.5-1.2,4.7-3.5,5.1c-2.2,0.4-4.3-1.4-4.6-3.8c-0.3-2.5,1.2-4.7,3.5-5.1C101.6,93.7,103.6,95.4,104,97.8z"/>

		<radialGradient id="SVGID_4_" cx="115.0993" cy="311.4247" r="4.0865" gradientTransform="matrix(0.8972 -0.1412 -0.128 -0.99 29.9347 419.9255)" gradientUnits="userSpaceOnUse">
		<stop  offset="0.4971" style="stop-color:#FFFFFF"/>
		<stop  offset="1" style="stop-color:#FFFFFF"/>
	</radialGradient>
	<path fill="url(#SVGID_4_)" d="M93.3,94.7c-1,2.7-0.4,6.1-1.5,5.6c-1.1-0.5-1.9-3.7-0.9-6.5c1-2.7,3.3-3.9,4.5-3.4
		C96.6,91,94.3,92,93.3,94.7z"/>
	<g>
		<path d="M84.5,88.6c1.1-1.7,2.6-3.1,4.4-4c1.8-0.9,3.9-1.3,5.9-1c2,0.2,3.9,1,5.7,2c1.7,1,3.4,2.2,4.9,3.6l0,0
			c-1.6-1.3-3.2-2.5-4.9-3.4c-1.7-1-3.6-1.7-5.6-2c-2-0.3-4,0-5.8,0.9C87.2,85.5,85.6,86.9,84.5,88.6L84.5,88.6z"/>
	</g>
	<g>
		<path d="M92.3,109.7c0.9,0.2,1.8,0.2,2.7,0.2c0.9,0,1.8-0.1,2.7-0.3c1.8-0.3,3.4-1.1,5-2.2c-0.6,0.7-1.3,1.4-2.1,1.8
			c-0.8,0.5-1.7,0.8-2.7,1C96,110.7,94,110.5,92.3,109.7z"/>
	</g>
	<g>
		<path d="M100.9,88.4c0.4,0,0.8-0.1,1.1-0.2c0.3-0.1,0.7-0.3,1-0.5c0.7-0.3,1.2-0.8,1.9-1.3c-0.4,0.7-1,1.3-1.7,1.7
			c-0.4,0.2-0.7,0.3-1.2,0.4C101.7,88.6,101.3,88.6,100.9,88.4z"/>
	</g>
	<path fill="#1C252E" d="M103.4,99.2c0.2,1.6-0.8,3-2.2,3.3c-1.4,0.2-2.8-0.9-3-2.5s0.8-3,2.2-3.3C101.9,96.5,103.2,97.6,103.4,99.2
		z"/>
	<path fill="#FFFFFF" d="M104.9,101.4c-0.3,1.1-1.1,1.7-1.9,1.4s-1.1-1.3-0.8-2.4c0.3-1.1,1.1-1.7,1.9-1.4
		C104.8,99.3,105.2,100.3,104.9,101.4z"/>
</g>
<g>
	<path d="M228.7,263.8c1,0.7,1.9,1.5,2.7,2.3c0.8,0.9,1.6,1.8,2.3,2.8c0.7,1,1.3,2.1,1.6,3.2c0.4,1.1,0.6,2.5,0.1,3.6
		c0-1.2-0.4-2.3-0.9-3.3c-0.5-1-1.1-2-1.7-3C231.5,267.5,230.1,265.7,228.7,263.8z"/>
</g>
</svg>
