<?xml version="1.0" encoding="UTF-8" standalone="no"?>
<?xml-stylesheet type="text/css" href="../stylesheets/svg.css" ?>

<!-- Created with Inkscape (http://www.inkscape.org/) -->

<svg
   xmlns:dc="http://purl.org/dc/elements/1.1/"
   xmlns:cc="http://creativecommons.org/ns#"
   xmlns:rdf="http://www.w3.org/1999/02/22-rdf-syntax-ns#"
   xmlns:svg="http://www.w3.org/2000/svg"
   xmlns="http://www.w3.org/2000/svg"
   xmlns:sodipodi="http://sodipodi.sourceforge.net/DTD/sodipodi-0.dtd"
   xmlns:inkscape="http://www.inkscape.org/namespaces/inkscape"
   width="744.09448819"
   height="1052.3622047"
   id="svg2"
   version="1.1"
   inkscape:version="0.48.2 r9819"
   sodipodi:docname="New document 1">
<style>
</style>

  <defs
     id="defs4" />
  <sodipodi:namedview
     id="base"
     pagecolor="#ffffff"
     bordercolor="#666666"
     borderopacity="1.0"
     inkscape:pageopacity="0.0"
     inkscape:pageshadow="2"
     inkscape:zoom="0.35"
     inkscape:cx="375"
     inkscape:cy="520"
     inkscape:document-units="px"
     inkscape:current-layer="layer1"
     showgrid="false"
     inkscape:window-width="866"
     inkscape:window-height="731"
     inkscape:window-x="185"
     inkscape:window-y="27"
     inkscape:window-maximized="0" />
  <metadata
     id="metadata7">
    <rdf:RDF>
      <cc:Work
         rdf:about="">
        <dc:format>image/svg+xml</dc:format>
        <dc:type
           rdf:resource="http://purl.org/dc/dcmitype/StillImage" />
        <dc:title></dc:title>
      </cc:Work>
    </rdf:RDF>
  </metadata>
  <g
     inkscape:label="Layer 1"
     inkscape:groupmode="layer"
     id="layer1">
    <path
       style="fill:none;stroke:#000000;stroke-width:1px;stroke-linecap:butt;stroke-linejoin:miter;stroke-opacity:1"
       d="m 302.85714,152.36218 c -10.33155,0.9457 -27.99848,-2.62948 -37.14285,2.85715 -2.30987,1.38591 -3.9898,3.64489 -5.71429,5.71428 -9.33756,11.20507 -6.86325,9.60855 -14.28571,20 -2.76781,3.87492 -5.80363,7.55365 -8.57143,11.42857 -1.99589,2.79425 -3.7184,5.77719 -5.71429,8.57143 -2.7678,3.87492 -6.20886,7.29408 -8.57143,11.42857 -1.49422,2.61488 -1.73863,5.77514 -2.85714,8.57143 -0.79091,1.97727 -2.4395,3.62605 -2.85714,5.71429 -0.56033,2.80166 0.46971,5.75316 0,8.57143 -0.49512,2.97071 -2.2665,5.61822 -2.85715,8.57142 -0.37355,1.86778 0.46198,3.8664 0,5.71429 -0.5165,2.066 -2.34064,3.64828 -2.85714,5.71429 -0.46197,1.84789 0,3.80952 0,5.71428 0,6.66667 0,13.33333 0,20 0,5.71429 0,11.42857 0,17.14286 0,6.82623 -0.90351,10.8751 2.85714,17.14286 2.77184,4.61972 8.19609,7.11858 11.42858,11.42857 6.2576,8.34347 -1.42618,3.93036 8.57142,11.42857 1.70368,1.27775 3.80953,1.90476 5.71429,2.85714 3.80952,1.90476 7.73057,3.60114 11.42857,5.71429 2.98143,1.70367 5.50009,4.17861 8.57143,5.71428 2.69374,1.34687 5.71429,1.90476 8.57143,2.85715 2.85714,0.95238 5.71428,1.90476 8.57143,2.85714 5.4178,1.80593 14.61862,5.11635 20,5.71428 4.73278,0.52587 9.55293,-0.52586 14.28571,0 3.90275,0.43364 7.52582,2.42351 11.42857,2.85715 4.73278,0.52586 9.52381,0 14.28572,0 5.71428,0 11.42857,0 17.14285,0 4.76191,0 9.52381,0 14.28572,0 4.7619,0 9.54744,0.47382 14.28571,0 7.83386,-0.78339 17.90508,-3.97891 25.71429,-5.71429 4.74057,-1.05346 9.5745,-1.67934 14.28571,-2.85714 10.03745,-2.50936 20.60616,-7.64799 28.57143,-14.28572 12.21653,-10.18043 5.29586,-5.90553 14.28572,-17.14285 5.24701,-6.55877 7.91096,-5.49169 11.42857,-14.28572 0.70741,-1.76852 -0.60234,-3.90727 0,-5.71428 0.42591,-1.27776 2.43122,-1.57939 2.85714,-2.85715 0.60234,-1.80701 0,-3.80952 0,-5.71428 0,-4.76191 0.78285,-9.5886 0,-14.28572 -0.49512,-2.97071 -2.02977,-5.67561 -2.85714,-8.57142 -1.07877,-3.77569 -1.61539,-7.70332 -2.85715,-11.42858 -0.67343,-2.0203 -1.90476,-3.80952 -2.85714,-5.71428 -0.95238,-1.90476 -1.67586,-3.94236 -2.85714,-5.71429 -0.74711,-1.12066 -2.25481,-1.65246 -2.85714,-2.85714 -0.42592,-0.85184 0.42591,-2.00531 0,-2.85714 -0.60234,-1.20468 -2.25481,-1.65247 -2.85715,-2.85715 -0.42591,-0.85183 0.67344,-2.1837 0,-2.85714 -0.67343,-0.67343 -2.1837,0.67344 -2.85714,0 -0.67344,-0.67343 0.52829,-2.06471 0,-2.85714 -1.49422,-2.24133 -4.09804,-3.5593 -5.71429,-5.71429 -1.27775,-1.70367 -2.06623,-3.73701 -2.85714,-5.71428 -1.11851,-2.79629 -0.97575,-6.21969 -2.85714,-8.57143 -2.14512,-2.68139 -6.14333,-3.28618 -8.57143,-5.71429 -1.50585,-1.50584 -1.67586,-3.94236 -2.85714,-5.71428 -0.74711,-1.12067 -2.25481,-1.65247 -2.85715,-2.85715 -0.42591,-0.85183 0.67344,-2.1837 0,-2.85714 -0.67343,-0.67343 -2.1837,0.67344 -2.85714,0 -1.50585,-1.50585 -1.35129,-4.20844 -2.85714,-5.71428 -1.50585,-1.50585 -4.20844,-1.3513 -5.71429,-2.85715 -1.50584,-1.50584 -1.67586,-3.94236 -2.85714,-5.71428 -0.74711,-1.12067 -1.90476,-1.90477 -2.85714,-2.85715 -0.95238,-0.95238 -1.65247,-2.2548 -2.85715,-2.85714 -0.85183,-0.42592 -2.0053,0.42592 -2.85714,0 -1.20468,-0.60234 -1.65246,-2.2548 -2.85714,-2.85714 -0.85184,-0.42592 -2.06472,0.52828 -2.85714,0 -12.35798,-12.35798 0.75688,-0.44779 -11.42858,-8.57143 -2.24132,-1.49422 -3.15878,-4.86245 -5.71428,-5.71429 -2.56391,-1.80701 -5.86091,0.90351 -8.57143,0 -20.69548,-6.89849 4.50459,0.82373 -8.57143,-5.71428 -0.85183,-0.42592 -1.90476,0 -2.85714,0 -0.95238,0 -1.90476,0 -2.85714,0 -5.71429,0 -11.42858,0 -17.14286,0 -0.95238,0 -1.90476,0 -2.85714,0 -0.95239,0 -2.00531,0.42592 -2.85715,0 -1.20467,-0.60234 -1.65246,-2.25481 -2.85714,-2.85714 -1.70367,-0.85184 -4.01061,0.85183 -5.71429,0 -1.20467,-0.60234 -1.57939,-2.43123 -2.85714,-2.85715 -1.80701,-0.60234 -3.80952,0 -5.71428,0 -7.61905,0 -15.2381,0 -22.85715,0 z"
       id="path2987"
       inkscape:connector-curvature="0" />
    <path
       style="fill:none;stroke:#000000;stroke-width:1px;stroke-linecap:butt;stroke-linejoin:miter;stroke-opacity:1"
       d="m 291.42857,360.93361 c -1.90476,3.80952 -3.35172,7.88472 -5.71428,11.42857 -1.49422,2.24133 -3.80953,3.80953 -5.71429,5.71429 -7.61905,7.61905 -15.2381,15.23809 -22.85714,22.85714 -4.76191,4.76191 -9.52381,9.52381 -14.28572,14.28572 -1.90476,1.90476 -3.98979,3.64489 -5.71428,5.71428 -3.0485,3.6582 -5.20426,8.0614 -8.57143,11.42857 -2.42811,2.42811 -6.14333,3.28618 -8.57143,5.71429 -2.4281,2.4281 -3.80952,5.71428 -5.71429,8.57143 -8.07685,12.11528 -4.17861,5.50009 -11.42857,20 -0.95238,1.90476 -1.57939,4.01061 -2.85714,5.71428 -1.61624,2.15499 -4.50961,3.30493 -5.71429,5.71429 -1.7561,3.51221 -1.61539,7.70331 -2.85714,11.42857 -0.67343,2.0203 -2.06623,3.73701 -2.85714,5.71429 -1.11852,2.79628 -0.97575,6.21969 -2.85714,8.57142 -2.14512,2.6814 -6.42632,3.0329 -8.57143,5.71429 -1.88139,2.35174 -1.73863,5.77514 -2.85715,8.57143 -0.79091,1.97727 -1.90476,3.80952 -2.85714,5.71428 -0.95238,1.90477 -1.90476,3.80953 -2.85714,5.71429 -1.90476,1.90476 -4.32837,3.40442 -5.71429,5.71429 -1.5495,2.5825 -1.73863,5.77514 -2.85714,8.57142 -0.79091,1.97728 -1.80057,3.86529 -2.85714,5.71429 -2.85715,4.7619 -5.71429,9.52381 -8.57143,14.28571 -0.95238,2.85715 -1.51027,5.87769 -2.85714,8.57143 -13.47479,26.94958 -0.53531,-0.62562 -8.57143,11.42857 -1.37168,2.05752 -4.16985,7.25873 -2.85715,8.57143 2.42811,2.42811 5.89004,3.56917 8.57143,5.71429 2.10346,1.68276 3.5593,4.09804 5.71429,5.71428 1.70367,1.27776 3.80952,1.90477 5.71428,2.85715 1.90477,0.95238 3.69398,2.1837 5.71429,2.85714 0.90351,0.30117 1.95363,-0.30117 2.85714,0 2.02031,0.67343 3.64828,2.34064 5.71429,2.85714 1.84789,0.46198 3.84651,-0.37355 5.71428,0 2.95321,0.59064 5.77515,1.73863 8.57143,2.85715 1.97728,0.7909 3.61368,2.50704 5.71429,2.85714 3.75769,0.62628 7.69302,-0.74711 11.42857,0 1.53451,0.3069 10.50908,11.42857 11.42857,11.42857 1.34687,0 2.25481,-1.65247 2.85714,-2.85714 2.75156,-5.50311 3.88342,-14.50741 5.71429,-20 0.67344,-2.02031 2.06623,-3.73702 2.85714,-5.71429 1.11852,-2.79629 1.51028,-5.87769 2.85715,-8.57143 1.53626,-3.07253 7.50231,-10.00926 8.57142,-14.28571 0.46198,-1.84789 -0.70741,-3.94576 0,-5.71429 6.52032,-16.30079 4.41134,-1.80544 8.57143,-14.28571 0.30117,-0.90351 -0.52828,-2.06472 0,-2.85714 1.49422,-2.24133 4.50961,-3.30494 5.71429,-5.71429 0.85183,-1.70367 -0.46197,-3.8664 0,-5.71429 0.5165,-2.066 1.90476,-3.80952 2.85714,-5.71428 0.95238,-1.90476 1.67586,-3.94236 2.85714,-5.71429 0.74711,-1.12066 2.11004,-1.73648 2.85715,-2.85714 1.18128,-1.77193 1.90476,-3.80952 2.85714,-5.71429 0.95238,-1.90476 2.18371,-3.69398 2.85714,-5.71428 0.30117,-0.90351 -0.30117,-1.95364 0,-2.85714 0.67344,-2.02031 1.67586,-3.94237 2.85715,-5.71429 0.7471,-1.12066 2.43122,-1.57939 2.85714,-2.85714 3.53058,-10.59174 -3.84337,-1.87092 2.85714,-8.57143 9.19701,-9.19701 -4.20401,5.55088 2.85714,-8.57143 1.90477,-3.80952 4.76191,2.85714 2.85715,2.85714 -0.95238,0 0,-3.80952 0,-2.85714 0,20 0,40 0,60 0,8 0,12 0,20 0,3.80952 0.37906,7.63795 0,11.42857 -0.57644,5.76436 -2.37605,11.36976 -2.85715,17.14286 -4.42105,53.05264 6.09025,-15.78957 -5.71428,31.42857 -7.42989,9.81643 -0.57517,21.15968 -2.85714,31.42857 -1.11258,5.0066 -3.91347,9.48354 -5.71429,14.28572 -1.05748,2.81993 -1.90476,5.71428 -2.85714,8.57142 -0.95238,2.85715 -1.90476,5.71429 -2.85715,8.57143 0,1.90476 0.46198,3.8664 0,5.71429 -0.5165,2.066 -2.34064,3.64828 -2.85714,5.71428 -0.46197,1.84789 0.31314,3.83544 0,5.71429 -0.64556,3.87334 -1.77838,7.65289 -2.85714,11.42857 -0.82738,2.89582 -2.43123,5.59001 -2.85714,8.57143 -0.53875,3.77124 0,7.61905 0,11.42857 0,14.28572 0,28.57143 0,42.85714 0,3.80953 0.42069,7.64235 0,11.42858 -0.53628,4.8265 -2.32087,9.4592 -2.85715,14.28571 -0.42069,3.78622 0,7.61905 0,11.42857 0,6.66667 0,13.33333 0,20 0,1.90476 0,3.80952 0,5.71429 0,1.90476 0.46198,3.86639 0,5.71428 -0.5165,2.06601 -2.1837,3.69398 -2.85714,5.71429 -0.47272,1.41816 -0.24332,8.32811 0,8.57143 0.67344,0.67343 1.90476,0 2.85714,0 4.76191,0 9.52381,0 14.28572,0 13.33333,0 26.66666,0 40,0 4.7619,0 9.52381,0 14.28571,0 1.87745,0 6.95943,0.53733 8.57143,0 2.08797,-0.69599 7.26383,-3.09908 8.57143,-5.71429 0.42592,-0.85183 -0.42592,-2.00531 0,-2.85714 0.60234,-1.20468 2.2548,-1.65247 2.85714,-2.85714 0.42592,-0.85184 0,-1.90477 0,-2.85715 0,-3.80952 -0.42069,-7.64235 0,-11.42857 0.53628,-4.82651 2.37393,-9.4536 2.85714,-14.28571 0.47383,-4.73828 0,-9.52381 0,-14.28572 0,-17.14285 0,-34.28571 0,-51.42857 0,-9.52381 0,-19.04762 0,-28.57143 0,-4.7619 -0.93388,-9.61628 0,-14.28571 0.41765,-2.08824 2.34065,-3.64828 2.85715,-5.71429 0.0239,-0.0955 -0.0152,-8.55625 0,-8.57143 0.67343,-0.67343 1.90476,0 2.85714,0 1.90476,0 3.90727,-0.60233 5.71429,0 3.28195,1.09399 3.96407,6.82122 5.71428,8.57143 1.50585,1.50585 4.20844,1.3513 5.71429,2.85715 1.50584,1.50584 1.67586,3.94236 2.85714,5.71428 0.74711,1.12066 1.90476,1.90476 2.85714,2.85714 1.90476,2.85715 3.94758,5.62692 5.71429,8.57143 6.34133,10.56889 9.21036,23.11993 14.28571,34.28572 2.64369,5.81611 6.55113,11.08194 8.57143,17.14285 1.83194,5.49583 1.60044,11.4877 2.85714,17.14286 1.30666,5.87995 3.80953,11.42857 5.71429,17.14286 0.95238,2.85714 1.51027,5.87769 2.85714,8.57143 0.60234,1.20467 1.90476,1.90476 2.85715,2.85714 0.95238,0.95238 1.90476,1.90476 2.85714,2.85714 2.73452,2.73452 5.4813,6.25383 8.57143,8.57143 2.74708,2.06032 5.82434,3.65397 8.57143,5.71429 2.15499,1.61624 3.30493,4.50961 5.71428,5.71428 8.40803,4.20402 -3.76166,-6.6188 5.71429,2.85715 20,-10e-6 40,0 60,0 3.80952,0 7.61904,0 11.42857,0 0.95238,0 2.43122,0.85183 2.85714,0 0.85184,-1.70368 0,-3.80953 0,-5.71429 0,-1.90476 0,-3.80952 0,-5.71429 0,-27.59441 0.74711,6.72399 -2.85714,-25.71428 -0.42069,-3.78623 0.42069,-7.64235 0,-11.42857 -0.53628,-4.82651 -2.37393,-9.45361 -2.85714,-14.28572 -1.13719,-11.37185 0.81425,-22.88618 0,-34.28571 -0.47981,-6.71724 -1.4461,-13.41514 -2.85715,-20 -1.45275,-6.77953 -3.88997,-13.31087 -5.71428,-20 -1.0332,-3.7884 -2.46642,-7.52129 -2.85715,-11.42857 -0.56859,-5.68593 0.5686,-11.45693 0,-17.14286 -0.39072,-3.90728 -2.30181,-7.54127 -2.85714,-11.42857 -0.40406,-2.82843 0.35439,-5.73635 0,-8.57143 -0.60234,-4.81871 -1.98844,-9.50784 -2.85714,-14.28571 -7.311,-40.21049 1.34329,3.85929 -5.71429,-31.42858 -0.95238,-4.7619 -2.32086,-9.4592 -2.85714,-14.28571 -0.63104,-5.67934 0,-11.42857 0,-17.14286 0,-13.33333 0,-26.66666 0,-40 0,-0.95238 0,-1.90476 0,-2.85714 0,-0.95238 -0.67344,-2.18371 0,-2.85714 0.67344,-0.67344 1.90476,0 2.85714,0 2.85715,0 5.7996,-0.69296 8.57143,0 4.9756,1.2439 9.52381,3.80952 14.28572,5.71428 4.7619,1.90476 9.52381,3.80953 14.28571,5.71429 4.7619,1.90476 9.37328,4.24055 14.28571,5.71428 4.65141,1.39543 9.94219,0.68538 14.28572,2.85715 3.61403,1.80701 5.145,6.42991 8.57143,8.57143 11.21081,7.00675 24.94768,7.36351 37.14285,11.42857 20.69548,6.89849 -4.50459,-0.82373 8.57143,5.71428 0.85184,0.42592 1.90476,0 2.85715,0 0.95238,0 2.1837,0.67344 2.85714,0 0.0693,-0.0693 -0.0348,-17.03856 0,-17.14285 1.08588,-3.25765 4.17862,-5.5001 5.71428,-8.57143 2.69374,-5.38748 3.02055,-11.75538 5.71429,-17.14286 0.60234,-1.20468 2.43123,-1.57939 2.85714,-2.85714 0.60234,-1.80702 -1.05657,-4.12943 0,-5.71429 2.98844,-4.48265 7.61905,-7.61905 11.42857,-11.42857 2.85715,-4.76191 5.6282,-9.57654 8.57143,-14.28571 12.77777,-20.44443 -2.47831,5.14603 14.28572,-20 6.29475,-1.43884 1.51027,-5.87769 2.85714,-8.57143 0.60234,-1.20468 2.593,-1.53643 2.85714,-2.85715 0.74711,-3.73554 0,-7.61904 0,-11.42857 0,-12.85054 1.41482,-12.88189 -5.71428,-25.71428 -2.31259,-4.16266 -6.25885,-7.26592 -8.57143,-11.42857 -10.07461,-18.1343 -0.80385,-9.57625 -11.42857,-22.85715 -1.68277,-2.10346 -4.32837,-3.40442 -5.71429,-5.71428 -1.5495,-2.58251 -2.1267,-5.64966 -2.85714,-8.57143 -0.23099,-0.92395 0.67343,-2.18371 0,-2.85714 -0.67344,-0.67344 -1.90476,0 -2.85714,0 -2.85715,0 -5.71429,0 -8.57143,0 -4.76191,0 -9.52381,0 -14.28572,0 -2.85714,0 -5.79959,0.69295 -8.57143,0 -8.31453,-2.07864 -23.63173,-9.95414 -31.42857,-14.28572 C 552.51901,375.1902 548.93034,372.60146 540,366.6479 c -6.27018,-4.18012 -12.75005,-9.01192 -20,-11.42857 -1.80702,-0.60234 -3.94576,0.70741 -5.71429,0 -3.18825,-1.27531 -5.62692,-3.94758 -8.57142,-5.71429 -3.65222,-2.19133 -7.88473,-3.35172 -11.42858,-5.71429 -1.12066,-0.74711 -1.57939,-2.43122 -2.85714,-2.85714 -1.80701,-0.60234 -3.90727,0.60234 -5.71428,0 -1.27776,-0.42592 -1.65247,-2.2548 -2.85715,-2.85714 -0.85183,-0.42592 -1.90476,0 -2.85714,0 -2.85714,-0.95238 -5.87769,-1.51027 -8.57143,-2.85714 -1.20468,-0.60234 -1.65246,-2.25481 -2.85714,-2.85715 -0.85184,-0.42592 -2.00531,0.42592 -2.85714,0 -7.06116,-3.53058 0.98622,-2.85714 -5.71429,-2.85714"
       id="path2991"
       inkscape:connector-curvature="0" />
    <path
       style="fill:none;stroke:#000000;stroke-width:1px;stroke-linecap:butt;stroke-linejoin:miter;stroke-opacity:1"
       d="M 277.14286,220.93361 280,218.07647"
       id="path2993"
       inkscape:connector-curvature="0" />
    <path
       sodipodi:type="arc"
       style="fill:#ff0000;fill-rule:evenodd;stroke:#000000;stroke-width:1px;stroke-linecap:butt;stroke-linejoin:miter;stroke-opacity:1"
       id="path2995"
       sodipodi:cx="370"
       sodipodi:cy="230.93361"
       sodipodi:rx="15.714286"
       sodipodi:ry="10"
       d="m 385.71429,230.93361 a 15.714286,10 0 1 1 -31.42858,0 15.714286,10 0 1 1 31.42858,0 z" />
    <path
       sodipodi:type="arc"
       style="fill:#ff0000;fill-rule:evenodd;stroke:#000000;stroke-width:1px;stroke-linecap:butt;stroke-linejoin:miter;stroke-opacity:1"
       id="path2997"
       sodipodi:cx="291.42856"
       sodipodi:cy="219.50504"
       sodipodi:rx="8.5714283"
       sodipodi:ry="12.857142"
       d="m 299.99999,219.50504 a 8.5714283,12.857142 0 1 1 -17.14286,0 8.5714283,12.857142 0 1 1 17.14286,0 z" />
    <path
       style="fill:none;stroke:#000000;stroke-width:1px;stroke-linecap:butt;stroke-linejoin:miter;stroke-opacity:1"
       d="m 288.57143,286.6479 c 9.52381,0 19.04762,0 28.57143,0 2.85714,0 5.76977,-0.56033 8.57143,0 2.08823,0.41764 3.64828,2.34064 5.71428,2.85714 1.84789,0.46197 3.83544,-0.31314 5.71429,0 3.87334,0.64556 7.54127,2.30181 11.42857,2.85714 2.82843,0.40406 5.71428,0 8.57143,0 11.42857,0 22.85714,0 34.28571,0 4.76191,0 9.52381,0 14.28572,0 0.95238,0 2.85714,-0.95238 2.85714,0 0,0.95238 -3.80953,0 -2.85714,0 1.90476,0 3.90727,0.60234 5.71428,0 10.59174,-3.53058 -3.48272,-2.85714 5.71429,-2.85714"
       id="path2999"
       inkscape:connector-curvature="0" />
  </g>
</svg>
