<?xml version="1.0" encoding="utf-8"?>
<!-- Generator: Adobe Illustrator 18.0.0, SVG Export Plug-In . SVG Version: 6.00 Build 0)  -->
<!DOCTYPE svg PUBLIC "-//W3C//DTD SVG 1.1//EN" "http://www.w3.org/Graphics/SVG/1.1/DTD/svg11.dtd">
<svg version="1.1" id="Layer_1" xmlns="http://www.w3.org/2000/svg" xmlns:xlink="http://www.w3.org/1999/xlink" x="0px" y="0px"
	 viewBox="0 0 267.5 302.4" enable-background="new 0 0 267.5 302.4" xml:space="preserve">
<linearGradient id="SVGID_1_" gradientUnits="userSpaceOnUse" x1="150.9957" y1="278.7278" x2="194.6217" y2="278.7278" gradientTransform="matrix(1 0 0 -1 0 306.2857)">
	<stop  offset="0" style="stop-color:#6600FF"/>
	<stop  offset="0.9695" style="stop-color:#FFFFFF"/>
</linearGradient>
<ellipse fill="url(#SVGID_1_)" stroke="#0000CC" stroke-miterlimit="10" cx="172.8" cy="27.6" rx="21.8" ry="21.5"/>
<path fill="#FFFFFF" d="M94.2,294.8c0,0-0.6-8.5,6.4-5.6c0,0,8,3.8,11.9-1.9c0,0,4.9-5.6,7.6-3.3c0,0,3.6,9.6,8.1,7.1l1.3,1.6
	c0,0-2.4-7.2,11.1-2.3c0,0,4.9,1,7.6-3.6c0.1-0.2,0.3-0.5,0.4-0.8c2.5-5.5,8.5-0.6,6.5-2.1c0,0,4.6,10.3,8.1,6.1c0,0,1.1-5,6.6-4.5
	s9.5,0.5,12.6-7c0,0,1.5-3.3,5-2.2c0.2,0.1,0.4,0.1,0.5,0.2c4,1.6,6.1,10.6,10.7,6.3l2.3-0.3c0,0,9.2,4.7,14.2-0.2s5-4.8,5-4.8
	s9.2,1.2,14.9-5.6c0,0,5.7-1.7,10.5,1.1c0,0,6.5-1.1,10-7.3c0,0,4.3-3,4.5,2c0,0,2.6-0.7-8.6-26.1c0,0-114,56.5-235.6,6.5
	c0,0-9.7,16.3-8.6,24.6c0,0,2.6-6.5,7.1,0c0,0,5.7,7.9,12.5,3.8c0,0,4.9-1.7,11.3,4.4c0,0,5.7,3.3,8.9,1.6l1.2,3.7c0,0,0-3.9,9.7,0
	c1.1,0.5,6.6,3.2,10.7-2.7c0,0,5.2-3.2,6-0.6l0,0c0.9,2.6,2.6,12.1,6.6,6.9c0,0,2.3,8.2,9.3,3.6C90.5,293.4,94.4,292.8,94.2,294.8"
	/>
<g>
	<path fill="#FFFFFF" d="M15.7,248.3c0,0-10,16.6-8.6,24.6c0,0,1.8-5.5,7.1,0c0,0,2.6,6.5,9.7,5.1c0,0,5.6-3.7,9.7,0.2
		c0,0,7.2,6.4,13.3,4.5"/>
	<path d="M15.7,248.3c-2.1,3.9-4,7.8-5.6,11.9c-0.8,2-1.5,4.1-2,6.2c-0.5,2.1-0.9,4.3-0.5,6.3l-0.9-0.1c0.3-0.8,0.7-1.5,1.4-2.1
		c0.7-0.6,1.6-0.8,2.5-0.7c0.9,0.1,1.6,0.5,2.2,1c0.7,0.5,1.2,1,1.8,1.5l0.1,0.1l0,0.1c0.4,0.8,0.9,1.6,1.5,2.3
		c0.6,0.7,1.4,1.3,2.2,1.7c1.6,0.9,3.6,1.1,5.5,0.7l-0.2,0.1c1-0.6,1.9-1,3-1.3c1-0.3,2.2-0.4,3.3-0.3c1.1,0.1,2.2,0.5,3.1,1.2
		c0.5,0.3,0.8,0.7,1.2,1c0.4,0.3,0.8,0.6,1.2,1c1.7,1.2,3.5,2.3,5.4,3c1.9,0.7,4.1,1.1,6.1,0.5c-2,0.7-4.2,0.4-6.2-0.2
		c-2-0.6-3.9-1.6-5.6-2.8c-0.4-0.3-0.9-0.6-1.3-0.9c-0.4-0.3-0.8-0.7-1.2-1c-0.8-0.5-1.8-0.9-2.8-1c-2-0.2-4,0.5-5.7,1.5l-0.1,0
		l-0.1,0c-2,0.4-4.2,0.3-6.1-0.8c-0.9-0.5-1.8-1.2-2.5-1.9c-0.7-0.8-1.3-1.6-1.7-2.6l0.1,0.2c-0.5-0.5-1-1-1.6-1.4
		c-0.6-0.4-1.2-0.7-1.8-0.8c-0.6-0.1-1.3,0-1.8,0.5c-0.5,0.4-0.9,1-1.1,1.6L7,274.6L6.7,273c-0.4-2.3,0-4.6,0.6-6.7
		c0.6-2.2,1.4-4.2,2.2-6.3c0.9-2,1.8-4,2.9-6C13.4,252.1,14.5,250.2,15.7,248.3z"/>
</g>
<g>
	<path fill="#FFFFFF" d="M31.2,254.5c0,0-5.2,15-4.5,22.2"/>
	<path d="M31.2,254.5c-0.8,3.7-1.8,7.4-2.7,11c-0.4,1.8-0.8,3.7-1.2,5.5c-0.3,1.9-0.6,3.7-0.6,5.6c-0.4-1.9-0.3-3.8-0.1-5.7
		c0.2-1.9,0.6-3.8,1-5.6C28.5,261.6,29.7,258,31.2,254.5z"/>
</g>
<g>
	<path d="M198.5,257.7c0.5,1.7,1,3.4,1.4,5.2c0.5,1.7,0.8,3.5,1.2,5.2c0.4,1.8,0.7,3.5,1.1,5.3c0.3,1.8,0.6,3.5,0.9,5.3
		c-0.5-1.7-1-3.4-1.4-5.2c-0.4-1.7-0.8-3.5-1.2-5.2c-0.4-1.8-0.7-3.5-1.1-5.3C199.1,261.3,198.8,259.5,198.5,257.7z"/>
</g>
<g>
	<path d="M232.4,272.9c-1.2-1.6-2.2-3.2-3.1-5c-0.9-1.7-1.7-3.5-2.3-5.4c-0.6-1.9-1.1-3.8-1.2-5.8c0-1,0-2,0.2-3
		c0.2-1,0.5-1.9,1.1-2.7c-0.8,1.8-0.9,3.8-0.7,5.6c0.2,1.9,0.7,3.8,1.3,5.6c0.6,1.8,1.3,3.6,2.1,5.4
		C230.7,269.4,231.5,271.1,232.4,272.9z"/>
</g>
<g>
	<path d="M82.3,291.2c-1-1.9-1.1-4.1-1.1-6.1c0-2.1,0.2-4.2,0.6-6.3c0.4-2.1,0.8-4.1,1.4-6.1c0.6-2,1.2-4,2-5.9c-0.5,2-1,4-1.5,6.1
		c-0.5,2-0.9,4-1.2,6.1c-0.4,2-0.6,4.1-0.7,6.1c-0.1,1-0.1,2.1,0,3.1C81.8,289.2,81.9,290.3,82.3,291.2z"/>
</g>
<g>
	<path d="M247.6,266.7c-1.6-1-2.9-2.5-4-4c-1.1-1.6-1.9-3.3-2.5-5.1c-0.6-1.8-0.9-3.7-1-5.6c-0.1-1.9,0-3.8,0.3-5.7
		c0,1.9,0.1,3.8,0.3,5.6c0.2,1.8,0.6,3.7,1.2,5.4c0.5,1.8,1.3,3.5,2.2,5.1c0.5,0.8,1,1.6,1.6,2.3
		C246.3,265.4,246.9,266.1,247.6,266.7z"/>
</g>
<g>
	<path d="M218.2,276.7c-1.8-3.3-3.1-6.9-3.9-10.5c-0.4-1.8-0.7-3.7-0.8-5.6c-0.1-1.9,0.1-3.8,0.8-5.6c-0.3,1.9-0.2,3.7,0,5.5
		c0.2,1.8,0.6,3.6,1,5.4c0.4,1.8,0.9,3.6,1.4,5.4L218.2,276.7z"/>
</g>
<path fill="#FFFFFF" d="M89.6,267.3c0,0-0.4,19.4,4.9,25.6c0,0-1.2-5.7,6.2-3.6c0,0,5.4,4.3,10.9-0.5c0,0,3-6,8.5-4.7
	c0,0,3.7,10.7,8.1,6.1"/>
<path d="M95.2,294.4l-1.1-1.3c-1.5-1.8-2.2-4-2.8-6.1c-0.6-2.2-0.9-4.3-1.2-6.5c-0.3-2.2-0.4-4.4-0.5-6.6c-0.1-2.2-0.1-4.4,0-6.6
	c0.1,4.4,0.5,8.8,1.1,13.1c0.3,2.2,0.8,4.3,1.4,6.4c0.6,2.1,1.4,4.1,2.7,5.7l-0.8,0.4c-0.1-0.8-0.1-1.7,0.2-2.5
	c0.3-0.8,1-1.5,1.8-1.8c0.8-0.3,1.6-0.3,2.4-0.3c0.8,0.1,1.6,0.2,2.3,0.4l0.1,0l0.1,0.1c0.7,0.5,1.6,1,2.5,1.3
	c0.9,0.3,1.8,0.4,2.8,0.4c1.9,0,3.7-0.9,5.1-2.1l-0.1,0.1c0.4-0.8,1-1.5,1.6-2.2c0.6-0.7,1.3-1.3,2.1-1.8c0.8-0.5,1.7-0.8,2.6-1
	c0.9-0.1,1.9-0.1,2.7,0.1l0.2,0l0.1,0.2c0.3,1,0.7,1.9,1.2,2.8c0.5,0.9,1,1.8,1.6,2.6c0.6,0.8,1.4,1.5,2.3,1.8c1,0.3,2-0.3,2.7-1
	c-0.3,0.4-0.7,0.7-1.2,1c-0.5,0.2-1,0.3-1.6,0.2c-1.1-0.2-1.9-1-2.6-1.8c-0.7-0.8-1.2-1.7-1.7-2.6c-0.5-0.9-0.9-1.9-1.3-2.8l0.2,0.2
	c-1.6-0.4-3.4,0-4.7,0.9c-0.7,0.5-1.3,1-1.9,1.6c-0.5,0.6-1.1,1.3-1.4,2.1l0,0.1l-0.1,0.1c-1.5,1.4-3.5,2.3-5.7,2.4
	c-1.1,0-2.1-0.1-3.1-0.4c-1-0.3-1.9-0.8-2.8-1.4l0.2,0.1c-0.7-0.2-1.4-0.4-2.1-0.4c-0.7-0.1-1.4,0-2,0.2c-0.6,0.2-1.1,0.7-1.3,1.3
	c-0.2,0.6-0.3,1.3-0.2,2L95.2,294.4"/>
<path fill="#FFFFFF" d="M124.6,267.3c0,0-0.4,19.4,4.9,25.6c0,0-1.2-5.7,6.2-3.6c0,0,5.4,4.3,10.9-0.5c0,0,3-6,8.5-4.7
	c0,0,3.7,10.7,8.1,6.1"/>
<path d="M130.2,294.4l-1.1-1.3c-1.5-1.8-2.2-4-2.8-6.1c-0.6-2.2-0.9-4.3-1.2-6.5c-0.3-2.2-0.4-4.4-0.5-6.6c-0.1-2.2-0.1-4.4,0-6.6
	c0.1,4.4,0.5,8.8,1.1,13.1c0.3,2.2,0.8,4.3,1.4,6.4c0.6,2.1,1.4,4.1,2.7,5.7l-0.8,0.4c-0.1-0.8-0.1-1.7,0.2-2.5
	c0.3-0.8,1-1.5,1.8-1.8c0.8-0.3,1.6-0.3,2.4-0.3c0.8,0.1,1.6,0.2,2.3,0.4l0.1,0l0.1,0.1c0.7,0.5,1.6,1,2.5,1.3
	c0.9,0.3,1.8,0.4,2.8,0.4c1.9,0,3.7-0.9,5.1-2.1l-0.1,0.1c0.4-0.8,1-1.5,1.6-2.2c0.6-0.7,1.3-1.3,2.1-1.8c0.8-0.5,1.7-0.8,2.6-1
	c0.9-0.1,1.9-0.1,2.7,0.1l0.2,0l0.1,0.2c0.3,1,0.7,1.9,1.2,2.8c0.5,0.9,0.9,1.8,1.6,2.6c0.6,0.8,1.4,1.5,2.3,1.8c1,0.3,2-0.3,2.7-1
	c-0.3,0.4-0.7,0.7-1.2,1c-0.5,0.2-1,0.3-1.6,0.2c-1.1-0.2-1.9-1-2.6-1.8c-0.7-0.8-1.2-1.7-1.7-2.6c-0.5-0.9-0.9-1.9-1.3-2.8l0.2,0.2
	c-1.6-0.4-3.4,0-4.7,0.9c-0.7,0.5-1.3,1-1.9,1.6c-0.5,0.6-1.1,1.3-1.4,2.1l0,0.1l-0.1,0.1c-1.5,1.4-3.5,2.3-5.7,2.4
	c-1.1,0-2.1-0.1-3.1-0.4c-1-0.3-1.9-0.8-2.8-1.4l0.2,0.1c-0.7-0.2-1.4-0.4-2.1-0.4c-0.7-0.1-1.4,0-2,0.2c-0.6,0.2-1.1,0.7-1.3,1.3
	c-0.2,0.6-0.3,1.3-0.2,2L130.2,294.4"/>
<g>
	<path fill="#FFFFFF" d="M48.8,260.3c0,0-4.5,18.9-0.6,26c0,0,0-5.8,6.8-2.2c0,0,4.4,5.4,10.8,1.8c0,0,4.2-5.2,9.3-2.8
		c0,0,1.4,11.3,6.6,7.7"/>
	<path d="M48.8,260.3c-0.8,4.3-1.4,8.7-1.7,13.1c-0.1,2.2-0.2,4.4,0,6.5c0.2,2.1,0.5,4.3,1.5,6.2l-0.8,0.2c0-0.9,0.2-1.6,0.7-2.4
		c0.5-0.7,1.3-1.3,2.2-1.4c0.9-0.1,1.7,0,2.4,0.2c0.8,0.2,1.5,0.6,2.2,0.9l0.1,0l0.1,0.1c0.6,0.7,1.4,1.3,2.2,1.8
		c0.8,0.5,1.7,0.8,2.6,1c1.8,0.4,3.8-0.1,5.4-1l-0.1,0.1c0.6-0.7,1.3-1.3,2-1.8c0.7-0.5,1.5-1,2.4-1.3c0.9-0.3,1.8-0.5,2.7-0.4
		c0.9,0,1.8,0.3,2.7,0.7l0.2,0.1l0,0.2c0.1,1,0.3,2,0.5,3c0.2,1,0.5,2,1,2.9c0.4,0.9,1,1.8,1.9,2.2c0.9,0.5,2,0.1,2.9-0.4
		c-0.4,0.3-0.9,0.6-1.4,0.7c-0.5,0.1-1.1,0.1-1.6-0.1c-1-0.4-1.7-1.4-2.2-2.3c-0.5-0.9-0.9-1.9-1.1-2.9c-0.3-1-0.5-2-0.7-3.1
		l0.2,0.3c-1.5-0.7-3.3-0.7-4.8-0.1c-0.8,0.3-1.5,0.7-2.2,1.2c-0.7,0.5-1.3,1.1-1.8,1.7l-0.1,0.1l-0.1,0c-1.8,1-3.9,1.5-6,1.2
		c-1-0.2-2-0.6-2.9-1.1c-0.9-0.5-1.7-1.1-2.4-2l0.1,0.1c-0.6-0.3-1.3-0.7-2-0.9c-0.7-0.2-1.4-0.3-2-0.2c-0.6,0.1-1.2,0.4-1.5,1
		c-0.4,0.5-0.5,1.2-0.6,1.9l-0.1,1.7l-0.8-1.5c-1.1-2.1-1.4-4.4-1.5-6.6c-0.1-2.2,0-4.4,0.2-6.6c0.2-2.2,0.5-4.4,0.9-6.6
		C47.8,264.6,48.2,262.5,48.8,260.3z"/>
</g>
<g>
	<path fill="#FFFFFF" d="M153.9,266.8c0,0,4.1,19,10.6,23.7c0,0-2.5-5.2,5.2-4.9c0,0,6.3,2.9,10.5-3c0,0,1.5-6.5,7.2-6.5
		c0,0,7.9,12.4,11.1,6.9"/>
	<path d="M153.9,266.8c1.1,4.3,2.5,8.4,4.1,12.5c0.8,2,1.7,4,2.8,5.9c1.1,1.9,2.3,3.7,4,5l-0.7,0.6c-0.3-0.8-0.5-1.6-0.4-2.5
		c0.1-0.9,0.6-1.7,1.3-2.2c0.7-0.5,1.5-0.7,2.3-0.8c0.8-0.1,1.6-0.1,2.3-0.1l0.1,0l0.1,0c0.8,0.3,1.8,0.6,2.7,0.7
		c0.9,0.1,1.9,0,2.8-0.2c1.8-0.5,3.4-1.7,4.5-3.2l-0.1,0.2c0.2-0.9,0.6-1.7,1-2.5c0.4-0.8,1-1.6,1.6-2.2c0.7-0.6,1.4-1,2.3-1.4
		c0.9-0.4,1.8-0.3,2.7-0.3h0.2l0.1,0c1.4,2.1,2.9,4.1,4.6,5.9c0.9,0.9,1.8,1.7,3,2.2c0.6,0.2,1.2,0.3,1.8,0.1c0.6-0.2,1-0.7,1.4-1.2
		c-0.3,0.6-0.7,1.1-1.3,1.3c-0.6,0.3-1.3,0.2-1.9,0c-1.2-0.4-2.3-1.3-3.2-2.1c-0.9-0.9-1.8-1.8-2.6-2.8c-0.8-1-1.6-2-2.3-3.1
		l0.3,0.2c-0.8,0-1.7,0.2-2.4,0.5c-0.8,0.3-1.4,0.8-2,1.4c-0.6,0.6-1.1,1.3-1.5,2c-0.4,0.7-0.7,1.5-0.9,2.3l0,0.1l0,0.1
		c-1.2,1.7-2.9,3.1-4.9,3.6c-1,0.3-2.1,0.4-3.1,0.3c-1-0.1-2-0.3-3.1-0.7l0.2,0c-0.7,0-1.5,0-2.2,0.1c-0.7,0.1-1.4,0.3-1.9,0.6
		c-0.5,0.4-0.9,0.9-1,1.5c-0.1,0.6,0,1.4,0.3,2l0.7,1.6l-1.3-1c-1.9-1.4-3.1-3.3-4.2-5.3c-1.1-2-1.9-4-2.7-6.1
		c-0.8-2.1-1.4-4.2-2-6.3C154.8,271.1,154.3,269,153.9,266.8z"/>
</g>
<path fill="#FFFFFF" d="M87.8,294.9c0,0,3.8-3.7,6.6,0.2"/>
<path fill="#FFFFFF" d="M81.3,289.9c0,0,1.7,6.5,6.6,5.1"/>
<path d="M85.5,295.4c-0.8-0.2-1.6-0.7-2.1-1.3c-0.6-0.6-1-1.3-1.3-2c-0.3-0.7-0.6-1.5-0.7-2.2c0.3,0.7,0.7,1.4,1.1,2
	c0.4,0.6,0.9,1.2,1.4,1.7c0.5,0.5,1.2,0.8,1.9,1"/>
<path d="M94.4,295.1c-0.4-0.5-0.9-0.9-1.5-1.2c-0.5-0.3-1.1-0.4-1.7-0.3c-0.6,0.1-1.1,0.3-1.7,0.5"/>
<path d="M87.6,294.6c0.5-0.5,1.1-0.8,1.7-1.1c0.6-0.3,1.3-0.5,2-0.5c0.7,0,1.4,0.2,1.9,0.6c0.5,0.4,1,0.9,1.3,1.5"/>
<g>
	<path fill="#FFFFFF" d="M251.3,243.3c0,0,10,16.6,8.6,24.6c0,0-1.8-5.5-7.1,0c0,0-2.6,6.5-9.7,5.1c0,0-5.6-3.7-9.7,0.2
		c0,0-7.2,6.4-13.3,4.5"/>
	<path d="M251.3,243.3c1.2,1.9,2.3,3.8,3.3,5.7c1,1.9,2,3.9,2.9,6c0.9,2,1.6,4.1,2.2,6.3c0.6,2.1,1,4.4,0.6,6.7l-0.3,1.7l-0.6-1.6
		c-0.2-0.6-0.6-1.2-1.1-1.6c-0.5-0.4-1.1-0.6-1.8-0.5c-0.6,0.1-1.3,0.4-1.8,0.8c-0.6,0.4-1.1,0.9-1.6,1.4l0.1-0.2
		c-0.4,1-1,1.8-1.7,2.6c-0.7,0.8-1.5,1.4-2.5,1.9c-1.9,1-4.1,1.2-6.1,0.8l-0.1,0l-0.1,0c-1.7-1-3.7-1.7-5.7-1.5
		c-1,0.1-1.9,0.4-2.8,1c-0.4,0.3-0.8,0.6-1.2,1c-0.4,0.3-0.8,0.6-1.3,0.9c-1.7,1.2-3.6,2.2-5.6,2.8c-2,0.6-4.2,0.9-6.2,0.2
		c2,0.5,4.2,0.2,6.1-0.5c1.9-0.7,3.7-1.8,5.4-3c0.4-0.3,0.8-0.6,1.2-1c0.4-0.3,0.8-0.7,1.2-1c0.9-0.6,2-1,3.1-1.2
		c1.1-0.1,2.2,0,3.3,0.3c1.1,0.3,2,0.7,3,1.3l-0.2-0.1c1.9,0.4,3.8,0.2,5.5-0.7c0.8-0.4,1.6-1,2.2-1.7c0.6-0.7,1.2-1.5,1.5-2.3
		l0-0.1l0.1-0.1c0.5-0.6,1.1-1.1,1.8-1.5c0.7-0.4,1.4-0.9,2.2-1c0.9-0.2,1.8,0.1,2.5,0.7c0.7,0.6,1.1,1.3,1.4,2.1l-0.9,0.1
		c0.4-2.1,0-4.2-0.5-6.3c-0.5-2.1-1.2-4.2-2-6.2C255.3,251.2,253.4,247.2,251.3,243.3z"/>
</g>
<g>
	<path fill="#FFFFFF" d="M200.8,282.7c0,0,7.4,6.5,17.3-2.6"/>
	<path d="M200.8,282.7c1.4,0.8,2.9,1.3,4.4,1.6c1.5,0.2,3.1,0.2,4.6-0.1c3-0.6,5.8-2.2,8.4-4.1c-2.1,2.4-4.9,4.4-8.2,5.1
		c-1.6,0.3-3.3,0.3-4.9-0.1C203.5,284.6,202,283.8,200.8,282.7z"/>
</g>
<g>
	<path d="M192.4,279.1c-1.1-1.1-2-2.2-2.9-3.5c-0.9-1.2-1.6-2.5-2.3-3.9c-0.6-1.4-1.1-2.8-1.3-4.4c-0.1-0.8,0-1.5,0.1-2.3
		c0.2-0.7,0.5-1.5,1-2c-0.8,1.3-0.9,2.8-0.7,4.3c0.2,1.4,0.7,2.8,1.4,4.2c0.6,1.4,1.4,2.6,2.1,3.9
		C190.7,276.6,191.6,277.9,192.4,279.1z"/>
</g>
<linearGradient id="SVGID_2_" gradientUnits="userSpaceOnUse" x1="60.9957" y1="272.7278" x2="104.6217" y2="272.7278" gradientTransform="matrix(1 0 0 -1 0 306.2857)">
	<stop  offset="0" style="stop-color:#6600FF"/>
	<stop  offset="0.9695" style="stop-color:#FFFFFF"/>
</linearGradient>
<ellipse fill="url(#SVGID_2_)" stroke="#0000CC" stroke-miterlimit="10" cx="82.8" cy="33.6" rx="21.8" ry="21.5"/>
<linearGradient id="SVGID_3_" gradientUnits="userSpaceOnUse" x1="144.133" y1="-11.3192" x2="98.3905" y2="300.9489" gradientTransform="matrix(1 0 0 -1 0 306.2857)">
	<stop  offset="0" style="stop-color:#6600FF"/>
	<stop  offset="0.9695" style="stop-color:#FFFFFF"/>
	<stop  offset="0.9888" style="stop-color:#6633FF"/>
</linearGradient>
<path fill="url(#SVGID_3_)" d="M159,87.9l1.2-48.2c0,0,4.2-27.9-0.7-29.3c-8.1-2.4-14.5-2.1-20-0.8c1.7,1.7,2.7,3.8,2.7,6.1
	c0,6-6.8,10.8-15.3,10.8s-15.3-4.8-15.3-10.8c0-1.6,0.5-3.2,1.5-4.6c-8,0.7-18.2,1.6-18.6,10.7c-0.4,7.3,0.2,25.1,0.2,25.1l3.9,43.2
	c-65.4,56.7-82.8,158.3-82.8,158.3c120.4,48.3,235.6-6.5,235.6-6.5C223.4,131.6,159,87.9,159,87.9z"/>
<g>

		<linearGradient id="SVGID_4_" gradientUnits="userSpaceOnUse" x1="54.7997" y1="104.9699" x2="209.5007" y2="104.9699" gradientTransform="matrix(1 0 0 -1 0 306.2857)">
		<stop  offset="0" style="stop-color:#FFFFFF"/>
		<stop  offset="0.5122" style="stop-color:#FFE8FF"/>
		<stop  offset="1" style="stop-color:#FFFFFF"/>
	</linearGradient>
	<path fill="url(#SVGID_4_)" d="M54.8,260.7c0,0,55.5-58.4,73.3-130.9c0,0,28,81.6,81.4,125.3C209.5,255,138.3,291.2,54.8,260.7z"/>
	<path fill="#868686" d="M54.8,260.7c8.5-9.3,16.3-19.3,23.7-29.5c7.3-10.3,14.2-20.9,20.5-31.8c6.3-10.9,12-22.2,16.8-33.9
		c4.9-11.6,9-23.6,12-35.8l0.3-1.3l0.4,1.2c4.3,11.8,9.3,23.3,14.8,34.6c5.5,11.3,11.6,22.3,18.2,33c6.6,10.7,13.8,21,21.8,30.7
		c8,9.7,16.7,18.8,26.4,26.8l0.5,0.4l-0.6,0.3c-6,2.9-12.2,5.2-18.5,7.3c-6.3,2.1-12.7,3.8-19.1,5.3c-12.9,2.9-26.1,4.6-39.3,5.2
		c-13.2,0.5-26.5-0.2-39.6-2.3C80,268.6,67.2,265.3,54.8,260.7z M54.8,260.7c12.4,4.5,25.3,7.8,38.4,9.7c13.1,1.9,26.3,2.6,39.5,2.1
		c13.2-0.5,26.3-2.3,39.2-5.3c6.4-1.5,12.8-3.2,19.1-5.3c6.3-2.1,12.5-4.4,18.4-7.3l-0.1,0.7c-9.8-8-18.6-17.1-26.6-26.8
		c-8-9.7-15.3-20.1-22-30.8c-6.6-10.7-12.7-21.8-18.2-33.1c-5.5-11.3-10.5-22.9-14.8-34.8l0.8,0c-3,12.3-7.2,24.3-12.1,35.9
		c-4.9,11.6-10.7,22.9-17,33.9c-6.3,10.9-13.3,21.5-20.7,31.7C71.3,241.5,63.4,251.4,54.8,260.7z"/>
</g>
<path fill="#FFFFFF" stroke="#000000" stroke-width="0.5" stroke-miterlimit="10" d="M143.3,14.5c0,0,3.7-3.5-1.2-3.9
	c0,0,2.9-1.1,1.2-2.5c-0.1,0-0.1-0.1-0.2-0.1c-2.1-1.4-4.4,0.4-4.4,0.4s2.6,14.3-8.5,15.6c-16.1,1.9-16.1-9.4-16.3-13.3l-0.2-1.7
	c-6-0.4-3.5,2.8-3.5,2.8h0c-2.5,1.2-6.1,3.7,1.3,6.6c0,0-3.3,6.4,3.5,5.1c0,0,0.1,5.1,5.6,2.5c0,0,2.4,5.4,6,1.1c0,0,2.9,5.1,6.1,0
	c0,0,5,2.9,5.8-2.6c0,0,4.4,1,3.2-3.6C141.9,20.8,148.7,17.5,143.3,14.5z"/>
<g>
	<path fill="#FFFFFF" d="M188.9,150.7c-15.9-7-16.2-6.9-23.9,8.7c7-15.9,6.9-16.2-8.7-23.9c15.9,7,16.2,6.9,23.9-8.7
		C173.2,142.6,173.4,143,188.9,150.7z"/>
</g>
<g>
	<path fill="#868686" d="M108.8,181.4c0.3,1,0.9,2,1.7,2.6c0.8,0.7,1.9,0.8,2.9,0.6c1-0.2,1.9-0.8,2.8-1.4c0.9-0.6,1.6-1.3,2.4-2.1
		l0.4-0.4l0.2,0.5c0.4,0.9,0.9,1.8,1.6,2.5c0.7,0.7,1.6,1.1,2.4,1c0.9-0.1,1.7-0.7,2.5-1.3c0.7-0.7,1.4-1.5,2-2.3l0.4-0.6l0.4,0.6
		c0.6,0.8,1.3,1.7,2.1,2.3c0.8,0.7,1.7,1.2,2.7,1.2c1,0.1,1.9-0.3,2.7-1c0.8-0.7,1.4-1.6,1.9-2.5l0.4-0.6l0.4,0.6
		c0.5,0.7,1.1,1.4,1.8,1.9c0.7,0.6,1.5,1,2.3,1c0.8,0.1,1.7-0.2,2.4-0.8c0.7-0.6,1.3-1.3,1.7-2.1l0.3-0.4l0.2,0.5
		c0.2,0.6,0.5,1.2,0.9,1.7c0.3,0.5,0.8,1,1.3,1.4c0.5,0.3,1.2,0.4,1.7,0.1c0.6-0.3,1-0.8,1.4-1.3c-0.3,0.5-0.7,1.1-1.3,1.4
		c-0.6,0.4-1.4,0.4-2,0c-0.6-0.3-1.1-0.8-1.5-1.4c-0.4-0.5-0.7-1.1-1-1.7l0.5,0c-0.5,0.8-1,1.6-1.8,2.3c-0.7,0.7-1.8,1.1-2.8,1.1
		c-1.1-0.1-2-0.5-2.8-1.1c-0.8-0.6-1.5-1.3-2.1-2.1l0.8,0c-0.6,1-1.2,1.9-2.1,2.7c-0.9,0.8-2.1,1.4-3.3,1.3
		c-1.3-0.1-2.4-0.7-3.3-1.4c-0.9-0.8-1.6-1.6-2.3-2.6l0.8,0c-0.6,0.9-1.3,1.7-2.1,2.4c-0.8,0.7-1.8,1.4-3,1.5
		c-1.2,0.1-2.4-0.5-3.1-1.3c-0.8-0.8-1.3-1.8-1.7-2.8l0.6,0.1c-0.8,0.7-1.6,1.4-2.6,2c-0.9,0.6-1.9,1.1-3,1.3
		c-1.1,0.2-2.3,0-3.1-0.8C109.6,183.5,109.1,182.4,108.8,181.4z"/>
</g>
<g>
	<path fill="#868686" d="M97.8,201.4c0.3,1,0.9,2,1.7,2.6c0.8,0.7,1.9,0.9,2.9,0.6c1-0.2,2-0.8,2.8-1.4c0.9-0.6,1.6-1.3,2.4-2.1
		l0.3-0.3l0.2,0.4c0.4,0.9,0.9,1.8,1.6,2.5c0.7,0.7,1.6,1.1,2.5,1c0.9-0.1,1.8-0.7,2.5-1.4c0.7-0.7,1.4-1.5,2-2.3l0.3-0.5l0.3,0.5
		c0.6,0.9,1.3,1.7,2.1,2.3c0.8,0.7,1.8,1.2,2.7,1.2c1,0.1,1.9-0.4,2.7-1.1c0.8-0.7,1.4-1.6,1.9-2.5l0.4-0.8l0.4,0.8
		c0.5,1,1.1,1.9,1.8,2.7c0.7,0.8,1.5,1.5,2.4,1.6c0.9,0.1,1.7-0.6,2.3-1.4c0.6-0.9,1.1-1.9,1.5-2.9l0.4-0.9l0.5,0.9
		c0.4,0.8,1,1.6,1.6,2.3c0.6,0.7,1.3,1.3,2.1,1.4c0.8,0.1,1.5-0.4,2-1.1c0.5-0.7,0.9-1.6,1.2-2.5l0.4-1.1l0.4,1.1
		c0.3,0.9,0.8,1.8,1.4,2.5c0.6,0.7,1.5,1.1,2.3,0.8c0.8-0.3,1.5-1,2.1-1.8c0.6-0.8,1.1-1.6,1.6-2.5l0.2-0.4l0.3,0.4
		c0.6,0.9,1.3,1.8,2.2,2.5c0.9,0.7,1.9,1.2,3.1,1.2c1.1,0,2.2-0.5,3.1-1.1c0.9-0.7,1.7-1.6,2.4-2.5c-0.7,1-1.4,1.9-2.3,2.6
		c-0.9,0.7-2,1.3-3.2,1.3c-1.2,0-2.4-0.5-3.4-1.2c-1-0.7-1.8-1.6-2.4-2.6l0.5,0c-0.5,0.9-1,1.8-1.6,2.7c-0.6,0.8-1.3,1.7-2.4,2.1
		c-0.5,0.2-1.2,0.2-1.7,0c-0.6-0.2-1-0.8-1.4-1.2c-0.7-0.8-1.2-1.9-1.6-2.9h0.8c-0.3,1-0.7,2.1-1.3,2.9c-0.3,0.4-0.7,0.9-1.1,1.2
		c-0.5,0.3-1.1,0.5-1.7,0.4c-1.2-0.2-2-0.9-2.6-1.7c-0.7-0.8-1.2-1.6-1.7-2.4l0.9,0c-0.4,1.1-0.9,2.1-1.6,3.1
		c-0.4,0.5-0.8,1-1.3,1.3c-0.5,0.4-1.2,0.6-1.9,0.5c-0.7-0.1-1.3-0.4-1.8-0.7c-0.5-0.4-0.9-0.8-1.3-1.3c-0.8-0.9-1.4-1.9-1.9-3
		l0.8,0c-0.6,1-1.2,1.9-2.1,2.7c-0.9,0.8-2.1,1.4-3.3,1.3c-1.2-0.1-2.3-0.7-3.2-1.4c-0.9-0.7-1.6-1.6-2.3-2.6l0.7,0
		c-0.6,0.9-1.3,1.7-2.1,2.4c-0.8,0.7-1.8,1.3-3,1.5c-1.2,0.1-2.3-0.5-3-1.3c-0.8-0.8-1.3-1.7-1.7-2.7l0.4,0.1
		c-0.8,0.7-1.6,1.4-2.5,2c-0.9,0.6-1.9,1.1-3,1.3c-1.1,0.2-2.3,0-3.1-0.8C98.6,203.5,98.1,202.4,97.8,201.4z"/>
</g>
<g>
	<path fill="#868686" d="M87.8,218.8c0-0.1,0-0.2-0.1-0.4C87.8,218.5,87.8,218.6,87.8,218.8c0.1,0.2,0.2,0.4,0.3,0.7
		c0.2,0.4,0.5,0.9,0.9,1.1c0.8,0.6,1.9,0.5,2.8,0.2c0.9-0.3,1.8-0.9,2.6-1.5c0.8-0.6,1.5-1.3,2.3-2l0.2-0.2l0.1,0.3
		c0.5,1.1,1.1,2.1,1.8,3.1c0.7,0.9,1.6,1.8,2.6,2.2c1,0.5,2.2,0.3,3.2-0.4c1-0.6,1.7-1.5,2.4-2.5l0.4-0.5l0.2,0.6
		c0.4,1,0.9,2,1.5,2.8c0.6,0.9,1.3,1.7,2.2,2.2c0.9,0.5,1.8,0.3,2.6-0.3c0.8-0.6,1.4-1.5,1.9-2.4l0.4-0.6l0.4,0.6
		c0.4,0.6,1,1.3,1.6,1.7c0.6,0.4,1.4,0.6,2.1,0.5c0.7-0.1,1.4-0.6,1.9-1.2c0.6-0.6,1-1.3,1.4-2l0.4-0.7l0.4,0.8
		c0.7,1.3,1.5,2.6,2.6,3.5c0.5,0.4,1.1,0.7,1.7,0.6c0.5-0.1,1-0.6,1.4-1.2l-0.1,0.2l0.5-3l0.2-1.3l0.7,1.1c0.6,0.8,1.2,1.6,2,2.3
		c0.8,0.6,1.7,1.1,2.6,1.2c0.9,0.1,1.8-0.3,2.5-1c0.7-0.7,1.3-1.5,1.8-2.4l0.3-0.6l0.5,0.5c0.8,0.8,1.8,1.6,2.8,2.1
		c1,0.6,2.1,1,3.1,0.8c1-0.1,1.8-1,2.2-2.1c0.4-1,0.7-2.2,0.8-3.4l0.1-0.7l0.6,0.5c0.8,0.7,1.8,1.3,2.8,1.8c1,0.5,2,0.9,3.1,0.8
		c1,0,2-0.6,2.5-1.5c0.5-0.9,0.8-2,0.9-3.1l0.1-0.8l0.4,0.6c0.5,0.7,1.1,1.4,1.9,2c0.7,0.6,1.5,1,2.4,1.1c0.9,0.1,1.8-0.3,2.5-0.8
		c0.7-0.6,1.3-1.3,1.8-2.1l0.1-0.2l0.1,0.2c0.2,0.6,0.5,1.2,0.9,1.7c0.4,0.5,0.8,1,1.3,1.4c0.5,0.4,1.2,0.4,1.8,0.1
		c0.6-0.3,1-0.8,1.4-1.3c-0.4,0.5-0.8,1.1-1.3,1.4c-0.6,0.4-1.3,0.3-1.9,0c-0.6-0.3-1-0.8-1.4-1.4c-0.4-0.5-0.7-1.1-1-1.7l0.2,0
		c-0.5,0.8-1,1.6-1.8,2.3c-0.7,0.6-1.7,1.1-2.7,1c-1-0.1-1.9-0.5-2.7-1.1c-0.8-0.6-1.4-1.3-2-2.1l0.5-0.1c-0.1,1.1-0.3,2.3-0.9,3.4
		c-0.3,0.5-0.7,1-1.2,1.4c-0.5,0.3-1.2,0.5-1.8,0.5c-1.2,0-2.4-0.4-3.4-0.9c-1.1-0.5-2-1.1-2.9-1.8l0.7-0.3
		c-0.1,1.2-0.3,2.5-0.8,3.6c-0.3,0.6-0.6,1.2-1.1,1.6c-0.5,0.5-1.1,0.8-1.8,1c-1.4,0.2-2.7-0.3-3.7-0.9c-1.1-0.6-2.1-1.4-3-2.3
		l0.8-0.1c-0.5,1-1.1,1.9-2,2.7c-0.8,0.8-2,1.4-3.3,1.3c-1.2-0.1-2.3-0.7-3.1-1.4c-0.9-0.7-1.6-1.5-2.2-2.5l0.9-0.2l-0.5,3l0,0.1
		l-0.1,0.1c-0.5,0.7-1.1,1.4-2.1,1.6c-1,0.2-1.9-0.3-2.5-0.8c-0.6-0.5-1.1-1.2-1.6-1.8c-0.5-0.7-0.8-1.3-1.2-2l0.8,0
		c-0.5,0.8-1,1.5-1.6,2.1c-0.6,0.6-1.4,1.2-2.4,1.4c-1,0.2-2-0.1-2.8-0.6c-0.8-0.5-1.4-1.2-1.9-2l0.8,0c-0.6,1-1.2,1.9-2.2,2.7
		c-0.5,0.4-1.1,0.7-1.7,0.7c-0.7,0.1-1.3-0.1-1.8-0.4c-1.1-0.6-1.8-1.6-2.4-2.5c-0.6-1-1.1-2-1.5-3l0.6,0.1c-0.7,1-1.6,1.9-2.7,2.6
		c-0.5,0.3-1.2,0.6-1.8,0.7c-0.7,0.1-1.3-0.1-1.9-0.3c-1.2-0.5-2.1-1.5-2.8-2.5c-0.7-1-1.3-2.1-1.8-3.2l0.3,0.1
		c-0.7,0.7-1.5,1.4-2.3,2c-0.8,0.6-1.7,1.1-2.7,1.5c-1,0.3-2.1,0.4-3-0.3c-0.4-0.3-0.7-0.7-0.9-1.2C88,219.2,87.9,219,87.8,218.8
		c0-0.1-0.1-0.3-0.1-0.4C87.8,218.5,87.8,218.7,87.8,218.8z"/>
</g>
<g>
	<path fill="#868686" d="M80.7,228.3c-0.1,1.2,0,2.5,0.2,3.6c0.3,1.2,0.8,2.4,2,2.8c1.1,0.5,2.4,0.1,3.5-0.4
		c1.1-0.5,2.1-1.2,3.1-1.9l0.3-0.2l0,0.4c0.1,1.2,0.3,2.3,0.8,3.4c0.5,1,1.2,2,2.2,2.4c1,0.4,2.2,0.3,3.3-0.1
		c1.1-0.4,2.1-0.9,3.1-1.6l0.4-0.2l0.1,0.4c0.4,1.4,1,2.7,1.8,3.8c0.8,1.1,2.1,1.9,3.4,2c1.4,0.1,2.7-0.5,3.9-1.3
		c1.2-0.8,2.3-1.8,3.3-2.8l0.4-0.4l0.3,0.5c0.8,1.2,1.8,2.3,3,3.3c1.1,0.9,2.4,1.7,3.8,1.9c1.4,0.2,2.7-0.5,3.6-1.6
		c1-1.1,1.7-2.4,2.2-3.8l0.4-0.8l0.5,0.8c0.9,1.3,1.9,2.6,3.1,3.6c1.2,1.1,2.5,2,4,2.2c1.5,0.3,3-0.2,4.1-1.2c1.2-1,2.1-2.4,2.8-3.8
		l0.4-0.7l0.5,0.7c0.8,1.2,1.7,2.4,2.8,3.3c1.1,0.9,2.4,1.6,3.8,1.6c1.4,0,2.6-0.9,3.5-1.9c0.9-1.1,1.7-2.4,2.3-3.7l0.3-0.7l0.4,0.6
		c0.8,1.2,1.9,2.2,3,3c1.2,0.8,2.6,1.3,3.9,1.1c1.4-0.2,2.5-1.2,3.4-2.3c0.9-1.1,1.6-2.5,2.2-3.8l0.2-0.5l0.3,0.4
		c0.9,1.1,2,2.2,3.2,2.9c1.2,0.7,2.7,1,4,0.4c1.3-0.6,2.2-1.8,3-3c0.7-1.3,1.3-2.6,1.8-4.1l0.1-0.2l0.2,0.2c1.2,1.2,2.7,2.3,4.4,2.9
		c0.8,0.3,1.7,0.5,2.6,0.5c0.9,0,1.8-0.2,2.5-0.7c-0.8,0.5-1.6,0.7-2.5,0.8c-0.9,0-1.8-0.1-2.6-0.4c-1.7-0.6-3.2-1.6-4.5-2.8
		l0.3-0.1c-0.4,1.4-1,2.8-1.7,4.2c-0.7,1.3-1.7,2.6-3.1,3.3c-0.7,0.3-1.5,0.5-2.3,0.4c-0.8-0.1-1.5-0.4-2.2-0.7
		c-1.4-0.8-2.5-1.8-3.4-3l0.6-0.1c-0.6,1.4-1.3,2.8-2.2,4c-0.9,1.2-2.2,2.3-3.8,2.7c-1.6,0.3-3.3-0.3-4.5-1.1
		c-1.3-0.9-2.4-2-3.3-3.3l0.8-0.1c-0.6,1.4-1.4,2.7-2.4,3.9c-1,1.2-2.5,2.2-4.2,2.3c-1.7,0-3.2-0.8-4.4-1.8c-1.2-1-2.2-2.2-3.1-3.5
		l0.9,0c-0.8,1.5-1.7,2.9-3,4.1c-0.7,0.6-1.4,1.1-2.3,1.3c-0.9,0.3-1.8,0.3-2.7,0.1c-1.8-0.4-3.2-1.4-4.5-2.5
		c-1.3-1.2-2.3-2.4-3.3-3.9l0.9-0.1c-0.6,1.4-1.3,2.8-2.4,4c-0.5,0.6-1.2,1.1-2,1.5c-0.8,0.4-1.6,0.5-2.5,0.4
		c-1.7-0.2-3.1-1.1-4.3-2.1c-1.2-1-2.2-2.2-3.1-3.5l0.7,0.1c-1,1.1-2.1,2.1-3.4,2.9c-1.3,0.8-2.8,1.5-4.4,1.4
		c-1.6-0.1-3.1-1.1-3.9-2.3c-0.9-1.2-1.5-2.6-1.9-4.1l0.5,0.2c-1,0.6-2.1,1.2-3.3,1.6c-1.2,0.4-2.5,0.5-3.7,0
		c-1.2-0.5-2-1.6-2.5-2.7c-0.5-1.1-0.7-2.3-0.7-3.6l0.3,0.2c-1,0.7-2.1,1.4-3.2,1.8c-1.1,0.5-2.5,0.8-3.7,0.3c-1.2-0.5-1.8-1.8-2-3
		C80.5,230.8,80.5,229.5,80.7,228.3z"/>
</g>
<g>
	<path fill="#868686" d="M68.7,244.3c-0.1,1.2,0,2.5,0.2,3.6c0.3,1.2,0.8,2.4,2,2.9c1.1,0.5,2.4,0.1,3.5-0.4
		c1.1-0.5,2.1-1.2,3.1-1.9l0.2-0.2l0,0.3c0.1,1.2,0.3,2.3,0.8,3.4c0.5,1.1,1.2,2,2.3,2.4c1,0.4,2.2,0.3,3.3-0.1
		c1.1-0.4,2.1-0.9,3.1-1.6l0.3-0.2l0.1,0.4c0.4,1.4,1,2.7,1.8,3.8c0.9,1.1,2.1,2,3.4,2c1.4,0.1,2.7-0.5,3.9-1.3
		c1.2-0.8,2.3-1.8,3.3-2.8l0.3-0.4l0.3,0.4c0.8,1.2,1.9,2.3,3,3.3c1.1,0.9,2.4,1.7,3.8,1.9c1.4,0.2,2.7-0.5,3.7-1.6
		c1-1.1,1.7-2.4,2.2-3.8l0.3-0.8l0.5,0.7c0.9,1.3,1.9,2.6,3.1,3.6c1.2,1.1,2.5,2,4,2.3c1.5,0.3,3-0.2,4.1-1.2c1.2-1,2-2.4,2.8-3.8
		l0.4-0.8l0.5,0.7c0.8,1.2,1.8,2.3,2.8,3.3c1.1,0.9,2.4,1.6,3.7,1.6c1.3,0,2.6-0.8,3.5-1.9c0.9-1.1,1.7-2.4,2.3-3.7l0.3-0.7l0.5,0.7
		c0.8,1.1,1.9,2.2,3,3c1.2,0.8,2.6,1.3,3.9,1c1.3-0.2,2.5-1.2,3.3-2.3c0.9-1.1,1.6-2.4,2.2-3.8l0.3-0.7l0.5,0.6
		c0.9,1.1,2,2.1,3.2,2.8c1.2,0.7,2.7,1,3.9,0.4c1.2-0.6,2.2-1.7,2.9-3c0.7-1.3,1.3-2.6,1.7-4l0.2-0.5l0.4,0.4
		c1.2,1.2,2.7,2.2,4.3,2.8c0.8,0.3,1.6,0.5,2.5,0.5c0.8,0,1.7-0.2,2.4-0.7l0,0l0,0c0.6-0.2,1.2-0.5,1.8-0.9c0.6-0.4,1.1-0.9,1.5-1.4
		c0.8-1.1,1.3-2.4,1.5-3.8l0.1-0.6l0.3,0.5c0.9,1.3,2,2.5,3.3,3.4c1.3,0.9,2.9,1.5,4.4,1.1c1.5-0.4,2.7-1.7,3.5-3
		c0.9-1.3,1.5-2.8,2-4.3c-0.5,1.5-1.1,3-1.9,4.4c-0.8,1.4-2,2.7-3.6,3.2c-1.6,0.5-3.3-0.1-4.6-1c-1.3-0.9-2.5-2.1-3.5-3.4l0.4-0.1
		c-0.1,1.4-0.6,2.9-1.5,4c-0.4,0.6-1,1.1-1.6,1.5c-0.6,0.4-1.2,0.8-2,1l0.1,0c-0.8,0.5-1.7,0.8-2.7,0.8c-0.9,0-1.9-0.2-2.7-0.5
		c-0.9-0.3-1.7-0.7-2.4-1.2c-0.8-0.5-1.5-1-2.1-1.7l0.6-0.1c-0.5,1.4-1,2.9-1.7,4.2c-0.7,1.3-1.7,2.6-3.2,3.3
		c-0.7,0.4-1.6,0.5-2.4,0.4c-0.8-0.1-1.6-0.4-2.3-0.8c-1.4-0.8-2.5-1.8-3.5-3.1l0.8-0.1c-0.6,1.4-1.3,2.8-2.3,4
		c-0.9,1.2-2.2,2.4-3.9,2.7c-1.7,0.3-3.3-0.3-4.6-1.2c-1.3-0.9-2.4-2-3.3-3.3l0.8-0.1c-0.6,1.4-1.4,2.8-2.4,3.9
		c-1,1.2-2.5,2.2-4.2,2.3c-1.7,0-3.2-0.8-4.4-1.8c-1.2-1-2.2-2.2-3.1-3.5l0.9,0c-0.8,1.5-1.7,2.9-3,4.1c-0.7,0.6-1.4,1-2.3,1.3
		c-0.9,0.3-1.8,0.3-2.7,0.1c-1.8-0.4-3.2-1.4-4.5-2.5c-1.3-1.1-2.3-2.4-3.3-3.9l0.8-0.1c-0.6,1.4-1.3,2.8-2.4,4
		c-0.5,0.6-1.2,1.1-2,1.5c-0.8,0.4-1.6,0.5-2.5,0.4c-1.7-0.2-3.1-1.1-4.3-2.1c-1.2-1-2.2-2.2-3.1-3.5l0.6,0.1
		c-1,1.1-2.2,2.1-3.4,2.9c-1.3,0.8-2.7,1.5-4.3,1.4c-1.6-0.1-3-1.1-3.9-2.3c-0.9-1.2-1.5-2.6-1.9-4.1l0.4,0.2
		c-1,0.6-2.1,1.2-3.3,1.6c-1.2,0.4-2.5,0.5-3.7,0c-1.2-0.5-2-1.6-2.5-2.7c-0.5-1.1-0.7-2.3-0.7-3.6l0.3,0.1c-1,0.7-2.1,1.4-3.2,1.8
		c-1.1,0.5-2.5,0.8-3.6,0.3c-1.2-0.5-1.7-1.8-2-3C68.6,246.8,68.5,245.5,68.7,244.3z"/>
</g>
<g>
	<path fill="#FFFFFF" d="M66.1,235.8c-12-5.3-12.3-5.2-18.1,6.6c5.3-12,5.2-12.3-6.6-18.1c12,5.3,12.3,5.2,18.1-6.6
		C54.2,229.7,54.3,230,66.1,235.8z"/>
</g>
</svg>
