<?xml version="1.0" encoding="utf-8"?>
<!-- Generator: Adobe Illustrator 18.0.0, SVG Export Plug-In . SVG Version: 6.00 Build 0)  -->
<!DOCTYPE svg PUBLIC "-//W3C//DTD SVG 1.1//EN" "http://www.w3.org/Graphics/SVG/1.1/DTD/svg11.dtd">
<svg version="1.1" id="Layer_1" xmlns="http://www.w3.org/2000/svg" xmlns:xlink="http://www.w3.org/1999/xlink" x="0px" y="0px"
	 viewBox="0 0 269.8 300" enable-background="new 0 0 269.8 300" xml:space="preserve">
<g>
	<path fill="#FFFFFF" d="M19.7,245.7c0,0-9.7,16.3-8.6,24.6c0,0,2.6-6.5,7.1,0c0,0,5.7,7.9,12.5,3.8c0,0,4.9-1.7,11.3,4.4
		c0,0,5.7,3.3,8.9,1.6l1.2,3.7c0,0,0-3.9,9.7,0c1.1,0.5,6.6,3.2,10.7-2.7c0,0,5.2-3.2,6-0.6l0,0c0.9,2.6,2.6,12.1,6.6,6.9
		c0,0,2.3,8.2,9.3,3.6c0,0,3.8-0.7,3.7,1.4c0,0-0.6-8.5,6.4-5.6c0,0,8,3.8,11.9-1.9c0,0,4.9-5.6,7.6-3.3c0,0,3.6,9.6,8.1,7.1
		l1.3,1.6c0,0-2.4-7.2,11.1-2.3c0,0,4.9,1,7.6-3.6c0.1-0.2,0.3-0.5,0.4-0.8c2.5-5.5,8.5-0.6,6.5-2.1c0,0,4.6,10.3,8.1,6.1
		c0,0,1.1-5,6.6-4.5s9.5,0.5,12.6-7c0,0,1.5-3.3,5.1-2.2c0.2,0.1,0.4,0.1,0.5,0.2c4,1.6,6.1,10.6,10.7,6.3l2.3-0.3
		c0,0,9.2,4.7,14.2-0.2c5-4.8,5-4.8,5-4.8s9.2,1.2,14.9-5.6c0,0,5.7-1.7,10.5,1.1c0,0,6.5-1.1,10-7.3c0,0,4.3-3,4.5,2
		c0,0,2.6-0.7-8.6-26.1C255.3,239.2,141.2,295.7,19.7,245.7z"/>
	<g>
		<path fill="#FFFFFF" d="M19.7,244.7c0,0-10,16.6-8.6,24.6c0,0,1.8-5.5,7.1,0c0,0,2.6,6.5,9.7,5.1c0,0,5.6-3.7,9.7,0.2
			c0,0,7.2,6.4,13.3,4.5"/>
		<path d="M19.7,244.7c-2.1,3.9-4,7.8-5.6,11.9c-0.8,2-1.5,4.1-2,6.2c-0.5,2.1-0.9,4.3-0.5,6.3l-0.9-0.1c0.3-0.8,0.7-1.5,1.4-2.1
			c0.7-0.6,1.6-0.8,2.5-0.7c0.9,0.1,1.6,0.5,2.2,1c0.7,0.5,1.2,1,1.8,1.5l0.1,0.1l0,0.1c0.4,0.8,0.9,1.6,1.5,2.3
			c0.6,0.7,1.4,1.3,2.2,1.7c1.6,0.9,3.6,1.1,5.5,0.7l-0.2,0.1c1-0.6,1.9-1,3-1.3c1-0.3,2.2-0.4,3.3-0.3c1.1,0.1,2.2,0.5,3.1,1.2
			c0.5,0.3,0.8,0.7,1.2,1c0.4,0.3,0.8,0.6,1.2,1c1.7,1.2,3.5,2.3,5.4,3c1.9,0.7,4.1,1.1,6.1,0.5c-2,0.7-4.2,0.4-6.2-0.2
			c-2-0.6-3.9-1.6-5.6-2.8c-0.4-0.3-0.9-0.6-1.3-0.9c-0.4-0.3-0.8-0.7-1.2-1c-0.8-0.5-1.8-0.9-2.8-1c-2-0.2-4,0.5-5.7,1.5l-0.1,0
			l-0.1,0c-2,0.4-4.2,0.3-6.1-0.8c-0.9-0.5-1.8-1.2-2.5-1.9c-0.7-0.8-1.3-1.6-1.7-2.6l0.1,0.2c-0.5-0.5-1-1-1.6-1.4
			c-0.6-0.4-1.2-0.7-1.8-0.8c-0.6-0.1-1.3,0-1.8,0.5c-0.5,0.4-0.9,1-1.1,1.6l-0.6,1.6l-0.3-1.7c-0.4-2.3,0-4.6,0.6-6.7
			c0.6-2.2,1.4-4.2,2.2-6.3c0.9-2,1.8-4,2.9-6C17.4,248.5,18.5,246.6,19.7,244.7z"/>
	</g>
	<g>
		<path fill="#FFFFFF" d="M35.2,250.9c0,0-5.2,15-4.5,22.2"/>
		<path d="M35.2,250.9c-0.8,3.7-1.8,7.4-2.7,11c-0.4,1.8-0.8,3.7-1.2,5.5c-0.3,1.9-0.6,3.7-0.6,5.6c-0.4-1.9-0.3-3.8-0.1-5.7
			c0.2-1.9,0.6-3.8,1-5.6C32.5,258.1,33.6,254.4,35.2,250.9z"/>
	</g>
	<g>
		<path d="M202.5,254.1c0.5,1.7,1,3.4,1.4,5.2c0.4,1.7,0.8,3.5,1.2,5.2c0.4,1.8,0.7,3.5,1.1,5.3c0.3,1.8,0.6,3.5,0.9,5.3
			c-0.5-1.7-1-3.4-1.4-5.2c-0.4-1.7-0.8-3.5-1.2-5.2c-0.4-1.8-0.7-3.5-1.1-5.3C203.1,257.7,202.7,255.9,202.5,254.1z"/>
	</g>
	<g>
		<path d="M236.4,269.3c-1.2-1.6-2.2-3.2-3.1-5c-0.9-1.7-1.7-3.5-2.3-5.4c-0.6-1.9-1.1-3.8-1.2-5.8c0-1,0-2,0.2-3
			c0.2-1,0.5-1.9,1.1-2.7c-0.8,1.8-0.9,3.8-0.7,5.6c0.2,1.9,0.7,3.8,1.3,5.6c0.6,1.8,1.3,3.6,2.1,5.4
			C234.7,265.8,235.5,267.6,236.4,269.3z"/>
	</g>
	<g>
		<path d="M86.3,287.6c-1-1.9-1.1-4.1-1.1-6.1c0-2.1,0.2-4.2,0.6-6.3c0.4-2.1,0.8-4.1,1.4-6.1c0.6-2,1.2-4,2-5.9c-0.5,2-1,4-1.5,6.1
			c-0.5,2-0.9,4-1.2,6.1c-0.4,2-0.6,4.1-0.7,6.1c-0.1,1-0.1,2.1,0,3.1C85.8,285.6,85.9,286.7,86.3,287.6z"/>
	</g>
	<g>
		<path d="M251.6,263.2c-1.6-1-2.9-2.5-4-4c-1.1-1.6-1.9-3.3-2.5-5.1c-0.6-1.8-0.9-3.7-1-5.6c-0.1-1.9,0-3.8,0.3-5.7
			c0,1.9,0.1,3.8,0.3,5.6c0.2,1.8,0.6,3.7,1.2,5.4c0.5,1.8,1.3,3.5,2.2,5.1c0.5,0.8,1,1.6,1.6,2.3
			C250.3,261.9,250.9,262.5,251.6,263.2z"/>
	</g>
	<g>
		<path d="M222.1,273.1c-1.8-3.3-3.1-6.9-3.9-10.5c-0.4-1.8-0.7-3.7-0.8-5.6c-0.1-1.9,0.1-3.8,0.8-5.6c-0.3,1.9-0.2,3.7,0,5.5
			c0.2,1.8,0.6,3.6,1,5.4c0.4,1.8,0.9,3.6,1.4,5.4L222.1,273.1z"/>
	</g>
	<g>
		<path fill="#FFFFFF" d="M93.5,263.7c0,0-0.4,19.4,4.9,25.6c0,0-1.2-5.7,6.2-3.6c0,0,5.4,4.3,10.9-0.5c0,0,3-6,8.5-4.7
			c0,0,3.7,10.7,8.1,6.1"/>
		<path d="M93.5,263.7c0.1,4.4,0.5,8.8,1.1,13.1c0.3,2.2,0.8,4.3,1.4,6.4c0.6,2.1,1.4,4.1,2.7,5.7l-0.8,0.4
			c-0.1-0.8-0.1-1.7,0.2-2.5c0.3-0.8,1-1.5,1.8-1.8c0.8-0.3,1.6-0.3,2.4-0.3c0.8,0.1,1.6,0.2,2.3,0.4l0.1,0l0.1,0.1
			c0.7,0.5,1.6,1,2.5,1.3c0.9,0.3,1.8,0.5,2.8,0.4c1.9,0,3.7-0.9,5.1-2.1l-0.1,0.1c0.4-0.8,1-1.5,1.6-2.2c0.6-0.7,1.3-1.3,2.1-1.8
			c0.8-0.5,1.7-0.8,2.6-1c0.9-0.1,1.9-0.1,2.7,0.1l0.2,0l0.1,0.2c0.3,1,0.7,1.9,1.2,2.8c0.5,0.9,0.9,1.8,1.6,2.6
			c0.6,0.8,1.4,1.5,2.3,1.8c1,0.3,2-0.3,2.7-1c-0.3,0.4-0.7,0.7-1.2,1c-0.5,0.2-1,0.3-1.6,0.2c-1.1-0.2-1.9-1-2.6-1.8
			c-0.7-0.8-1.2-1.7-1.7-2.6c-0.5-0.9-0.9-1.9-1.3-2.8l0.2,0.2c-1.6-0.4-3.4,0-4.7,0.9c-0.7,0.5-1.3,1-1.9,1.6
			c-0.6,0.6-1.1,1.3-1.4,2.1l0,0.1l-0.1,0.1c-1.5,1.4-3.5,2.3-5.7,2.4c-1.1,0-2.1-0.1-3.1-0.4c-1-0.3-1.9-0.8-2.8-1.4l0.2,0.1
			c-0.7-0.2-1.4-0.4-2.1-0.4c-0.7-0.1-1.4,0-2,0.2c-0.6,0.2-1.1,0.7-1.3,1.3c-0.2,0.6-0.3,1.3-0.2,2l0.3,1.7l-1.1-1.3
			c-1.5-1.8-2.2-4-2.8-6.1c-0.6-2.2-0.9-4.3-1.2-6.5c-0.3-2.2-0.4-4.4-0.5-6.6C93.4,268.1,93.4,265.9,93.5,263.7z"/>
	</g>
	<g>
		<path fill="#FFFFFF" d="M128.5,263.7c0,0-0.4,19.4,4.9,25.6c0,0-1.2-5.7,6.2-3.6c0,0,5.4,4.3,10.9-0.5c0,0,3-6,8.5-4.7
			c0,0,3.7,10.7,8.1,6.1"/>
		<path d="M128.5,263.7c0.1,4.4,0.5,8.8,1.1,13.1c0.3,2.2,0.8,4.3,1.4,6.4c0.6,2.1,1.4,4.1,2.7,5.7l-0.8,0.4
			c-0.1-0.8-0.1-1.7,0.2-2.5c0.3-0.8,1-1.5,1.8-1.8c0.8-0.3,1.6-0.3,2.4-0.3c0.8,0.1,1.6,0.2,2.3,0.4l0.1,0l0.1,0.1
			c0.7,0.5,1.6,1,2.5,1.3c0.9,0.3,1.8,0.5,2.8,0.4c1.9,0,3.7-0.9,5.1-2.1l-0.1,0.1c0.4-0.8,1-1.5,1.6-2.2c0.6-0.7,1.3-1.3,2.1-1.8
			c0.8-0.5,1.7-0.8,2.6-1c0.9-0.1,1.9-0.1,2.7,0.1l0.2,0l0.1,0.2c0.3,1,0.7,1.9,1.2,2.8c0.5,0.9,0.9,1.8,1.6,2.6
			c0.6,0.8,1.4,1.5,2.3,1.8c1,0.3,2-0.3,2.7-1c-0.3,0.4-0.7,0.7-1.2,1c-0.5,0.2-1,0.3-1.6,0.2c-1.1-0.2-1.9-1-2.6-1.8
			c-0.7-0.8-1.2-1.7-1.7-2.6c-0.5-0.9-0.9-1.9-1.3-2.8l0.2,0.2c-1.6-0.4-3.4,0-4.7,0.9c-0.7,0.5-1.3,1-1.9,1.6
			c-0.6,0.6-1.1,1.3-1.4,2.1l0,0.1l-0.1,0.1c-1.5,1.4-3.5,2.3-5.7,2.4c-1.1,0-2.1-0.1-3.1-0.4c-1-0.3-1.9-0.8-2.8-1.4l0.2,0.1
			c-0.7-0.2-1.4-0.4-2.1-0.4c-0.7-0.1-1.4,0-2,0.2c-0.6,0.2-1.1,0.7-1.3,1.3c-0.2,0.6-0.3,1.3-0.2,2l0.3,1.7l-1.1-1.3
			c-1.5-1.8-2.2-4-2.8-6.1c-0.6-2.2-0.9-4.3-1.2-6.5c-0.3-2.2-0.4-4.4-0.5-6.6C128.4,268.1,128.4,265.9,128.5,263.7z"/>
	</g>
	<g>
		<path fill="#FFFFFF" d="M52.8,256.7c0,0-4.5,18.9-0.6,26c0,0,0-5.8,6.8-2.2c0,0,4.4,5.4,10.8,1.8c0,0,4.2-5.2,9.3-2.8
			c0,0,1.4,11.3,6.6,7.7"/>
		<path d="M52.8,256.7c-0.8,4.3-1.4,8.7-1.7,13.1c-0.1,2.2-0.2,4.4,0,6.5c0.2,2.1,0.5,4.3,1.5,6.2l-0.8,0.2c0-0.9,0.2-1.6,0.7-2.4
			c0.5-0.7,1.3-1.3,2.2-1.4c0.9-0.1,1.7,0,2.4,0.2c0.8,0.2,1.5,0.6,2.2,0.9l0.1,0l0.1,0.1c0.6,0.7,1.4,1.3,2.2,1.8
			c0.8,0.5,1.7,0.8,2.6,1c1.8,0.4,3.8-0.1,5.4-1l-0.1,0.1c0.6-0.7,1.3-1.3,2-1.8c0.7-0.5,1.5-1,2.4-1.3c0.9-0.3,1.8-0.5,2.7-0.4
			c0.9,0,1.8,0.3,2.7,0.7l0.2,0.1l0,0.2c0.1,1,0.3,2,0.5,3c0.2,1,0.5,2,1,2.9c0.4,0.9,1,1.8,1.9,2.2c0.9,0.5,2,0.1,2.9-0.4
			c-0.4,0.3-0.9,0.6-1.4,0.7c-0.5,0.1-1.1,0.1-1.6-0.1c-1-0.4-1.7-1.4-2.2-2.3c-0.5-0.9-0.9-1.9-1.1-2.9c-0.3-1-0.5-2-0.7-3.1
			l0.2,0.3c-1.5-0.7-3.3-0.7-4.8-0.1c-0.8,0.3-1.5,0.7-2.2,1.2c-0.7,0.5-1.3,1.1-1.8,1.7l-0.1,0.1l-0.1,0c-1.8,1-3.9,1.5-6,1.2
			c-1-0.2-2-0.6-2.9-1.1c-0.9-0.5-1.7-1.1-2.4-2l0.1,0.1c-0.6-0.3-1.3-0.7-2-0.9c-0.7-0.2-1.4-0.3-2-0.2c-0.6,0.1-1.2,0.4-1.5,1
			c-0.4,0.5-0.5,1.2-0.6,1.9l-0.1,1.7l-0.8-1.5c-1.1-2.1-1.4-4.4-1.5-6.6c-0.1-2.2,0-4.4,0.2-6.6c0.2-2.2,0.5-4.4,0.9-6.6
			C51.8,261,52.2,258.9,52.8,256.7z"/>
	</g>
	<g>
		<path fill="#FFFFFF" d="M157.9,263.2c0,0,4.1,19,10.6,23.7c0,0-2.4-5.2,5.2-4.9c0,0,6.3,2.9,10.5-3c0,0,1.5-6.5,7.2-6.5
			c0,0,7.9,12.4,11.1,6.9"/>
		<path d="M157.9,263.2c1.1,4.3,2.5,8.4,4.1,12.5c0.8,2,1.7,4,2.8,5.9c1.1,1.9,2.3,3.7,4,5l-0.7,0.6c-0.3-0.8-0.5-1.6-0.4-2.5
			c0.1-0.9,0.6-1.7,1.3-2.2c0.7-0.5,1.5-0.7,2.3-0.8c0.8-0.1,1.6-0.1,2.3-0.1l0.1,0l0.1,0c0.8,0.3,1.8,0.6,2.7,0.7
			c0.9,0.1,1.9,0,2.8-0.2c1.8-0.5,3.4-1.7,4.5-3.2l-0.1,0.2c0.2-0.9,0.6-1.7,1-2.5c0.4-0.8,1-1.6,1.6-2.2c0.7-0.6,1.4-1,2.3-1.4
			c0.9-0.4,1.8-0.3,2.7-0.3h0.2l0.1,0c1.4,2.1,2.9,4.1,4.6,5.9c0.9,0.9,1.8,1.7,3,2.2c0.6,0.2,1.2,0.3,1.8,0.1
			c0.6-0.2,1-0.7,1.4-1.2c-0.3,0.6-0.7,1.1-1.3,1.3c-0.6,0.3-1.3,0.2-1.9,0c-1.2-0.4-2.3-1.3-3.2-2.1c-0.9-0.9-1.8-1.8-2.6-2.8
			c-0.8-1-1.6-2-2.3-3.1l0.3,0.2c-0.8,0-1.7,0.2-2.4,0.5c-0.8,0.3-1.4,0.8-2,1.4c-0.6,0.6-1.1,1.3-1.5,2c-0.4,0.7-0.7,1.5-0.9,2.3
			l0,0.1l0,0.1c-1.2,1.7-2.9,3.1-4.9,3.6c-1,0.3-2.1,0.4-3.1,0.3c-1-0.1-2-0.3-3.1-0.7l0.2,0c-0.7,0-1.5,0-2.2,0.1
			c-0.7,0.1-1.4,0.3-1.9,0.6c-0.5,0.4-0.9,0.9-1,1.5c-0.1,0.6,0,1.4,0.3,2l0.7,1.6l-1.3-1c-1.9-1.4-3.1-3.3-4.2-5.3
			c-1.1-2-1.9-4-2.7-6.1c-0.8-2.1-1.4-4.2-2-6.3C158.8,267.5,158.3,265.4,157.9,263.2z"/>
	</g>
	<g>
		<path fill="#FFFFFF" d="M85.2,286.3c0,0,1.7,6.5,6.6,5.1c0,0,3.8-3.7,6.6,0.2"/>
		<path d="M85.2,286.3c0.3,0.7,0.7,1.4,1.1,2c0.4,0.6,0.9,1.2,1.4,1.7c0.5,0.5,1.2,0.8,1.9,1c0.7,0.2,1.4,0.1,2.1-0.1l-0.2,0.1
			c0.5-0.5,1.1-0.8,1.7-1.1c0.6-0.3,1.3-0.5,2-0.5c0.7,0,1.4,0.2,1.9,0.6c0.5,0.4,1,0.9,1.3,1.5c-0.4-0.5-0.9-0.9-1.5-1.2
			c-0.5-0.3-1.1-0.4-1.7-0.3c-0.6,0.1-1.1,0.3-1.7,0.5c-0.5,0.3-1,0.6-1.4,1l-0.1,0.1l-0.1,0c-0.8,0.2-1.7,0.3-2.5,0.1
			c-0.8-0.2-1.6-0.7-2.1-1.3c-0.6-0.6-1-1.3-1.3-2C85.6,287.8,85.4,287.1,85.2,286.3z"/>
	</g>
	<g>
		<path fill="#FFFFFF" d="M255.3,239.7c0,0,10,16.6,8.6,24.6c0,0-1.8-5.5-7.1,0c0,0-2.6,6.5-9.7,5.1c0,0-5.6-3.7-9.7,0.2
			c0,0-7.2,6.4-13.3,4.5"/>
		<path d="M255.3,239.7c1.2,1.9,2.3,3.8,3.3,5.7c1,1.9,2,3.9,2.9,6c0.9,2,1.6,4.1,2.2,6.3c0.6,2.1,1,4.4,0.6,6.7L264,266l-0.6-1.6
			c-0.2-0.6-0.6-1.2-1.1-1.6c-0.5-0.4-1.1-0.6-1.8-0.5c-0.6,0.1-1.3,0.4-1.8,0.8c-0.6,0.4-1.1,0.9-1.6,1.4l0.1-0.2
			c-0.4,1-1,1.8-1.7,2.6c-0.7,0.8-1.5,1.4-2.5,1.9c-1.9,1-4.1,1.2-6.1,0.8l-0.1,0l-0.1,0c-1.7-1-3.7-1.7-5.7-1.5
			c-1,0.1-1.9,0.4-2.8,1c-0.4,0.3-0.8,0.6-1.2,1c-0.4,0.3-0.8,0.6-1.3,0.9c-1.7,1.2-3.6,2.2-5.6,2.8c-2,0.6-4.2,0.9-6.2,0.2
			c2,0.5,4.2,0.2,6.1-0.5c1.9-0.7,3.7-1.8,5.4-3c0.4-0.3,0.8-0.6,1.2-1c0.4-0.3,0.8-0.7,1.2-1c0.9-0.6,2-1,3.1-1.2
			c1.1-0.1,2.2,0,3.3,0.3c1.1,0.3,2,0.7,3,1.3l-0.2-0.1c1.9,0.4,3.8,0.2,5.5-0.7c0.8-0.4,1.6-1,2.2-1.7c0.6-0.7,1.2-1.5,1.5-2.3
			l0-0.1l0.1-0.1c0.5-0.6,1.1-1.1,1.8-1.5c0.7-0.4,1.4-0.9,2.2-1c0.9-0.2,1.8,0.1,2.5,0.7c0.7,0.6,1.1,1.3,1.4,2.1l-0.9,0.1
			c0.4-2.1,0-4.2-0.5-6.3c-0.5-2.1-1.2-4.2-2-6.2C259.3,247.6,257.4,243.6,255.3,239.7z"/>
	</g>
	<g>
		<path fill="#FFFFFF" d="M204.8,279.1c0,0,7.4,6.5,17.3-2.6"/>
		<path d="M204.8,279.1c1.4,0.8,2.9,1.3,4.4,1.6c1.5,0.2,3.1,0.2,4.6-0.1c3-0.6,5.8-2.2,8.4-4.1c-2.1,2.4-4.9,4.4-8.2,5.1
			c-1.6,0.3-3.3,0.3-4.9-0.1C207.4,281,205.9,280.2,204.8,279.1z"/>
	</g>
	<g>
		<path fill="#FFFFFF" d="M192.9,147.1c-15.9-7-16.2-6.9-23.9,8.7c7-15.9,6.9-16.2-8.7-23.9c15.9,7,16.2,6.9,23.9-8.7
			C177.2,139,177.3,139.4,192.9,147.1z"/>
	</g>
	<g>
		<path fill="#FFFFFF" d="M70,232.3c-12-5.3-12.3-5.2-18.1,6.6c5.3-12,5.2-12.3-6.6-18.1c12,5.3,12.3,5.2,18.1-6.6
			C58.1,226.1,58.3,226.4,70,232.3z"/>
	</g>
	
		<linearGradient id="SVGID_1_" gradientUnits="userSpaceOnUse" x1="19.693" y1="167.9876" x2="255.254" y2="167.9876" gradientTransform="matrix(1 0 0 -1 0 303.1111)">
		<stop  offset="0" style="stop-color:#FFFFFF"/>
		<stop  offset="1" style="stop-color:#FF7BAC"/>
	</linearGradient>
	<path fill="url(#SVGID_1_)" stroke="#FFFF99" stroke-width="1.0249" stroke-miterlimit="10" d="M163,84.4l1.2-48.2L186.8,75
		l18.8-6.5C179.3,5.6,168.3,8.3,163.5,6.9c-6.1-1.8-13.6-1.3-18.5-0.7c1.8,1.1,2.8,2.5,2.8,4c0,4-7.8,7.3-17.5,7.3
		s-17.5-3.3-17.5-7.3c0-0.8,0.3-1.5,0.8-2.2c-7.9,1-18.4,3.3-24.1,8.7C75.2,30.3,69.3,64.8,69.3,64.8l14.1,9.6
		c5.8-0.1,15.2-31.2,15.2-31.2l3.9,43.2c-65.4,56.7-82.8,158.3-82.8,158.3c120.4,48.3,235.6-6.5,235.6-6.5
		C227.4,128,163,84.4,163,84.4z"/>
	<g>
		<path d="M189.5,259.1c0.4,0.9,0.7,1.7,1,2.6c0.3,0.9,0.6,1.8,0.9,2.7c0.3,0.9,0.5,1.8,0.7,2.7c0.2,0.9,0.5,1.8,0.6,2.7
			c-0.4-0.9-0.7-1.7-1-2.6c-0.3-0.9-0.6-1.8-0.9-2.7c-0.3-0.9-0.5-1.8-0.7-2.7C189.9,261,189.7,260.1,189.5,259.1z"/>
	</g>
</g>
<g>
	<g>
		
			<linearGradient id="SVGID_2_" gradientUnits="userSpaceOnUse" x1="61.768" y1="105.3821" x2="216.469" y2="105.3821" gradientTransform="matrix(1 0 0 -1 0 303.1111)">
			<stop  offset="0" style="stop-color:#FFFFFF"/>
			<stop  offset="0.5122" style="stop-color:#FFE8FF"/>
			<stop  offset="1" style="stop-color:#FFFFFF"/>
		</linearGradient>
		<path fill="url(#SVGID_2_)" d="M61.8,257.1c0,0,55.5-58.4,73.3-130.9c0,0,28,81.6,81.4,125.3C216.5,251.4,145.3,287.6,61.8,257.1z
			"/>
		<path fill="#868686" d="M61.8,257.1c8.5-9.3,16.3-19.3,23.7-29.5c7.3-10.3,14.2-20.9,20.5-31.8c6.3-10.9,12-22.2,16.8-33.9
			c4.9-11.6,9-23.6,12-35.8l0.3-1.3l0.4,1.2c4.3,11.8,9.3,23.3,14.8,34.6c5.5,11.3,11.6,22.3,18.2,33c6.6,10.7,13.8,21,21.8,30.7
			c8,9.7,16.7,18.8,26.4,26.8l0.5,0.4l-0.6,0.3c-6,2.9-12.2,5.2-18.5,7.3c-6.3,2.1-12.7,3.8-19.2,5.3c-12.9,2.9-26.1,4.6-39.3,5.2
			c-13.2,0.5-26.5-0.2-39.6-2.3C87,265,74.2,261.7,61.8,257.1z M61.8,257.1c12.4,4.5,25.3,7.8,38.4,9.7c13.1,1.9,26.3,2.6,39.5,2.1
			c13.2-0.5,26.3-2.3,39.2-5.3c6.4-1.5,12.8-3.2,19.1-5.3c6.3-2.1,12.5-4.4,18.4-7.3l-0.1,0.7c-9.8-8-18.6-17.1-26.6-26.8
			c-8-9.7-15.3-20.1-22-30.8c-6.6-10.7-12.7-21.8-18.2-33.1c-5.5-11.3-10.5-22.9-14.8-34.8l0.8,0c-3,12.3-7.2,24.3-12.1,35.9
			c-4.9,11.6-10.7,22.9-17,33.9c-6.3,10.9-13.3,21.5-20.7,31.7C78.2,237.9,70.4,247.8,61.8,257.1z"/>
	</g>
	<g>
		<path fill="#868686" d="M115.8,177.8c0.3,1,0.9,2,1.7,2.6c0.8,0.7,1.9,0.8,2.9,0.6c1-0.2,1.9-0.8,2.8-1.4c0.9-0.6,1.6-1.3,2.4-2.1
			l0.4-0.4l0.2,0.5c0.4,0.9,0.9,1.8,1.6,2.5c0.7,0.7,1.6,1.1,2.4,1c0.9-0.1,1.7-0.7,2.5-1.3c0.7-0.7,1.4-1.5,2-2.3l0.4-0.6l0.4,0.6
			c0.6,0.8,1.3,1.7,2.1,2.3c0.8,0.7,1.7,1.2,2.7,1.2c1,0.1,1.9-0.3,2.7-1c0.8-0.7,1.4-1.6,1.9-2.5l0.4-0.6l0.4,0.6
			c0.5,0.7,1.1,1.4,1.8,1.9c0.7,0.6,1.5,1,2.3,1c0.8,0.1,1.7-0.2,2.4-0.8c0.7-0.6,1.3-1.3,1.7-2.1l0.3-0.4l0.2,0.5
			c0.2,0.6,0.5,1.2,0.9,1.7c0.3,0.5,0.8,1,1.3,1.4c0.5,0.3,1.2,0.4,1.7,0.1c0.6-0.3,1-0.8,1.4-1.3c-0.3,0.5-0.7,1.1-1.3,1.4
			c-0.6,0.4-1.4,0.4-2,0c-0.6-0.3-1.1-0.8-1.5-1.4c-0.4-0.5-0.7-1.1-1-1.7l0.5,0c-0.5,0.8-1,1.6-1.8,2.3c-0.7,0.7-1.8,1.1-2.8,1.1
			c-1.1-0.1-2-0.5-2.8-1.1c-0.8-0.6-1.5-1.3-2.1-2.1l0.8,0c-0.6,1-1.2,1.9-2.1,2.7c-0.9,0.8-2.1,1.4-3.3,1.3
			c-1.3-0.1-2.4-0.7-3.3-1.4c-0.9-0.8-1.6-1.6-2.3-2.6l0.8,0c-0.6,0.9-1.3,1.7-2.1,2.4c-0.8,0.7-1.8,1.4-3,1.5
			c-1.2,0.1-2.4-0.5-3.1-1.3c-0.8-0.8-1.3-1.8-1.7-2.8l0.6,0.1c-0.8,0.7-1.6,1.4-2.6,2c-0.9,0.6-1.9,1.1-3,1.3
			c-1.1,0.2-2.3,0-3.1-0.8C116.5,179.9,116,178.9,115.8,177.8z"/>
	</g>
	<g>
		<path fill="#868686" d="M104.8,197.8c0.3,1,0.9,2,1.7,2.6c0.8,0.7,1.9,0.9,2.9,0.6c1-0.2,1.9-0.8,2.8-1.4c0.9-0.6,1.6-1.3,2.4-2.1
			l0.3-0.3l0.2,0.4c0.4,0.9,0.9,1.8,1.6,2.5c0.7,0.7,1.6,1.1,2.5,1c0.9-0.1,1.8-0.7,2.5-1.4c0.7-0.7,1.4-1.5,2-2.3l0.3-0.5l0.3,0.5
			c0.6,0.9,1.3,1.7,2.1,2.3c0.8,0.7,1.8,1.2,2.7,1.2c1,0.1,1.9-0.4,2.7-1.1c0.8-0.7,1.4-1.6,1.9-2.5l0.4-0.8l0.4,0.8
			c0.5,1,1.1,1.9,1.8,2.7c0.7,0.8,1.5,1.5,2.4,1.6c0.9,0.1,1.7-0.6,2.3-1.4c0.6-0.9,1.1-1.9,1.5-2.9l0.4-0.9l0.5,0.9
			c0.4,0.8,1,1.6,1.6,2.3c0.6,0.7,1.3,1.3,2.1,1.4c0.8,0.1,1.5-0.4,2-1.1c0.5-0.7,0.9-1.6,1.2-2.5l0.4-1.1l0.4,1.1
			c0.3,0.9,0.8,1.8,1.4,2.5c0.6,0.7,1.5,1.1,2.3,0.8c0.8-0.3,1.5-1,2.1-1.8c0.6-0.8,1.1-1.6,1.6-2.5l0.2-0.4l0.3,0.4
			c0.6,0.9,1.3,1.8,2.2,2.5c0.9,0.7,1.9,1.2,3.1,1.2c1.1,0,2.2-0.5,3.1-1.1c0.9-0.7,1.7-1.6,2.4-2.5c-0.7,1-1.4,1.9-2.3,2.6
			c-0.9,0.7-2,1.3-3.2,1.3c-1.2,0-2.4-0.5-3.4-1.2c-1-0.7-1.8-1.6-2.4-2.6l0.5,0c-0.5,0.9-1,1.8-1.6,2.7c-0.6,0.8-1.3,1.7-2.4,2.1
			c-0.5,0.2-1.2,0.2-1.7,0c-0.6-0.2-1-0.8-1.4-1.2c-0.7-0.8-1.2-1.9-1.6-2.9h0.8c-0.3,1-0.7,2.1-1.3,2.9c-0.3,0.4-0.7,0.9-1.1,1.2
			c-0.5,0.3-1.1,0.5-1.7,0.4c-1.2-0.2-2-0.9-2.6-1.7c-0.7-0.8-1.2-1.6-1.7-2.4l0.9,0c-0.4,1.1-0.9,2.1-1.6,3.1
			c-0.4,0.5-0.8,1-1.3,1.3c-0.5,0.4-1.2,0.6-1.9,0.5c-0.7-0.1-1.3-0.4-1.8-0.7c-0.5-0.4-0.9-0.8-1.3-1.3c-0.8-0.9-1.4-1.9-1.9-3
			l0.8,0c-0.6,1-1.2,1.9-2.1,2.7c-0.9,0.8-2.1,1.4-3.3,1.3c-1.2-0.1-2.3-0.7-3.2-1.4c-0.9-0.7-1.6-1.6-2.3-2.6l0.7,0
			c-0.6,0.9-1.3,1.7-2.1,2.4c-0.8,0.7-1.8,1.3-3,1.5c-1.2,0.1-2.3-0.5-3-1.3c-0.8-0.8-1.3-1.7-1.7-2.7l0.4,0.1
			c-0.8,0.7-1.6,1.4-2.5,2c-0.9,0.6-1.9,1.1-3,1.3c-1.1,0.2-2.3,0-3.1-0.8C105.6,199.9,105.1,198.9,104.8,197.8z"/>
	</g>
	<g>
		<path fill="#868686" d="M94.8,215.2c0-0.1,0-0.2-0.1-0.4C94.8,214.9,94.8,215.1,94.8,215.2c0.1,0.2,0.2,0.4,0.3,0.7
			c0.2,0.4,0.5,0.9,0.9,1.1c0.8,0.6,1.9,0.5,2.8,0.2c0.9-0.3,1.8-0.9,2.6-1.5c0.8-0.6,1.5-1.3,2.3-2l0.2-0.2l0.1,0.3
			c0.5,1.1,1.1,2.1,1.8,3.1c0.7,0.9,1.6,1.8,2.6,2.2c1,0.5,2.2,0.3,3.2-0.4c1-0.6,1.7-1.5,2.4-2.5l0.4-0.5l0.2,0.6
			c0.4,1,0.9,2,1.5,2.8c0.6,0.9,1.3,1.7,2.2,2.2c0.9,0.5,1.8,0.3,2.6-0.3c0.8-0.6,1.4-1.5,1.9-2.4l0.4-0.6l0.4,0.6
			c0.4,0.6,1,1.3,1.6,1.7c0.6,0.4,1.4,0.6,2.1,0.5c0.7-0.1,1.4-0.6,1.9-1.2c0.6-0.6,1-1.3,1.4-2l0.4-0.7l0.4,0.8
			c0.7,1.3,1.5,2.6,2.6,3.5c0.5,0.4,1.1,0.7,1.7,0.6c0.5-0.1,1-0.6,1.4-1.2l-0.1,0.2l0.5-3l0.2-1.3l0.7,1.1c0.6,0.8,1.2,1.6,2,2.3
			c0.8,0.6,1.7,1.1,2.6,1.2c0.9,0.1,1.8-0.3,2.5-1c0.7-0.7,1.3-1.5,1.8-2.4l0.3-0.6l0.5,0.5c0.8,0.8,1.8,1.6,2.8,2.1
			c1,0.6,2.1,1,3.1,0.8c1-0.1,1.8-1,2.2-2.1c0.4-1,0.7-2.2,0.8-3.4l0.1-0.7l0.6,0.5c0.8,0.7,1.8,1.3,2.8,1.8c1,0.5,2,0.9,3.1,0.8
			c1,0,2-0.6,2.5-1.5c0.5-0.9,0.8-2,0.9-3.1l0.1-0.8l0.4,0.6c0.5,0.7,1.1,1.4,1.9,2c0.7,0.6,1.5,1,2.4,1.1c0.9,0.1,1.8-0.3,2.5-0.8
			c0.7-0.6,1.3-1.3,1.8-2.1l0.1-0.2l0.1,0.2c0.2,0.6,0.5,1.2,0.9,1.7c0.4,0.5,0.8,1,1.3,1.4c0.5,0.4,1.2,0.4,1.8,0.1
			c0.6-0.3,1-0.8,1.4-1.3c-0.4,0.5-0.8,1.1-1.3,1.4c-0.6,0.4-1.3,0.3-1.9,0c-0.6-0.3-1-0.8-1.4-1.4c-0.4-0.5-0.7-1.1-1-1.7l0.2,0
			c-0.5,0.8-1,1.6-1.8,2.3c-0.7,0.6-1.7,1.1-2.7,1c-1-0.1-1.9-0.5-2.7-1.1c-0.8-0.6-1.4-1.3-2-2.1l0.5-0.1c-0.1,1.1-0.3,2.3-0.9,3.4
			c-0.3,0.5-0.7,1-1.2,1.4c-0.5,0.3-1.2,0.5-1.8,0.5c-1.2,0-2.4-0.4-3.4-0.9c-1.1-0.5-2-1.1-2.9-1.8l0.7-0.3
			c-0.1,1.2-0.3,2.5-0.8,3.6c-0.3,0.6-0.6,1.2-1.1,1.6c-0.5,0.5-1.1,0.8-1.8,1c-1.4,0.2-2.7-0.3-3.7-0.9c-1.1-0.6-2.1-1.4-3-2.3
			l0.8-0.1c-0.5,1-1.1,1.9-1.9,2.7c-0.8,0.8-2,1.4-3.3,1.3c-1.2-0.1-2.3-0.7-3.1-1.4c-0.9-0.7-1.6-1.5-2.2-2.5l0.9-0.2l-0.5,3l0,0.1
			l-0.1,0.1c-0.5,0.7-1.1,1.4-2.1,1.6c-1,0.2-1.9-0.3-2.5-0.8c-0.6-0.5-1.1-1.2-1.6-1.8c-0.5-0.7-0.8-1.3-1.2-2l0.8,0
			c-0.5,0.8-1,1.5-1.6,2.1c-0.6,0.6-1.4,1.2-2.4,1.4c-1,0.2-2-0.1-2.8-0.6c-0.8-0.5-1.4-1.2-1.9-2l0.8,0c-0.6,1-1.2,1.9-2.2,2.7
			c-0.5,0.4-1.1,0.7-1.7,0.7c-0.7,0.1-1.3-0.1-1.8-0.4c-1.1-0.6-1.8-1.6-2.4-2.5c-0.6-1-1.1-2-1.5-3l0.6,0.1c-0.7,1-1.6,1.9-2.7,2.6
			c-0.5,0.3-1.2,0.6-1.8,0.7c-0.7,0.1-1.3-0.1-1.9-0.3c-1.2-0.5-2.1-1.5-2.8-2.5c-0.7-1-1.3-2.1-1.8-3.2l0.3,0.1
			c-0.7,0.7-1.5,1.4-2.3,2c-0.8,0.6-1.7,1.1-2.7,1.5c-1,0.3-2.1,0.4-3-0.3c-0.4-0.3-0.7-0.7-0.9-1.2
			C94.9,215.7,94.9,215.4,94.8,215.2c0-0.1-0.1-0.3-0.1-0.4C94.8,215,94.8,215.1,94.8,215.2z"/>
	</g>
	<g>
		<path fill="#868686" d="M87.6,224.7c-0.1,1.2,0,2.5,0.2,3.6c0.3,1.2,0.8,2.4,2,2.8c1.1,0.5,2.4,0.1,3.5-0.4
			c1.1-0.5,2.1-1.2,3.1-1.9l0.3-0.2l0,0.4c0.1,1.2,0.3,2.3,0.8,3.4c0.5,1,1.2,2,2.2,2.4c1,0.4,2.2,0.3,3.3-0.1
			c1.1-0.4,2.1-0.9,3.1-1.6l0.4-0.2l0.1,0.4c0.4,1.4,1,2.7,1.8,3.8c0.8,1.1,2.1,1.9,3.4,2c1.4,0.1,2.7-0.5,3.9-1.3
			c1.2-0.8,2.3-1.8,3.3-2.8l0.4-0.4l0.3,0.5c0.8,1.2,1.8,2.3,3,3.3c1.1,0.9,2.4,1.7,3.8,1.9c1.4,0.2,2.7-0.5,3.6-1.6
			c1-1.1,1.7-2.4,2.2-3.8l0.4-0.8l0.5,0.8c0.9,1.3,1.9,2.6,3.1,3.6c1.2,1.1,2.5,2,4,2.2c1.5,0.3,3-0.2,4.1-1.2
			c1.2-1,2.1-2.4,2.8-3.8l0.4-0.7l0.5,0.7c0.8,1.2,1.7,2.4,2.8,3.3c1.1,0.9,2.4,1.6,3.8,1.6c1.4,0,2.6-0.9,3.5-1.9
			c0.9-1.1,1.7-2.4,2.3-3.7l0.3-0.7l0.4,0.6c0.8,1.2,1.9,2.2,3,3c1.2,0.8,2.6,1.3,3.9,1.1c1.4-0.2,2.5-1.2,3.4-2.3
			c0.9-1.1,1.6-2.5,2.2-3.8l0.2-0.5l0.3,0.4c0.9,1.1,2,2.2,3.2,2.9c1.2,0.7,2.7,1,4,0.4c1.3-0.6,2.2-1.8,3-3
			c0.7-1.3,1.3-2.6,1.8-4.1l0.1-0.2l0.2,0.2c1.2,1.2,2.7,2.3,4.4,2.9c0.8,0.3,1.7,0.5,2.6,0.5c0.9,0,1.8-0.2,2.5-0.7
			c-0.8,0.5-1.6,0.7-2.5,0.8c-0.9,0-1.8-0.1-2.6-0.4c-1.7-0.6-3.2-1.6-4.5-2.8l0.3-0.1c-0.4,1.4-1,2.8-1.7,4.2
			c-0.7,1.3-1.7,2.6-3.1,3.3c-0.7,0.3-1.5,0.5-2.3,0.4c-0.8-0.1-1.5-0.4-2.2-0.7c-1.4-0.8-2.5-1.8-3.4-3l0.6-0.1
			c-0.6,1.4-1.3,2.8-2.2,4c-0.9,1.2-2.2,2.3-3.8,2.7c-1.6,0.3-3.3-0.3-4.5-1.1c-1.3-0.9-2.4-2-3.3-3.3l0.8-0.1
			c-0.6,1.4-1.4,2.7-2.4,3.9c-1,1.2-2.5,2.2-4.2,2.3c-1.7,0-3.2-0.8-4.4-1.8c-1.2-1-2.2-2.2-3.1-3.5l0.9,0c-0.8,1.5-1.7,2.9-3,4.1
			c-0.7,0.6-1.4,1.1-2.3,1.3c-0.9,0.3-1.8,0.3-2.7,0.1c-1.8-0.4-3.2-1.4-4.5-2.5c-1.3-1.2-2.3-2.4-3.3-3.9l0.9-0.1
			c-0.6,1.4-1.3,2.8-2.4,4c-0.5,0.6-1.2,1.1-2,1.5c-0.8,0.4-1.6,0.5-2.5,0.4c-1.7-0.2-3.1-1.1-4.3-2.1c-1.2-1-2.2-2.2-3.1-3.5
			l0.7,0.1c-1,1.1-2.2,2.1-3.4,2.9c-1.3,0.8-2.8,1.5-4.4,1.4c-1.6-0.1-3.1-1.1-3.9-2.3c-0.9-1.2-1.5-2.6-1.9-4.1l0.5,0.2
			c-1,0.6-2.1,1.2-3.3,1.6c-1.2,0.4-2.5,0.5-3.7,0c-1.2-0.5-2-1.6-2.5-2.7c-0.5-1.1-0.7-2.3-0.7-3.6l0.3,0.2c-1,0.7-2.1,1.4-3.2,1.8
			c-1.1,0.5-2.5,0.8-3.7,0.3c-1.2-0.5-1.8-1.8-2-3C87.5,227.2,87.5,225.9,87.6,224.7z"/>
	</g>
	<g>
		<path fill="#868686" d="M75.6,240.7c-0.1,1.2,0,2.5,0.2,3.6c0.3,1.2,0.8,2.4,2,2.9c1.1,0.5,2.4,0.1,3.5-0.4
			c1.1-0.5,2.1-1.2,3.1-1.9l0.2-0.2l0,0.3c0.1,1.2,0.3,2.3,0.8,3.4c0.5,1.1,1.2,2,2.3,2.4c1,0.4,2.2,0.3,3.3-0.1
			c1.1-0.4,2.1-0.9,3.1-1.6l0.3-0.2l0.1,0.4c0.4,1.4,1,2.7,1.8,3.8c0.9,1.1,2.1,2,3.4,2c1.4,0.1,2.7-0.5,3.9-1.3
			c1.2-0.8,2.3-1.8,3.3-2.8l0.3-0.4l0.3,0.4c0.8,1.2,1.9,2.3,3,3.3c1.1,0.9,2.4,1.7,3.8,1.9c1.4,0.2,2.7-0.5,3.7-1.6
			c1-1.1,1.7-2.4,2.2-3.8l0.3-0.8l0.5,0.7c0.9,1.3,1.9,2.6,3.1,3.6c1.2,1.1,2.5,2,4,2.3c1.5,0.3,3-0.2,4.1-1.2c1.2-1,2-2.4,2.8-3.8
			l0.4-0.8l0.5,0.7c0.8,1.2,1.8,2.3,2.8,3.3c1.1,0.9,2.4,1.6,3.7,1.6c1.3,0,2.6-0.8,3.5-1.9c0.9-1.1,1.7-2.4,2.3-3.7l0.3-0.7
			l0.5,0.7c0.8,1.1,1.9,2.2,3,3c1.2,0.8,2.6,1.3,3.9,1c1.3-0.2,2.5-1.2,3.3-2.3c0.9-1.1,1.6-2.4,2.2-3.8l0.3-0.7l0.5,0.6
			c0.9,1.1,2,2.1,3.2,2.8c1.2,0.7,2.7,1,3.9,0.4c1.2-0.6,2.2-1.7,2.9-3c0.7-1.3,1.3-2.6,1.7-4l0.2-0.5l0.4,0.4
			c1.2,1.2,2.7,2.2,4.3,2.8c0.8,0.3,1.6,0.5,2.5,0.5c0.8,0,1.7-0.2,2.4-0.7l0,0l0,0c0.6-0.2,1.2-0.5,1.8-0.9
			c0.6-0.4,1.1-0.9,1.5-1.4c0.8-1.1,1.3-2.4,1.5-3.8l0.1-0.6l0.3,0.5c0.9,1.3,2,2.5,3.3,3.4c1.3,0.9,2.9,1.5,4.4,1.1
			c1.5-0.4,2.7-1.7,3.5-3c0.9-1.3,1.5-2.8,2-4.3c-0.5,1.5-1.1,3-1.9,4.4c-0.8,1.4-2,2.7-3.6,3.2c-1.6,0.5-3.3-0.1-4.6-1
			c-1.3-0.9-2.5-2.1-3.5-3.4l0.4-0.1c-0.1,1.4-0.6,2.9-1.5,4c-0.4,0.6-1,1.1-1.6,1.5c-0.6,0.4-1.2,0.8-2,1l0.1,0
			c-0.8,0.5-1.7,0.8-2.7,0.8c-0.9,0-1.9-0.2-2.7-0.5c-0.9-0.3-1.7-0.7-2.4-1.2c-0.8-0.5-1.5-1-2.1-1.7l0.6-0.1
			c-0.5,1.4-1,2.9-1.7,4.2c-0.7,1.3-1.7,2.6-3.2,3.3c-0.7,0.4-1.6,0.5-2.4,0.4c-0.8-0.1-1.6-0.4-2.3-0.8c-1.4-0.8-2.5-1.8-3.5-3.1
			l0.8-0.1c-0.6,1.4-1.3,2.8-2.3,4c-0.9,1.2-2.2,2.4-3.9,2.7c-1.7,0.3-3.3-0.3-4.6-1.2c-1.3-0.9-2.4-2-3.3-3.3l0.8-0.1
			c-0.6,1.4-1.4,2.8-2.4,3.9c-1,1.2-2.5,2.2-4.2,2.3c-1.7,0-3.2-0.8-4.4-1.8c-1.2-1-2.2-2.2-3.1-3.5l0.9,0c-0.8,1.5-1.7,2.9-3,4.1
			c-0.7,0.6-1.4,1-2.3,1.3c-0.9,0.3-1.8,0.3-2.7,0.1c-1.8-0.4-3.2-1.4-4.5-2.5c-1.3-1.1-2.3-2.4-3.3-3.9l0.8-0.1
			c-0.6,1.4-1.3,2.8-2.4,4c-0.5,0.6-1.2,1.1-2,1.5c-0.8,0.4-1.6,0.5-2.5,0.4c-1.7-0.2-3.1-1.1-4.3-2.1c-1.2-1-2.2-2.2-3.1-3.5
			l0.6,0.1c-1,1.1-2.2,2.1-3.4,2.9c-1.3,0.8-2.7,1.5-4.3,1.4c-1.6-0.1-3-1.1-3.9-2.3c-0.9-1.2-1.5-2.6-1.9-4.1l0.4,0.2
			c-1,0.6-2.1,1.2-3.3,1.6c-1.2,0.4-2.5,0.5-3.7,0c-1.2-0.5-2-1.6-2.5-2.7c-0.5-1.1-0.7-2.3-0.7-3.6l0.3,0.1c-1,0.7-2.1,1.4-3.2,1.8
			c-1.1,0.5-2.4,0.8-3.6,0.3c-1.2-0.5-1.7-1.8-2-3C75.5,243.2,75.5,241.9,75.6,240.7z"/>
	</g>
</g>
</svg>
