<?xml version="1.0" encoding="utf-8"?>
<!-- Generator: Adobe Illustrator 18.0.0, SVG Export Plug-In . SVG Version: 6.00 Build 0)  -->
<!DOCTYPE svg PUBLIC "-//W3C//DTD SVG 1.1//EN" "http://www.w3.org/Graphics/SVG/1.1/DTD/svg11.dtd">
<svg version="1.1" id="Layer_1" xmlns="http://www.w3.org/2000/svg" xmlns:xlink="http://www.w3.org/1999/xlink" x="0px" y="0px"
	 viewBox="0 0 265.1 293.7" enable-background="new 0 0 265.1 293.7" xml:space="preserve">
<path fill="#FFFFFF" d="M14.3,243.5c0,0-9.7,16.3-8.6,24.6c0,0,2.6-6.5,7.1,0c0,0,5.7,7.9,12.5,3.8c0,0,4.9-1.7,11.3,4.4
	c0,0,5.7,3.3,8.9,1.6l1.2,3.7c0,0,0-3.9,9.7,0c1.1,0.5,6.6,3.2,10.7-2.7c0,0,5.2-3.2,6-0.6l0,0c0.9,2.6,2.6,12.1,6.6,6.9
	c0,0,2.3,8.2,9.3,3.6c0,0,3.8-0.7,3.7,1.4c0,0-0.6-8.5,6.4-5.6c0,0,8,3.8,11.9-1.9c0,0,4.9-5.6,7.6-3.3c0,0,3.6,9.6,8.1,7.1l1.3,1.6
	c0,0-2.4-7.2,11.1-2.3c0,0,4.9,1,7.6-3.6c0.1-0.2,0.3-0.5,0.4-0.8c2.5-5.5,8.5-0.6,6.5-2.1c0,0,4.6,10.3,8.1,6.1c0,0,1.1-5,6.6-4.5
	c5.5,0.5,9.5,0.5,12.6-7c0,0,1.5-3.3,5-2.2c0.2,0.1,0.4,0.1,0.5,0.2c4,1.6,6.1,10.6,10.7,6.3l2.3-0.3c0,0,9.2,4.7,14.2-0.2
	c5-4.8,5-4.8,5-4.8s9.2,1.2,14.9-5.6c0,0,5.7-1.7,10.5,1.1c0,0,6.5-1.1,10-7.3c0,0,4.3-3,4.5,2c0,0,2.6-0.7-8.6-26.1
	C249.8,236.9,135.8,293.4,14.3,243.5z"/>
<g>
	<path fill="#FFFFFF" d="M14.3,242.5c0,0-10,16.6-8.6,24.6c0,0,1.8-5.5,7.1,0c0,0,2.6,6.5,9.7,5.1c0,0,5.6-3.7,9.7,0.2
		c0,0,7.2,6.4,13.3,4.5"/>
	<path d="M14.3,242.5c-2.1,3.9-4,7.8-5.6,11.9c-0.8,2-1.5,4.1-2,6.2c-0.5,2.1-0.9,4.3-0.5,6.3l-0.9-0.1c0.3-0.8,0.7-1.5,1.4-2.1
		c0.7-0.6,1.6-0.8,2.5-0.7c0.9,0.1,1.6,0.5,2.2,1c0.7,0.5,1.2,1,1.8,1.5l0.1,0.1l0,0.1c0.4,0.8,0.9,1.6,1.5,2.3
		c0.6,0.7,1.4,1.3,2.2,1.7c1.6,0.9,3.6,1.1,5.5,0.7l-0.2,0.1c1-0.6,1.9-1,3-1.3c1-0.3,2.2-0.4,3.3-0.3c1.1,0.1,2.2,0.5,3.1,1.2
		c0.5,0.3,0.8,0.7,1.2,1c0.4,0.3,0.8,0.6,1.2,1c1.7,1.2,3.5,2.3,5.4,3c1.9,0.7,4.1,1.1,6.1,0.5c-2,0.7-4.2,0.4-6.2-0.2
		c-2-0.6-3.9-1.6-5.6-2.8c-0.4-0.3-0.9-0.6-1.3-0.9c-0.4-0.3-0.8-0.7-1.2-1c-0.8-0.5-1.8-0.9-2.8-1c-2-0.2-4,0.5-5.7,1.5l-0.1,0
		l-0.1,0c-2,0.4-4.2,0.3-6.1-0.8c-0.9-0.5-1.8-1.2-2.5-1.9c-0.7-0.8-1.3-1.6-1.7-2.6l0.1,0.2c-0.5-0.5-1-1-1.6-1.4
		c-0.6-0.4-1.2-0.7-1.8-0.8c-0.6-0.1-1.3,0-1.8,0.5c-0.5,0.4-0.9,1-1.1,1.6l-0.6,1.6l-0.3-1.7c-0.4-2.3,0-4.6,0.6-6.7
		c0.6-2.2,1.4-4.2,2.2-6.3c0.9-2,1.8-4,2.9-6C12,246.2,13.1,244.3,14.3,242.5z"/>
</g>
<g>
	<path fill="#FFFFFF" d="M29.8,248.7c0,0-5.2,15-4.5,22.2"/>
	<path d="M29.8,248.7c-0.8,3.7-1.8,7.4-2.7,11c-0.4,1.8-0.8,3.7-1.2,5.5c-0.3,1.9-0.6,3.7-0.6,5.6c-0.4-1.9-0.3-3.8-0.1-5.7
		c0.2-1.9,0.6-3.8,1-5.6C27,255.8,28.2,252.2,29.8,248.7z"/>
</g>
<g>
	<path d="M197.1,251.9c0.5,1.7,1,3.4,1.4,5.2c0.5,1.7,0.8,3.5,1.2,5.2c0.4,1.8,0.7,3.5,1.1,5.3c0.3,1.8,0.6,3.5,0.9,5.3
		c-0.5-1.7-1-3.4-1.4-5.2c-0.4-1.7-0.8-3.5-1.2-5.2c-0.4-1.8-0.7-3.5-1.1-5.3C197.6,255.4,197.3,253.7,197.1,251.9z"/>
</g>
<g>
	<path d="M231,267c-1.2-1.6-2.2-3.2-3.1-5c-0.9-1.7-1.7-3.5-2.3-5.4c-0.6-1.9-1.1-3.8-1.2-5.8c0-1,0-2,0.2-3c0.2-1,0.5-1.9,1.1-2.7
		c-0.8,1.8-0.9,3.8-0.7,5.6c0.2,1.9,0.7,3.8,1.3,5.6c0.6,1.8,1.3,3.6,2.1,5.4C229.2,263.6,230.1,265.3,231,267z"/>
</g>
<g>
	<path d="M80.8,285.4c-1-1.9-1.1-4.1-1.1-6.1c0-2.1,0.2-4.2,0.6-6.3c0.4-2.1,0.8-4.1,1.4-6.1c0.6-2,1.2-4,2-5.9c-0.5,2-1,4-1.5,6.1
		c-0.5,2-0.9,4-1.2,6.1c-0.4,2-0.6,4.1-0.7,6.1c-0.1,1-0.1,2.1,0,3.1C80.3,283.4,80.5,284.4,80.8,285.4z"/>
</g>
<g>
	<path d="M246.2,260.9c-1.6-1-2.9-2.5-4-4c-1.1-1.6-1.9-3.3-2.5-5.1c-0.6-1.8-0.9-3.7-1-5.6c-0.1-1.9,0-3.8,0.3-5.7
		c0,1.9,0.1,3.8,0.3,5.6c0.2,1.8,0.6,3.7,1.2,5.4c0.5,1.8,1.3,3.5,2.2,5.1c0.5,0.8,1,1.6,1.6,2.3
		C244.8,259.6,245.5,260.3,246.2,260.9z"/>
</g>
<g>
	<path d="M216.7,270.9c-1.8-3.3-3.1-6.9-3.9-10.5c-0.4-1.8-0.7-3.7-0.8-5.6c-0.1-1.9,0.1-3.8,0.8-5.6c-0.3,1.9-0.2,3.7,0,5.5
		c0.2,1.8,0.6,3.6,1,5.4c0.4,1.8,0.9,3.6,1.4,5.4L216.7,270.9z"/>
</g>
<g>
	<path fill="#FFFFFF" d="M88.1,261.5c0,0-0.4,19.4,4.9,25.6c0,0-1.2-5.7,6.2-3.6c0,0,5.4,4.3,10.9-0.5c0,0,3-6,8.5-4.7
		c0,0,3.7,10.7,8.1,6.1"/>
	<path d="M88.1,261.5c0.1,4.4,0.5,8.8,1.1,13.1c0.3,2.2,0.8,4.3,1.4,6.4c0.6,2.1,1.4,4.1,2.7,5.7l-0.8,0.4c-0.1-0.8-0.1-1.7,0.2-2.5
		c0.3-0.8,1-1.5,1.8-1.8c0.8-0.3,1.6-0.3,2.4-0.3c0.8,0.1,1.6,0.2,2.3,0.4l0.1,0l0.1,0.1c0.7,0.5,1.6,1,2.5,1.3
		c0.9,0.3,1.8,0.4,2.8,0.4c1.9,0,3.7-0.9,5.1-2.1l-0.1,0.1c0.4-0.8,1-1.5,1.6-2.2c0.6-0.7,1.3-1.3,2.1-1.8c0.8-0.5,1.7-0.8,2.6-1
		c0.9-0.1,1.9-0.1,2.7,0.1l0.2,0l0.1,0.2c0.3,0.9,0.7,1.9,1.2,2.8c0.5,0.9,0.9,1.8,1.6,2.6c0.6,0.8,1.4,1.5,2.3,1.8
		c1,0.3,2-0.3,2.7-1c-0.3,0.4-0.7,0.7-1.2,1c-0.5,0.2-1,0.3-1.6,0.2c-1.1-0.2-1.9-1-2.6-1.8c-0.7-0.8-1.2-1.7-1.7-2.6
		c-0.5-0.9-0.9-1.9-1.3-2.8l0.2,0.2c-1.6-0.4-3.4,0-4.7,0.9c-0.7,0.5-1.3,1-1.9,1.6c-0.5,0.6-1.1,1.3-1.4,2.1l0,0.1l-0.1,0.1
		c-1.5,1.4-3.5,2.3-5.7,2.4c-1.1,0-2.1-0.1-3.1-0.4c-1-0.3-1.9-0.8-2.8-1.4l0.2,0.1c-0.7-0.2-1.4-0.4-2.1-0.4c-0.7-0.1-1.4,0-2,0.2
		c-0.6,0.2-1.1,0.7-1.3,1.3c-0.2,0.6-0.3,1.3-0.2,2l0.3,1.7l-1.1-1.3c-1.5-1.8-2.2-4-2.8-6.1c-0.6-2.2-0.9-4.3-1.2-6.5
		c-0.3-2.2-0.4-4.4-0.5-6.6C88,265.9,88,263.7,88.1,261.5z"/>
</g>
<g>
	<path fill="#FFFFFF" d="M123.1,261.5c0,0-0.4,19.4,4.9,25.6c0,0-1.2-5.7,6.2-3.6c0,0,5.4,4.3,10.9-0.5c0,0,3-6,8.5-4.7
		c0,0,3.7,10.7,8.1,6.1"/>
	<path d="M123.1,261.5c0.1,4.4,0.5,8.8,1.1,13.1c0.3,2.2,0.8,4.3,1.4,6.4c0.6,2.1,1.4,4.1,2.7,5.7l-0.8,0.4
		c-0.1-0.8-0.1-1.7,0.2-2.5c0.3-0.8,1-1.5,1.8-1.8c0.8-0.3,1.6-0.3,2.4-0.3c0.8,0.1,1.6,0.2,2.3,0.4l0.1,0l0.1,0.1
		c0.7,0.5,1.6,1,2.5,1.3c0.9,0.3,1.8,0.4,2.8,0.4c1.9,0,3.7-0.9,5.1-2.1l-0.1,0.1c0.4-0.8,1-1.5,1.6-2.2c0.6-0.7,1.3-1.3,2.1-1.8
		c0.8-0.5,1.7-0.8,2.6-1c0.9-0.1,1.9-0.1,2.7,0.1l0.2,0l0.1,0.2c0.3,0.9,0.7,1.9,1.2,2.8c0.5,0.9,0.9,1.8,1.6,2.6
		c0.6,0.8,1.4,1.5,2.3,1.8c1,0.3,2-0.3,2.7-1c-0.3,0.4-0.7,0.7-1.2,1c-0.5,0.2-1,0.3-1.6,0.2c-1.1-0.2-1.9-1-2.6-1.8
		c-0.7-0.8-1.2-1.7-1.7-2.6c-0.5-0.9-0.9-1.9-1.3-2.8l0.2,0.2c-1.6-0.4-3.4,0-4.7,0.9c-0.7,0.5-1.3,1-1.9,1.6
		c-0.5,0.6-1.1,1.3-1.4,2.1l0,0.1l-0.1,0.1c-1.5,1.4-3.5,2.3-5.7,2.4c-1.1,0-2.1-0.1-3.1-0.4c-1-0.3-1.9-0.8-2.8-1.4l0.2,0.1
		c-0.7-0.2-1.4-0.4-2.1-0.4c-0.7-0.1-1.4,0-2,0.2c-0.6,0.2-1.1,0.7-1.3,1.3c-0.2,0.6-0.3,1.3-0.2,2l0.3,1.7l-1.1-1.3
		c-1.5-1.8-2.2-4-2.8-6.1c-0.6-2.2-0.9-4.3-1.2-6.5c-0.3-2.2-0.4-4.4-0.5-6.6C123,265.9,123,263.7,123.1,261.5z"/>
</g>
<g>
	<path fill="#FFFFFF" d="M47.3,254.5c0,0-4.5,18.9-0.6,26c0,0,0-5.8,6.8-2.2c0,0,4.4,5.4,10.8,1.8c0,0,4.2-5.2,9.3-2.8
		c0,0,1.4,11.3,6.6,7.7"/>
	<path d="M47.3,254.5c-0.8,4.3-1.4,8.7-1.7,13.1c-0.1,2.2-0.2,4.4,0,6.5c0.2,2.1,0.5,4.4,1.5,6.2l-0.8,0.2c0-0.9,0.2-1.6,0.7-2.4
		c0.5-0.7,1.3-1.3,2.2-1.4c0.9-0.1,1.7,0,2.4,0.2c0.8,0.2,1.5,0.6,2.2,0.9l0.1,0l0.1,0.1c0.6,0.7,1.4,1.3,2.2,1.8
		c0.8,0.5,1.7,0.8,2.6,1c1.8,0.4,3.8-0.1,5.4-1l-0.1,0.1c0.6-0.7,1.3-1.3,2-1.8c0.7-0.5,1.5-1,2.4-1.3c0.9-0.3,1.8-0.5,2.7-0.4
		c0.9,0,1.8,0.3,2.7,0.7l0.2,0.1l0,0.2c0.1,1,0.3,2,0.5,3c0.2,1,0.5,2,1,2.9c0.4,0.9,1,1.8,1.9,2.2c0.9,0.5,2,0.1,2.9-0.4
		c-0.4,0.3-0.9,0.6-1.4,0.7c-0.5,0.1-1.1,0.1-1.6-0.1c-1-0.4-1.7-1.4-2.2-2.3c-0.5-0.9-0.9-1.9-1.1-2.9c-0.3-1-0.5-2-0.7-3.1
		l0.2,0.3c-1.5-0.7-3.3-0.7-4.8-0.1c-0.8,0.3-1.5,0.7-2.2,1.2c-0.7,0.5-1.3,1.1-1.8,1.7l-0.1,0.1l-0.1,0c-1.8,1-3.9,1.5-6,1.2
		c-1-0.2-2-0.6-2.9-1.1c-0.9-0.5-1.7-1.1-2.4-2l0.1,0.1c-0.6-0.3-1.3-0.7-2-0.9c-0.7-0.2-1.4-0.3-2-0.2c-0.6,0.1-1.2,0.4-1.5,1
		c-0.4,0.5-0.5,1.2-0.6,1.9l-0.1,1.7l-0.8-1.5c-1.1-2.1-1.4-4.4-1.5-6.6c-0.1-2.2,0-4.4,0.2-6.6c0.2-2.2,0.5-4.4,0.9-6.6
		C46.3,258.8,46.8,256.6,47.3,254.5z"/>
</g>
<g>
	<path fill="#FFFFFF" d="M152.4,261c0,0,4.1,19,10.6,23.7c0,0-2.5-5.2,5.2-4.9c0,0,6.3,2.9,10.5-3c0,0,1.5-6.5,7.2-6.5
		c0,0,7.9,12.4,11.1,6.9"/>
	<path d="M152.4,261c1.1,4.3,2.5,8.4,4.1,12.5c0.8,2,1.7,4,2.8,5.9c1.1,1.9,2.3,3.7,4,5l-0.7,0.6c-0.3-0.8-0.5-1.6-0.4-2.5
		c0.1-0.9,0.6-1.7,1.3-2.2c0.7-0.5,1.5-0.7,2.3-0.8c0.8-0.1,1.6-0.1,2.3-0.1l0.1,0l0.1,0c0.8,0.3,1.8,0.6,2.7,0.7
		c0.9,0.1,1.9,0,2.8-0.2c1.8-0.5,3.4-1.7,4.5-3.2l-0.1,0.2c0.2-0.9,0.6-1.7,1-2.5c0.4-0.8,1-1.6,1.6-2.2c0.7-0.6,1.4-1,2.3-1.4
		c0.9-0.4,1.8-0.3,2.7-0.3h0.2l0.1,0c1.4,2.1,2.9,4.1,4.6,5.9c0.9,0.9,1.8,1.7,3,2.2c0.6,0.2,1.2,0.3,1.8,0.1c0.6-0.2,1-0.7,1.4-1.2
		c-0.3,0.6-0.7,1.1-1.3,1.3c-0.6,0.3-1.3,0.2-1.9,0c-1.2-0.4-2.3-1.3-3.2-2.1c-0.9-0.9-1.8-1.8-2.6-2.8c-0.8-1-1.6-2-2.3-3.1
		l0.3,0.2c-0.8,0-1.7,0.2-2.4,0.5c-0.8,0.3-1.4,0.8-2,1.4c-0.6,0.6-1.1,1.3-1.5,2c-0.4,0.7-0.7,1.5-0.9,2.3l0,0.1l0,0.1
		c-1.2,1.7-2.9,3.1-4.9,3.6c-1,0.3-2.1,0.4-3.1,0.3c-1-0.1-2-0.3-3.1-0.7l0.2,0c-0.7,0-1.5,0-2.2,0.1c-0.7,0.1-1.4,0.3-1.9,0.6
		c-0.5,0.4-0.9,0.9-1,1.5c-0.1,0.6,0,1.4,0.3,2l0.7,1.6l-1.3-1c-1.9-1.4-3.1-3.3-4.2-5.3c-1.1-2-1.9-4-2.7-6.1
		c-0.8-2.1-1.4-4.2-2-6.3C153.4,265.3,152.8,263.1,152.4,261z"/>
</g>
<g>
	<path fill="#FFFFFF" d="M79.8,284c0,0,1.7,6.5,6.6,5.1c0,0,3.8-3.7,6.6,0.2"/>
	<path d="M79.8,284c0.3,0.7,0.7,1.4,1.1,2c0.4,0.6,0.9,1.2,1.4,1.7c0.5,0.5,1.2,0.8,1.9,1c0.7,0.2,1.4,0.1,2.1-0.1l-0.2,0.1
		c0.5-0.5,1.1-0.8,1.7-1.1c0.6-0.3,1.3-0.5,2-0.5c0.7,0,1.4,0.2,1.9,0.6c0.5,0.4,1,0.9,1.3,1.5c-0.4-0.5-0.9-0.9-1.5-1.2
		c-0.5-0.3-1.1-0.4-1.7-0.3c-0.6,0.1-1.1,0.3-1.7,0.5c-0.5,0.3-1,0.6-1.4,1l-0.1,0.1l-0.1,0c-0.8,0.2-1.7,0.3-2.5,0.1
		c-0.8-0.2-1.6-0.7-2.1-1.3c-0.6-0.6-1-1.3-1.3-2C80.2,285.6,79.9,284.8,79.8,284z"/>
</g>
<g>
	<path fill="#FFFFFF" d="M249.8,237.5c0,0,10,16.6,8.6,24.6c0,0-1.8-5.5-7.1,0c0,0-2.6,6.5-9.7,5.1c0,0-5.6-3.7-9.7,0.2
		c0,0-7.2,6.4-13.3,4.5"/>
	<path d="M249.8,237.5c1.2,1.9,2.3,3.8,3.3,5.7c1,1.9,2,3.9,2.9,6c0.9,2,1.6,4.1,2.2,6.3c0.6,2.1,1,4.4,0.6,6.7l-0.3,1.7l-0.6-1.6
		c-0.2-0.6-0.6-1.2-1.1-1.6c-0.5-0.4-1.1-0.6-1.8-0.5c-0.6,0.1-1.3,0.4-1.8,0.8c-0.6,0.4-1.1,0.9-1.6,1.4l0.1-0.2
		c-0.4,1-1,1.8-1.7,2.6c-0.7,0.8-1.5,1.4-2.5,1.9c-1.9,1-4.1,1.2-6.1,0.8l-0.1,0l-0.1,0c-1.7-1-3.7-1.7-5.7-1.5
		c-1,0.1-1.9,0.4-2.8,1c-0.4,0.3-0.8,0.6-1.2,1c-0.4,0.3-0.8,0.6-1.3,0.9c-1.7,1.2-3.6,2.2-5.6,2.8c-2,0.6-4.2,0.9-6.2,0.2
		c2,0.5,4.2,0.2,6.1-0.5c1.9-0.7,3.7-1.8,5.4-3c0.4-0.3,0.8-0.6,1.2-1c0.4-0.3,0.8-0.7,1.2-1c0.9-0.6,2-1,3.1-1.2
		c1.1-0.1,2.2,0,3.3,0.3c1.1,0.3,2,0.7,3,1.3l-0.2-0.1c1.9,0.4,3.8,0.2,5.5-0.7c0.8-0.4,1.6-1,2.2-1.7c0.6-0.7,1.2-1.5,1.5-2.3
		l0-0.1l0.1-0.1c0.5-0.6,1.1-1.1,1.8-1.5c0.7-0.4,1.4-0.8,2.2-1c0.9-0.2,1.8,0.1,2.5,0.7c0.7,0.6,1.1,1.3,1.4,2.1L258,262
		c0.4-2.1,0-4.2-0.5-6.3c-0.5-2.1-1.2-4.2-2-6.2C253.8,245.3,251.9,241.3,249.8,237.5z"/>
</g>
<g>
	<path fill="#FFFFFF" d="M199.4,276.8c0,0,7.4,6.5,17.3-2.6"/>
	<path d="M199.4,276.8c1.4,0.8,2.9,1.3,4.4,1.6c1.5,0.2,3.1,0.2,4.6-0.1c3-0.6,5.8-2.2,8.4-4.1c-2.1,2.4-4.9,4.4-8.2,5.1
		c-1.6,0.3-3.3,0.3-4.9-0.1C202,278.8,200.5,278,199.4,276.8z"/>
</g>
<g>
	<path fill="#FFFFFF" d="M187.5,144.8c-15.9-7-16.2-6.9-23.9,8.7c7-15.9,6.9-16.2-8.7-23.9c15.9,7,16.2,6.9,23.9-8.7
		C171.8,136.8,171.9,137.2,187.5,144.8z"/>
</g>
<g>
	<path fill="#FFFFFF" d="M64.6,230c-12-5.3-12.3-5.2-18.1,6.6c5.3-12,5.2-12.3-6.6-18.1c12,5.3,12.3,5.2,18.1-6.6
		C52.7,223.9,52.8,224.2,64.6,230z"/>
</g>
<linearGradient id="SVGID_1_" gradientUnits="userSpaceOnUse" x1="14.2643" y1="33.4454" x2="249.8254" y2="33.4454" gradientTransform="matrix(1 0 0 -1 0 166.6032)">
	<stop  offset="0" style="stop-color:#FFFFFF"/>
	<stop  offset="1" style="stop-color:#99FF66"/>
</linearGradient>
<path fill="url(#SVGID_1_)" stroke="#66CC00" stroke-miterlimit="10" d="M157.5,82.1l1.2-48.2c0,0-14.3-30.6-19.1-30
	c1.8,1.1,2.8,2.5,2.8,4c0,4-7.8,7.3-17.5,7.3c-9.7,0-17.5-3.3-17.5-7.3c0-0.8,0.3-1.5,0.8-2.2c-7.9,1-15,35.3-15,35.3l3.9,43.2
	c-65.4,56.7-82.8,158.3-82.8,158.3c120.4,48.3,235.6-6.5,235.6-6.5C222,125.7,157.5,82.1,157.5,82.1z"/>
<g>
	<path d="M184.1,256.9c0.4,0.9,0.7,1.7,1,2.6c0.3,0.9,0.6,1.8,0.9,2.7c0.3,0.9,0.5,1.8,0.7,2.7c0.2,0.9,0.5,1.8,0.6,2.7
		c-0.4-0.9-0.7-1.7-1-2.6c-0.3-0.9-0.6-1.8-0.9-2.7c-0.3-0.9-0.5-1.8-0.7-2.7C184.5,258.7,184.2,257.8,184.1,256.9z"/>
</g>
</svg>
