<?xml version="1.0" encoding="utf-8"?>
<!-- Generator: Adobe Illustrator 18.0.0, SVG Export Plug-In . SVG Version: 6.00 Build 0)  -->
<!DOCTYPE svg PUBLIC "-//W3C//DTD SVG 1.1//EN" "http://www.w3.org/Graphics/SVG/1.1/DTD/svg11.dtd">
<svg version="1.1" id="Layer_1" xmlns="http://www.w3.org/2000/svg" xmlns:xlink="http://www.w3.org/1999/xlink" x="0px" y="0px"
	 viewBox="0 0 250 273" enable-background="new 0 0 250 273" xml:space="preserve">
<linearGradient id="SVGID_1_" gradientUnits="userSpaceOnUse" x1="7.2009" y1="149.5565" x2="242.7619" y2="149.5565" gradientTransform="matrix(1 0 0 -1 0 288.8254)">
	<stop  offset="0" style="stop-color:#FFFFFF"/>
	<stop  offset="1" style="stop-color:#FFFFCC"/>
</linearGradient>
<path fill="url(#SVGID_1_)" stroke="#66CC00" stroke-miterlimit="10" d="M150.5,88.2l1.2-48.2c0,0-14.3-30.6-19.1-30
	c1.8,1.1,2.8,2.5,2.8,4c0,4-7.8,7.3-17.5,7.3c-9.7,0-17.5-3.3-17.5-7.3c0,0,0.3-1.5,0.8-2.2c-7.9,1-15,35.3-15,35.3L90,90.3
	C24.6,147.1,7.2,248.6,7.2,248.6c120.4,48.3,235.6-6.5,235.6-6.5C214.9,131.8,150.5,88.2,150.5,88.2z"/>
<linearGradient id="SVGID_2_" gradientUnits="userSpaceOnUse" x1="66.2159" y1="263.3041" x2="101.1179" y2="263.3041" gradientTransform="matrix(1 0 0 -1 0 288.8254)">
	<stop  offset="0" style="stop-color:#FFFFFF"/>
	<stop  offset="1" style="stop-color:#FFFFCC"/>
</linearGradient>
<path fill="url(#SVGID_2_)" stroke="#66CC00" stroke-miterlimit="10" d="M86.1,46.2c-21-8.9-19.9-20.1-19.9-20.1
	c1.3-36,34.9-15.3,34.9-15.3"/>
<linearGradient id="SVGID_3_" gradientUnits="userSpaceOnUse" x1="-238.7845" y1="263.304" x2="-203.8825" y2="263.304" gradientTransform="matrix(-1 0 0 -1 -68.6676 288.8254)">
	<stop  offset="0" style="stop-color:#FFFFFF"/>
	<stop  offset="1" style="stop-color:#FFFFCC"/>
</linearGradient>
<path fill="url(#SVGID_3_)" stroke="#66CC00" stroke-miterlimit="10" d="M135.2,10.8c0,0,33.6-20.7,34.9,15.3
	c0,0,1.1,11.2-19.9,20.1"/>
<linearGradient id="SVGID_4_" gradientUnits="userSpaceOnUse" x1="50.9138" y1="243.1242" x2="88.0999" y2="243.1242" gradientTransform="matrix(1 0 0 -1 0 288.8254)">
	<stop  offset="0" style="stop-color:#FFFFFF"/>
	<stop  offset="1" style="stop-color:#FFFFCC"/>
</linearGradient>
<path fill="url(#SVGID_4_)" stroke="#66CC00" stroke-miterlimit="10" d="M68.2,30.7c0,0-18.6,15.1-17.2,16.4c0,0,3.8-5.1,5.7-0.1
	c1.8,5,1.8,4.9,1.8,4.9h5.3l4.4,4h6.6h3l3,4.7l7.3-14.5"/>
<linearGradient id="SVGID_5_" gradientUnits="userSpaceOnUse" x1="152.6659" y1="240.8677" x2="184.4709" y2="240.8677" gradientTransform="matrix(1 0 0 -1 0 288.8254)">
	<stop  offset="0" style="stop-color:#FFFFFF"/>
	<stop  offset="1" style="stop-color:#FFFFCC"/>
</linearGradient>
<path fill="url(#SVGID_5_)" stroke="#66CC00" stroke-miterlimit="10" d="M152.7,45.1l6.8,20.4c0,0,3.6-10.5,10.7-9.5h5.5l1.4-3.6
	l7.5-1.7l-15.3-20.1"/>
</svg>
