<?xml version="1.0" encoding="utf-8"?>
<!-- Generator: Adobe Illustrator 18.0.0, SVG Export Plug-In . SVG Version: 6.00 Build 0)  -->
<!DOCTYPE svg PUBLIC "-//W3C//DTD SVG 1.1//EN" "http://www.w3.org/Graphics/SVG/1.1/DTD/svg11.dtd">
<svg version="1.1" id="Layer_1" xmlns="http://www.w3.org/2000/svg" xmlns:xlink="http://www.w3.org/1999/xlink" x="0px" y="0px"
	 viewBox="0 0 103.2 37.1" enable-background="new 0 0 103.2 37.1" xml:space="preserve">
<g>
	
		<linearGradient id="SVGID_1_" gradientUnits="userSpaceOnUse" x1="-3.4379" y1="8.1877" x2="107.5289" y2="49.1948" gradientTransform="matrix(1 0 0 -1 0 44.8119)">
		<stop  offset="0" style="stop-color:#231F20;stop-opacity:0"/>
		<stop  offset="0.5" style="stop-color:#B3B3B3"/>
		<stop  offset="1" style="stop-color:#231F20;stop-opacity:0"/>
	</linearGradient>
	<path fill="url(#SVGID_1_)" stroke="#993300" stroke-miterlimit="10" d="M79.9,4.4C61-5.8,51,5,51,5c-6.8,3.9-13.3,2.9-13.3,2.9
		l-8.5-4.5C14-0.1,7.7,7.4,5.8,10.6L0,10.9l5.3,3.9c3.2,32.1,26,20.1,26,20.1c8.2-3.9,8.2-14.7,7.4-21.4c3.3-2.2,10.4-0.1,10.4-0.1
		l0,0c-3.2,25.4,22,21.6,22,21.6C82.4,33.7,85.9,21.3,87,15l14.9-9.3c7.1-4.8-16.1,2.9-17.2,3L79.9,4.4z"/>
	
		<linearGradient id="SVGID_2_" gradientUnits="userSpaceOnUse" x1="92.892" y1="42.0149" x2="92.892" y2="42.0149" gradientTransform="matrix(1 0 0 -1 0 44.8119)">
		<stop  offset="0" style="stop-color:#231F20;stop-opacity:0"/>
		<stop  offset="0.5" style="stop-color:#B3B3B3"/>
		<stop  offset="1" style="stop-color:#231F20;stop-opacity:0"/>
	</linearGradient>
	<path fill="url(#SVGID_2_)" stroke="#993300" stroke-miterlimit="10" d="M92.9,2.8"/>
</g>
</svg>
