<?xml version="1.0" encoding="utf-8"?>
<!-- Generator: Adobe Illustrator 15.1.0, SVG Export Plug-In . SVG Version: 6.00 Build 0)  -->
<!DOCTYPE svg PUBLIC "-//W3C//DTD SVG 1.1//EN" "http://www.w3.org/Graphics/SVG/1.1/DTD/svg11.dtd">
<svg version="1.1" id="Layer_1" xmlns="http://www.w3.org/2000/svg" xmlns:xlink="http://www.w3.org/1999/xlink" x="0px" y="0px"
	  viewBox="0 0 800 600" enable-background="new 0 0 800 600" xml:space="preserve" preserveAspectRatio="none">
<linearGradient id="SVGID_1_" gradientUnits="userSpaceOnUse" x1="-1.5" y1="245.5" x2="799.5" y2="245.5">
	<stop  offset="0" style="stop-color:#FFFFFF"/>
	<stop  offset="0.128" style="stop-color:#FACFE2"/>
	<stop  offset="0.4573" style="stop-color:#FFCCFF"/>
</linearGradient>
<rect x="-1.5" y="-4.5" fill="url(#SVGID_1_)" stroke="#FFFFCC" stroke-miterlimit="10" width="801" height="500"/>
<linearGradient id="SVGID_2_" gradientUnits="userSpaceOnUse" x1="-0.25" y1="473.3457" x2="799.5" y2="473.3457">
	<stop  offset="0.4573" style="stop-color:#FF7BAC"/>
	<stop  offset="1" style="stop-color:#FFFFFF"/>
</linearGradient>
<path fill="url(#SVGID_2_)" stroke="#FFFFFF" stroke-miterlimit="10" d="M-0.25,470.906c0,0,544.54-146.775,796.896-120.583
	c0.998,0.104,2.854,0.072,2.854,0.182V599.5H0L-0.25,470.906z"/>
<linearGradient id="SVGID_3_" gradientUnits="userSpaceOnUse" x1="668.1621" y1="357.21" x2="810.498" y2="357.21" gradientTransform="matrix(0.9028 -0.5293 0.5217 0.8899 -80.9453 175.3477)">
	<stop  offset="0" style="stop-color:#FF7BAC"/>
	<stop  offset="0.0854" style="stop-color:#FFFFFF"/>
	<stop  offset="0.1646" style="stop-color:#FF7BAC"/>
	<stop  offset="0.2683" style="stop-color:#FFFFFF"/>
	<stop  offset="0.378" style="stop-color:#FF7BAC"/>
	<stop  offset="0.4573" style="stop-color:#FFFFFF"/>
	<stop  offset="0.5976" style="stop-color:#FF7BAC"/>
	<stop  offset="0.6951" style="stop-color:#FFFFFF"/>
	<stop  offset="0.8049" style="stop-color:#FF7BAC"/>
	<stop  offset="0.8902" style="stop-color:#FFFFFF"/>
	<stop  offset="0.9695" style="stop-color:#FF7BAC"/>
</linearGradient>
<polyline fill="url(#SVGID_3_)" points="799.5,0 624.584,-3.826 799.5,279 "/>
<linearGradient id="SVGID_4_" gradientUnits="userSpaceOnUse" x1="866.1611" y1="604.3809" x2="866.1611" y2="604.3809" gradientTransform="matrix(0.9028 -0.5293 0.5217 0.8899 -80.9453 175.3477)">
	<stop  offset="0" style="stop-color:#FF7BAC"/>
	<stop  offset="0.0854" style="stop-color:#FFFFFF"/>
	<stop  offset="0.1646" style="stop-color:#FF7BAC"/>
	<stop  offset="0.2683" style="stop-color:#FFFFFF"/>
	<stop  offset="0.378" style="stop-color:#FF7BAC"/>
	<stop  offset="0.4573" style="stop-color:#FFFFFF"/>
	<stop  offset="0.5976" style="stop-color:#FF7BAC"/>
	<stop  offset="0.6951" style="stop-color:#FFFFFF"/>
	<stop  offset="0.8049" style="stop-color:#FF7BAC"/>
	<stop  offset="0.8902" style="stop-color:#FFFFFF"/>
	<stop  offset="0.9695" style="stop-color:#FF7BAC"/>
</linearGradient>
<path fill="url(#SVGID_4_)" d="M1016.364,254.73"/>
<g>
	<g>
		<radialGradient id="SVGID_5_" cx="692.5449" cy="89.6221" r="66.0165" gradientUnits="userSpaceOnUse">
			<stop  offset="0" style="stop-color:#FFFFFF"/>
			<stop  offset="0.4573" style="stop-color:#FF4FAC"/>
		</radialGradient>
		<path fill="url(#SVGID_5_)" d="M746.018,98.41c0,22.615-18.334,49.936-40.948,49.936s-40.948-27.321-40.948-49.936
			s18.334-40.948,40.948-40.948S746.018,75.795,746.018,98.41z"/>
		<radialGradient id="SVGID_6_" cx="703.6875" cy="150.3516" r="5.9763" gradientUnits="userSpaceOnUse">
			<stop  offset="0" style="stop-color:#FFFFFF"/>
			<stop  offset="0.4573" style="stop-color:#FF4FAC"/>
		</radialGradient>
		<polyline fill="url(#SVGID_6_)" points="703.432,148.601 700.395,154 709.883,154 707.517,148.354 		"/>
	</g>
	<g>
		<radialGradient id="SVGID_7_" cx="687.5449" cy="227.6221" r="66.0165" gradientUnits="userSpaceOnUse">
			<stop  offset="0" style="stop-color:#FFFFFF"/>
			<stop  offset="0.4573" style="stop-color:#FF7BAC"/>
		</radialGradient>
		<path fill="url(#SVGID_7_)" d="M741.018,236.41c0,22.614-18.334,49.936-40.948,49.936s-40.948-27.321-40.948-49.936
			c0-22.615,18.334-40.948,40.948-40.948S741.018,213.795,741.018,236.41z"/>
		<radialGradient id="SVGID_8_" cx="698.6875" cy="288.3516" r="5.9763" gradientUnits="userSpaceOnUse">
			<stop  offset="0" style="stop-color:#FFFFFF"/>
			<stop  offset="0.4573" style="stop-color:#FF7BAC"/>
		</radialGradient>
		<polyline fill="url(#SVGID_8_)" points="698.432,286.601 695.395,292 704.883,292 702.517,286.354 		"/>
	</g>
	<g>
		<radialGradient id="SVGID_9_" cx="710.1602" cy="361.8213" r="53.5061" gradientUnits="userSpaceOnUse">
			<stop  offset="0" style="stop-color:#FFFFFF"/>
			<stop  offset="0.4573" style="stop-color:#66FFFF"/>
		</radialGradient>
		<path fill="url(#SVGID_9_)" d="M753.499,368.943c0,18.33-14.86,40.474-33.188,40.474c-18.33,0-33.189-22.144-33.189-40.474
			s14.859-33.188,33.189-33.188C738.639,335.755,753.499,350.613,753.499,368.943z"/>
		<radialGradient id="SVGID_10_" cx="719.1904" cy="411.043" r="4.8432" gradientUnits="userSpaceOnUse">
			<stop  offset="0" style="stop-color:#FFFFFF"/>
			<stop  offset="0.4573" style="stop-color:#66FFFF"/>
		</radialGradient>
		<polyline fill="url(#SVGID_10_)" points="718.982,409.624 716.521,414 724.211,414 722.293,409.424 		"/>
	</g>
	<g>
		<radialGradient id="SVGID_11_" cx="646.1348" cy="325.1416" r="51.1277" gradientUnits="userSpaceOnUse">
			<stop  offset="0" style="stop-color:#FFFFFF"/>
			<stop  offset="0.4573" style="stop-color:#FFFAAC"/>
		</radialGradient>
		<path fill="url(#SVGID_11_)" d="M687.548,331.947c0,17.514-14.199,38.674-31.714,38.674c-17.514,0-31.713-21.16-31.713-38.674
			c0-17.516,14.199-31.714,31.713-31.714C673.349,300.233,687.548,314.432,687.548,331.947z"/>
		<radialGradient id="SVGID_12_" cx="654.7646" cy="372.1748" r="4.6281" gradientUnits="userSpaceOnUse">
			<stop  offset="0" style="stop-color:#FFFFFF"/>
			<stop  offset="0.4573" style="stop-color:#FFFAAC"/>
		</radialGradient>
		<polyline fill="url(#SVGID_12_)" points="654.566,370.818 652.214,375 659.562,375 657.729,370.627 		"/>
	</g>
	<path fill="none" stroke="#FFFFCC" stroke-miterlimit="10" d="M707.731,148.78c0,0,74.391,0.609,10.976,105.488
		c0,0-65.245,81.936,2.438,139.444s-0.863,53.24-3.785,49.581"/>
	<path fill="none" stroke="#FFFFCC" stroke-miterlimit="10" d="M641.341,217c0,0-19.513,47,0,61.024c0,0,18.902,30.487,0,56.707
		c0,0-31.707,42.683-3.658,59.146s3.658,38.296,3.658,38.296s-10.975,7.436,0.61,20.851"/>
	<path fill="none" stroke="#FFFFCC" stroke-width="0.8267" stroke-miterlimit="10" d="M719.341,409.707c0,0-19.513,32.124,0,41.709
		c0,0,18.902,20.838,0,38.758c0,0-31.707,29.173-3.658,40.426c28.049,11.252,3.658,26.174,3.658,26.174s-10.975,5.082,0.61,14.251"
		/>
	<path fill="none" stroke="#FFFFCC" stroke-width="0.849" stroke-miterlimit="10" d="M656.933,372.887c0,0,19.513,33.88,0,43.989
		c0,0-18.902,21.977,0,40.877c0,0,31.707,30.768,3.658,42.636s-3.658,27.605-3.658,27.605s10.975,5.36-0.61,15.03"/>
	<g>
		<radialGradient id="SVGID_13_" cx="663.0508" cy="426.8613" r="46.2867" gradientUnits="userSpaceOnUse">
			<stop  offset="0" style="stop-color:#FFFFFF"/>
			<stop  offset="0.4573" style="stop-color:#FF7BAC"/>
		</radialGradient>
		<path fill="url(#SVGID_13_)" d="M700.542,433.023c0,15.856-12.854,35.012-28.711,35.012c-15.855,0-28.71-19.155-28.71-35.012
			c0-15.855,12.854-28.71,28.71-28.71C687.688,404.313,700.542,417.168,700.542,433.023z"/>
		<radialGradient id="SVGID_14_" cx="670.8623" cy="469.4424" r="4.19" gradientUnits="userSpaceOnUse">
			<stop  offset="0" style="stop-color:#FFFFFF"/>
			<stop  offset="0.4573" style="stop-color:#FF7BAC"/>
		</radialGradient>
		<polyline fill="url(#SVGID_14_)" points="670.684,468.214 668.554,472 675.206,472 673.547,468.041 		"/>
	</g>
	<path fill="none" stroke="#FFFFCC" stroke-width="0.5655" stroke-miterlimit="10" d="M671.341,469.533c0,0-19.513,15.033,0,19.519
		c0,0,18.902,9.751,0,18.138c0,0-31.707,13.651-3.658,18.917c28.049,5.267,3.658,12.249,3.658,12.249s-10.975,2.378,0.61,6.669"/>
	<g>
		<radialGradient id="SVGID_15_" cx="630.5449" cy="156.6221" r="66.0165" gradientUnits="userSpaceOnUse">
			<stop  offset="0" style="stop-color:#FFFFFF"/>
			<stop  offset="0.4573" style="stop-color:#FF61FF"/>
		</radialGradient>
		<path fill="url(#SVGID_15_)" d="M684.018,165.41c0,22.614-18.334,49.936-40.948,49.936s-40.948-27.321-40.948-49.936
			c0-22.615,18.334-40.948,40.948-40.948S684.018,142.795,684.018,165.41z"/>
		<radialGradient id="SVGID_16_" cx="641.6875" cy="217.3516" r="5.9763" gradientUnits="userSpaceOnUse">
			<stop  offset="0" style="stop-color:#FFFFFF"/>
			<stop  offset="0.4573" style="stop-color:#FF61FF"/>
		</radialGradient>
		<polyline fill="url(#SVGID_16_)" points="641.432,215.601 638.395,221 647.883,221 645.517,215.354 		"/>
	</g>
</g>
<linearGradient id="SVGID_17_" gradientUnits="userSpaceOnUse" x1="590.6758" y1="311.123" x2="733.0117" y2="311.123" gradientTransform="matrix(-0.9028 -0.5293 -0.5217 0.8899 785.0283 175.3477)">
	<stop  offset="0" style="stop-color:#FF7BAC"/>
	<stop  offset="0.0854" style="stop-color:#FFFFFF"/>
	<stop  offset="0.1646" style="stop-color:#FF7BAC"/>
	<stop  offset="0.2683" style="stop-color:#FFFFFF"/>
	<stop  offset="0.378" style="stop-color:#FF7BAC"/>
	<stop  offset="0.4573" style="stop-color:#FFFFFF"/>
	<stop  offset="0.5976" style="stop-color:#FF7BAC"/>
	<stop  offset="0.6951" style="stop-color:#FFFFFF"/>
	<stop  offset="0.8049" style="stop-color:#FF7BAC"/>
	<stop  offset="0.8902" style="stop-color:#FFFFFF"/>
	<stop  offset="0.9695" style="stop-color:#FF7BAC"/>
</linearGradient>
<polyline fill="url(#SVGID_17_)" points="-1.416,0 173.5,-3.826 -1.416,279 "/>
<g>
	<path fill="#FFFFFF" d="M469.164,99.814c0,76.821-3.147,68.849,14.39,36.445c-17.537,32.403-25.73,34.914,37.455-11.478
		c-63.186,46.392-58.916,38.961-19.518,33.969c-39.398,4.992-46.47,0.151,32.325,22.132c-78.795-21.981-70.323-23.276-38.729,5.919
		c-31.594-29.195-32.217-37.744,2.85,39.078c-35.066-76.821-28.772-71.004-28.772-26.591c0-44.413,6.294-50.23-28.772,26.591
		c35.066-76.821,34.444-68.273,2.845-39.078c31.6-29.195,40.07-27.9-38.725-5.919c78.795-21.981,71.724-17.14,32.325-22.132
		c39.398,4.992,43.668,12.423-19.518-33.969c63.186,46.392,54.992,43.881,37.457,11.478
		C472.312,168.663,469.164,176.635,469.164,99.814z"/>
</g>
<g>
	<path fill="#FFFFFF" d="M67.286,124.752c-0.002,61.977-2.541,55.545,11.607,29.402c-14.148,26.143-20.759,28.168,30.219-9.26
		c-50.978,37.428-47.533,31.433-15.748,27.405c-31.785,4.028-37.49,0.122,26.08,17.858c-63.57-17.736-56.735-18.78-31.245,4.772
		c-25.49-23.553-25.993-30.449,2.297,31.527c-28.29-61.977-23.213-57.284-23.211-21.453c-0.002-35.831,5.076-40.524-23.214,21.453
		c28.29-61.977,27.788-55.08,2.295-31.527c25.493-23.553,32.328-22.509-31.243-4.772c63.57-17.736,57.865-13.83,26.08-17.858
		c31.785,4.028,35.23,10.023-15.748-27.405c50.978,37.428,44.367,35.402,30.22,9.26C69.823,180.297,67.284,186.729,67.286,124.752z"
		/>
</g>
<g>
	<path fill="#FFCCFF" d="M31.668,299.245c0,44.893-1.839,40.233,8.409,21.298c-10.248,18.936-15.037,20.403,21.89-6.708
		c-36.927,27.111-34.431,22.769-11.408,19.851c-23.023,2.918-27.156,0.089,18.892,12.935c-46.048-12.846-41.097-13.602-22.633,3.457
		c-18.464-17.059-18.828-22.055,1.665,22.838c-20.493-44.893-16.815-41.493-16.815-15.54c0-25.953,3.678-29.353-16.815,15.54
		c20.493-44.893,20.129-39.896,1.664-22.838c18.466-17.059,23.417-16.303-22.631-3.457c46.048-12.846,41.915-10.017,18.892-12.935
		c23.023,2.918,25.519,7.261-11.408-19.851c36.927,27.111,32.138,25.644,21.891,6.708C33.507,339.479,31.668,344.138,31.668,299.245
		z"/>
</g>
<g>
	<path fill="#FFFFCC" d="M646.668,12.245c0,44.893-1.84,40.234,8.41,21.297c-10.25,18.937-15.038,20.404,21.89-6.708
		c-36.928,27.111-34.432,22.769-11.41,19.85c-23.021,2.919-27.154,0.089,18.893,12.935c-46.047-12.846-41.097-13.602-22.632,3.458
		c-18.465-17.06-18.829-22.055,1.665,22.837c-20.494-44.893-16.815-41.493-16.815-15.54c0-25.953,3.679-29.353-16.815,15.54
		c20.494-44.893,20.13-39.897,1.665-22.837c18.465-17.06,23.415-16.303-22.632-3.458c46.047-12.846,41.914-10.016,18.893-12.935
		c23.021,2.919,25.518,7.261-11.41-19.85c36.928,27.111,32.139,25.644,21.893,6.708C648.507,52.479,646.668,57.138,646.668,12.245z"
		/>
</g>
<polygon fill="#FFFFFF" points="769.605,458.979 771.381,489.274 796.943,477.502 773.156,492.35 796.943,513.115 771.381,495.425 
	769.605,531.621 767.83,495.425 745.995,509.388 766.054,492.35 748.469,477.084 767.83,489.274 "/>
</svg>
