<?xml version="1.0" encoding="utf-8"?>
<!-- Generator: Adobe Illustrator 18.0.0, SVG Export Plug-In . SVG Version: 6.00 Build 0)  -->
<!DOCTYPE svg PUBLIC "-//W3C//DTD SVG 1.1//EN" "http://www.w3.org/Graphics/SVG/1.1/DTD/svg11.dtd">
<svg version="1.1" id="Layer_1" xmlns="http://www.w3.org/2000/svg" xmlns:xlink="http://www.w3.org/1999/xlink" x="0px" y="0px"
	 viewBox="0 0 800 600" enable-background="new 0 0 800 600"  preserveAspectRatio="none">
<rect y="317.6" fill="#C69C6D" stroke="#000000" stroke-miterlimit="10" width="960" height="242.6"/>
<line fill="none" stroke="#000000" stroke-miterlimit="10" x1="496.4" y1="560.1" x2="496.4" y2="320.6"/>
<line fill="none" stroke="#000000" stroke-miterlimit="10" x1="109.6" y1="319.9" x2="0" y2="560.2"/>
<line fill="none" stroke="#000000" stroke-miterlimit="10" x1="165.5" y1="320.2" x2="56.7" y2="560.2"/>
<line fill="none" stroke="#000000" stroke-miterlimit="10" x1="207.2" y1="319.9" x2="125.4" y2="560"/>
<line fill="none" stroke="#000000" stroke-miterlimit="10" x1="263.2" y1="320.2" x2="234.3" y2="560"/>
<line fill="none" stroke="#000000" stroke-miterlimit="10" x1="309.9" y1="319.9" x2="286.5" y2="560"/>
<line fill="none" stroke="#000000" stroke-miterlimit="10" x1="414.5" y1="320.2" x2="407.6" y2="560"/>
<line fill="none" stroke="#000000" stroke-miterlimit="10" x1="357.1" y1="319.9" x2="343.9" y2="560"/>
<line fill="none" stroke="#000000" stroke-miterlimit="10" x1="233.8" y1="319.9" x2="186.5" y2="560"/>
<line fill="none" stroke="#000000" stroke-miterlimit="10" x1="459" y1="557.3" x2="459" y2="317.8"/>
<line fill="none" stroke="#000000" stroke-miterlimit="10" x1="818.2" y1="317.6" x2="960" y2="532.2"/>
<line fill="none" stroke="#000000" stroke-miterlimit="10" x1="774.2" y1="320.2" x2="865.8" y2="560.2"/>
<line fill="none" stroke="#000000" stroke-miterlimit="10" x1="712.3" y1="317.6" x2="743.5" y2="557.3"/>
<line fill="none" stroke="#000000" stroke-miterlimit="10" x1="661.7" y1="319.9" x2="687.1" y2="557.3"/>
<line fill="none" stroke="#000000" stroke-miterlimit="10" x1="548.3" y1="317.6" x2="555.8" y2="557.3"/>
<line fill="none" stroke="#000000" stroke-miterlimit="10" x1="610.5" y1="319.9" x2="624.9" y2="557.3"/>
<line fill="none" stroke="#000000" stroke-miterlimit="10" x1="744.8" y1="320.2" x2="795.4" y2="557.3"/>
<line fill="none" stroke="#000000" stroke-miterlimit="10" x1="496.4" y1="560.1" x2="496.4" y2="320.6"/>
<rect y="268" fill="#9E005D" stroke="#000000" stroke-miterlimit="10" width="960" height="49.6"/>
<rect y="0" fill="#8CC63F" stroke="#000000" stroke-miterlimit="10" width="960" height="271"/>
<line fill="none" stroke="#000000" stroke-miterlimit="10" x1="56.7" y1="319.9" x2="0" y2="437.4"/>
<line fill="none" stroke="#000000" stroke-miterlimit="10" x1="900.1" y1="320.6" x2="960" y2="397.8"/>
<line fill="none" stroke="#000000" stroke-miterlimit="10" x1="34.3" y1="292.8" x2="64.2" y2="346.6"/>
<line fill="none" stroke="#000000" stroke-miterlimit="10" x1="56.7" y1="355.5" x2="51.2" y2="346.6"/>
</svg>
