<?xml version="1.0" encoding="utf-8"?>
<!-- Generator: Adobe Illustrator 18.0.0, SVG Export Plug-In . SVG Version: 6.00 Build 0)  -->
<!DOCTYPE svg PUBLIC "-//W3C//DTD SVG 1.1//EN" "http://www.w3.org/Graphics/SVG/1.1/DTD/svg11.dtd">
<svg version="1.1" id="Layer_1" xmlns="http://www.w3.org/2000/svg" xmlns:xlink="http://www.w3.org/1999/xlink" x="0px" y="0px"
	 viewBox="0 0 72.2 78.6" enable-background="new 0 0 72.2 78.6" xml:space="preserve">
<g>
	<path fill="#FFFFFF" stroke="#000000" stroke-miterlimit="10" d="M65.4,38.5c0,14.3-12.9,26-28.8,26c-1.9,0-3.8-0.2-5.6-0.5
		C22.7,62.5,7.9,56,7.9,38.5c0-4.8,5.1-14.2,5.6-14.7c0.6-0.5,1-1,0.8-1.7c-0.4-1.3,1.2-2.9,2.1-3.7c1-0.9,3.1-1,3.8-1.3
		c1.9-0.8,3.2-3.9,5.2-4.6c4-1.5,2.2,0.6,4.7,0.6c1.7,0.1,4.2-2.9,6.4-3.2c2.3-0.3,2.6,1.1,4.8,3.1c1.1,1,3.1-1.7,5-1.1
		c1.5,0.5,2.8,2.7,4.2,3.7c2.1,1.7,4.5-0.4,6.3,1.1c1.5,1.3,2.5,5.5,3.7,7.1c1.7,2.2,3.6,3.6,4.4,6.2C65.7,32.6,65.4,36.1,65.4,38.5
		z"/>
	<path fill="#FFFFFF" stroke="#000000" stroke-miterlimit="10" d="M14.4,23.5c0,0,1,32.7,13,39.7v4.9c0,0,14,5.3,17,0v-4.5
		c8-3.2,6.6-42.7,6.3-47.3c0-0.3-0.2-0.4-0.2-0.4"/>
	<path fill="#FFFFFF" stroke="#000000" stroke-miterlimit="10" d="M14.3,22.1"/>
	<path fill="#FFFFFF" stroke="#000000" stroke-miterlimit="10" d="M27.6,63.2"/>
	<path fill="#FFFFFF" stroke="#000000" stroke-miterlimit="10" d="M20.6,17c0,0-0.5,28.5,11,47.5"/>
	<path fill="#FFFFFF" stroke="#000000" stroke-miterlimit="10" d="M30.8,13.1c2.1,37.6,2.2,37,2.6,51.2"/>
	<path fill="#FFFFFF" stroke="#000000" stroke-miterlimit="10" d="M41.4,13.1c0.3,3,2.9,37.3-3.8,51.2"/>
	<path fill="#FFFFFF" stroke="#000000" stroke-miterlimit="10" d="M60.5,24.1c0,0-4.2,33.3-10.4,37.4"/>
</g>
</svg>
