<?xml version="1.0" encoding="utf-8"?>
<!-- Generator: Adobe Illustrator 18.0.0, SVG Export Plug-In . SVG Version: 6.00 Build 0)  -->
<!DOCTYPE svg PUBLIC "-//W3C//DTD SVG 1.1//EN" "http://www.w3.org/Graphics/SVG/1.1/DTD/svg11.dtd">
<svg version="1.1" id="Layer_1" xmlns="http://www.w3.org/2000/svg" xmlns:xlink="http://www.w3.org/1999/xlink" x="0px" y="0px"
	 viewBox="0 0 69 74.6" enable-background="new 0 0 69 74.6" xml:space="preserve">
<g>
	
		<linearGradient id="SVGID_1_" gradientUnits="userSpaceOnUse" x1="8.0223" y1="44.5602" x2="73.37" y2="44.2965" gradientTransform="matrix(1 0 0 -1 0 79.3016)">
		<stop  offset="0.2012" style="stop-color:#98CBEE"/>
		<stop  offset="0.3293" style="stop-color:#FFFFFF"/>
		<stop  offset="0.4207" style="stop-color:#29ABE2"/>
		<stop  offset="0.5366" style="stop-color:#F2F2F2"/>
		<stop  offset="0.6829" style="stop-color:#29ABE2"/>
		<stop  offset="0.8232" style="stop-color:#F2F2F2"/>
		<stop  offset="0.9024" style="stop-color:#29ABE2"/>
		<stop  offset="1" style="stop-color:#F2F2F2"/>
	</linearGradient>
	<path fill="url(#SVGID_1_)" stroke="#000000" stroke-width="0.6972" stroke-miterlimit="10" d="M64.6,36.1c0,14.3-12.9,26-28.8,26
		c-1.9,0-3.8-0.2-5.6-0.5c-8.3-1.5-23.2-7.9-23.2-25.5c0-4.8,5.1-14.2,5.6-14.7c0.6-0.5,1-1,0.8-1.7c-0.4-1.3,1.2-2.9,2.1-3.7
		c1-0.9,3.1-1,3.8-1.3c1.9-0.8,3.2-3.9,5.2-4.6c4-1.5,2.2,0.6,4.7,0.6c1.7,0.1,4.2-2.9,6.4-3.2c2.3-0.3,2.6,1.1,4.8,3.1
		c1.1,1,3.1-1.7,5-1.1c1.5,0.5,2.8,2.7,4.2,3.7c2.1,1.7,4.5-0.4,6.3,1.1c1.5,1.3,2.5,5.5,3.7,7.1c1.7,2.2,3.6,3.6,4.4,6.2
		C64.9,30.2,64.6,33.7,64.6,36.1z"/>
	
		<linearGradient id="SVGID_2_" gradientUnits="userSpaceOnUse" x1="7.9993" y1="38.7057" x2="73.3456" y2="38.442" gradientTransform="matrix(1 0 0 -1 0 79.3016)">
		<stop  offset="0.2012" style="stop-color:#98CBEE"/>
		<stop  offset="0.3293" style="stop-color:#FFFFFF"/>
		<stop  offset="0.4207" style="stop-color:#29ABE2"/>
		<stop  offset="0.5366" style="stop-color:#F2F2F2"/>
		<stop  offset="0.6829" style="stop-color:#29ABE2"/>
		<stop  offset="0.8232" style="stop-color:#F2F2F2"/>
		<stop  offset="0.9024" style="stop-color:#29ABE2"/>
		<stop  offset="1" style="stop-color:#F2F2F2"/>
	</linearGradient>
	<path fill="url(#SVGID_2_)" stroke="#000000" stroke-miterlimit="10" d="M13.6,21.1c0,0,1,32.7,13,39.7v4.9c0,0,14,5.3,17,0v-4.5
		c8-3.2,6.6-42.7,6.3-47.3c0-0.3-0.2-0.4-0.2-0.4"/>
	
		<linearGradient id="SVGID_3_" gradientUnits="userSpaceOnUse" x1="13.5424" y1="59.5418" x2="13.5424" y2="59.5418" gradientTransform="matrix(1 0 0 -1 0 79.3016)">
		<stop  offset="0.2012" style="stop-color:#98CBEE"/>
		<stop  offset="0.3293" style="stop-color:#FFFFFF"/>
		<stop  offset="0.4207" style="stop-color:#29ABE2"/>
		<stop  offset="0.5366" style="stop-color:#F2F2F2"/>
		<stop  offset="0.6829" style="stop-color:#29ABE2"/>
		<stop  offset="0.8232" style="stop-color:#F2F2F2"/>
		<stop  offset="0.9024" style="stop-color:#29ABE2"/>
		<stop  offset="1" style="stop-color:#F2F2F2"/>
	</linearGradient>
	<path fill="url(#SVGID_3_)" stroke="#000000" stroke-width="0.6972" stroke-miterlimit="10" d="M13.5,19.8"/>
	
		<linearGradient id="SVGID_4_" gradientUnits="userSpaceOnUse" x1="26.8554" y1="18.4918" x2="26.8554" y2="18.4918" gradientTransform="matrix(1 0 0 -1 0 79.3016)">
		<stop  offset="0.2012" style="stop-color:#98CBEE"/>
		<stop  offset="0.3293" style="stop-color:#FFFFFF"/>
		<stop  offset="0.4207" style="stop-color:#29ABE2"/>
		<stop  offset="0.5366" style="stop-color:#F2F2F2"/>
		<stop  offset="0.6829" style="stop-color:#29ABE2"/>
		<stop  offset="0.8232" style="stop-color:#F2F2F2"/>
		<stop  offset="0.9024" style="stop-color:#29ABE2"/>
		<stop  offset="1" style="stop-color:#F2F2F2"/>
	</linearGradient>
	<path fill="url(#SVGID_4_)" stroke="#000000" stroke-width="0.6972" stroke-miterlimit="10" d="M26.9,60.8"/>
	
		<linearGradient id="SVGID_5_" gradientUnits="userSpaceOnUse" x1="8.0086" y1="41.0236" x2="73.3529" y2="40.7599" gradientTransform="matrix(1 0 0 -1 0 79.3016)">
		<stop  offset="0.2012" style="stop-color:#98CBEE"/>
		<stop  offset="0.3293" style="stop-color:#FFFFFF"/>
		<stop  offset="0.4207" style="stop-color:#29ABE2"/>
		<stop  offset="0.5366" style="stop-color:#F2F2F2"/>
		<stop  offset="0.6829" style="stop-color:#29ABE2"/>
		<stop  offset="0.8232" style="stop-color:#F2F2F2"/>
		<stop  offset="0.9024" style="stop-color:#29ABE2"/>
		<stop  offset="1" style="stop-color:#F2F2F2"/>
	</linearGradient>
	<path fill="url(#SVGID_5_)" stroke="#000000" stroke-width="0.6972" stroke-miterlimit="10" d="M19.8,14.6c0,0-0.5,28.5,11,47.5"/>
	
		<linearGradient id="SVGID_6_" gradientUnits="userSpaceOnUse" x1="8.0154" y1="43.0444" x2="73.3626" y2="42.7807" gradientTransform="matrix(1 0 0 -1 0 79.3016)">
		<stop  offset="0.2012" style="stop-color:#98CBEE"/>
		<stop  offset="0.3293" style="stop-color:#FFFFFF"/>
		<stop  offset="0.4207" style="stop-color:#29ABE2"/>
		<stop  offset="0.5366" style="stop-color:#F2F2F2"/>
		<stop  offset="0.6829" style="stop-color:#29ABE2"/>
		<stop  offset="0.8232" style="stop-color:#F2F2F2"/>
		<stop  offset="0.9024" style="stop-color:#29ABE2"/>
		<stop  offset="1" style="stop-color:#F2F2F2"/>
	</linearGradient>
	<path fill="url(#SVGID_6_)" stroke="#000000" stroke-width="0.6972" stroke-miterlimit="10" d="M30,10.8c2.1,37.6,2.2,37,2.6,51.2"
		/>
	
		<linearGradient id="SVGID_7_" gradientUnits="userSpaceOnUse" x1="8.0125" y1="43.0744" x2="73.367" y2="42.8105" gradientTransform="matrix(1 0 0 -1 0 79.3016)">
		<stop  offset="0.2012" style="stop-color:#98CBEE"/>
		<stop  offset="0.3293" style="stop-color:#FFFFFF"/>
		<stop  offset="0.4207" style="stop-color:#29ABE2"/>
		<stop  offset="0.5366" style="stop-color:#F2F2F2"/>
		<stop  offset="0.6829" style="stop-color:#29ABE2"/>
		<stop  offset="0.8232" style="stop-color:#F2F2F2"/>
		<stop  offset="0.9024" style="stop-color:#29ABE2"/>
		<stop  offset="1" style="stop-color:#F2F2F2"/>
	</linearGradient>
	<path fill="url(#SVGID_7_)" stroke="#000000" stroke-width="0.6972" stroke-miterlimit="10" d="M40.6,10.8c0.3,3,2.9,37.3-3.8,51.2
		"/>
	
		<linearGradient id="SVGID_8_" gradientUnits="userSpaceOnUse" x1="8.0003" y1="39.085" x2="73.3475" y2="38.8213" gradientTransform="matrix(1 0 0 -1 0 79.3016)">
		<stop  offset="0.2012" style="stop-color:#98CBEE"/>
		<stop  offset="0.3293" style="stop-color:#FFFFFF"/>
		<stop  offset="0.4207" style="stop-color:#29ABE2"/>
		<stop  offset="0.5366" style="stop-color:#F2F2F2"/>
		<stop  offset="0.6829" style="stop-color:#29ABE2"/>
		<stop  offset="0.8232" style="stop-color:#F2F2F2"/>
		<stop  offset="0.9024" style="stop-color:#29ABE2"/>
		<stop  offset="1" style="stop-color:#F2F2F2"/>
	</linearGradient>
	<path fill="url(#SVGID_8_)" stroke="#000000" stroke-width="0.6972" stroke-miterlimit="10" d="M59.7,21.7c0,0-4.2,33.3-10.4,37.4"
		/>
</g>
</svg>
