<?xml version="1.0" encoding="utf-8"?>
<!-- Generator: Adobe Illustrator 18.0.0, SVG Export Plug-In . SVG Version: 6.00 Build 0)  -->
<!DOCTYPE svg PUBLIC "-//W3C//DTD SVG 1.1//EN" "http://www.w3.org/Graphics/SVG/1.1/DTD/svg11.dtd">
<svg version="1.1" id="Layer_1" xmlns="http://www.w3.org/2000/svg" xmlns:xlink="http://www.w3.org/1999/xlink" x="0px" y="0px"
	 viewBox="0 0 57.1 45.2" enable-background="new 0 0 57.1 45.2" xml:space="preserve">
<path d="M49.9,13c-0.5-1-1.2-1.8-2-2.5l0.6,0.9l-22,14.9l-7.2-10.6l7.2-5.3c-1.1,0.5-3.7,0.5-4.8,1.1C9.7,17.6,2.8,28.2,6.4,35.2
	c3.5,6.9,16.2,7.6,28.2,1.5C46.6,30.5,53.4,19.9,49.9,13z"/>
<path d="M50.8,18.1c0,0,0.6,4.5,0.1,7.3c-0.6,2.9-0.7,3.6-0.7,3.6s-5.4,4.7-8.5,5.8c-3,1.1-0.8,0.6-0.8,0.6L40,33.3"/>
</svg>
