<?xml version="1.0" encoding="utf-8"?>
<!-- Generator: Adobe Illustrator 18.0.0, SVG Export Plug-In . SVG Version: 6.00 Build 0)  -->
<!DOCTYPE svg PUBLIC "-//W3C//DTD SVG 1.1//EN" "http://www.w3.org/Graphics/SVG/1.1/DTD/svg11.dtd">
<svg version="1.1" id="Layer_1" xmlns="http://www.w3.org/2000/svg" xmlns:xlink="http://www.w3.org/1999/xlink" x="0px" y="0px"
	 viewBox="0 0 59 47" enable-background="new 0 0 59 47" xml:space="preserve">
<g>
	<path fill="#CC9966" d="M16.1,24.3l-0.2,0.4c0,0-0.1,0.2-0.1,0.1c0-0.2-0.1-0.1-0.1-0.1l0,0l0.1-0.1l0.7-0.5
		c0.5-0.4,0.9-0.7,1.4-1.1c1-0.7,2-1.2,3.1-1.7c2.1-1,4.5-1.6,6.9-1.8c2.4-0.2,4.8,0.1,7.1,0.8c2.3,0.7,4.4,1.8,6.2,3.3
		c-2.2-0.8-4.4-1.4-6.6-1.8c-2.2-0.4-4.4-0.5-6.6-0.3c-2.2,0.1-4.4,0.6-6.5,1.3c-1.1,0.3-2.1,0.7-3.2,1.1c-0.5,0.2-1,0.4-1.6,0.7
		L16,24.9l-0.1,0l-0.1,0c0,0-0.1,0.1-0.2-0.1c0.1-0.1,0.1-0.2,0.2-0.2L16.1,24.3z"/>
</g>
<g>
	<path fill="#CC9966" d="M17.5,23.5c-0.9-1-1.4-2.3-1.4-3.7c-0.1-1.4,0.5-3,1.7-4c1.1-1,2.5-1.5,3.8-1.7c1.3-0.2,2.6-0.1,3.9,0.3
		c-1.2,0.5-2.4,0.8-3.5,1.2c-1.1,0.4-2.1,0.9-2.8,1.6c-0.7,0.7-1.2,1.6-1.5,2.6C17.4,21,17.4,22.2,17.5,23.5z"/>
</g>
<path fill="#CC9966" d="M11.6,23.8c0,0-7,6.4,13.2,7.8c13.3,0.9,26-9.1,27.3-12.6s-1.7-7.5-1.7-7.5l3.1,2.6l0.6,5.8
	c0,0-0.7,11.4-19.3,16.7c-18.6,5.3-24.6,0.8-24.8,0s0-10.2,0-10.2l1.9-3"/>
</svg>
