<?xml version="1.0" encoding="utf-8"?>
<!-- Generator: Adobe Illustrator 18.0.0, SVG Export Plug-In . SVG Version: 6.00 Build 0)  -->
<!DOCTYPE svg PUBLIC "-//W3C//DTD SVG 1.1//EN" "http://www.w3.org/Graphics/SVG/1.1/DTD/svg11.dtd">
<svg version="1.1" id="Layer_1" xmlns="http://www.w3.org/2000/svg" xmlns:xlink="http://www.w3.org/1999/xlink" x="0px" y="0px"
	 viewBox="0 0 42.1 42.1" enable-background="new 0 0 42.1 42.1" xml:space="preserve">
<g>
	<path fill="#CC9966" d="M25,23.5l0.2,0.2l0.1,0.1c0,0,0,0,0,0v0c0,0,0,0-0.1,0c-0.1,0.1,0,0.1,0,0.1l0,0c0,0,0,0,0,0l-0.4-0.5
		c-0.2-0.3-0.5-0.7-0.7-1c-0.4-0.7-0.8-1.4-1.1-2.2c-0.6-1.5-0.9-3.2-0.7-5c0.2-1.7,1-3.4,2.2-4.6c1.2-1.2,2.7-2,4.3-2.4
		c-1.3,1-2.4,2-3.3,3.2c-0.9,1.2-1.4,2.5-1.6,4c-0.2,1.4,0,2.9,0.3,4.4c0.2,0.7,0.4,1.5,0.6,2.2c0.1,0.4,0.3,0.7,0.4,1.1l0.2,0.6
		l0,0.1l0,0c0,0,0,0,0,0.1c-0.1,0.1-0.1,0-0.1,0l0,0c0,0,0,0,0-0.1l-0.1-0.1L25,23.5z"/>
</g>
<g>
	<path fill="#CC9966" d="M23.5,22.1l0,0.3l0,0.2c0,0,0,0.1,0,0.1c0,0,0,0,0,0c0,0,0,0-0.1,0.1c0,0-0.1,0-0.1,0c0,0,0,0,0,0l0,0
		l0-0.1l-0.1-0.1L23,22.1l-0.5-1.1c-0.3-0.7-0.6-1.4-1-2c-0.7-1.3-1.6-2.5-2.7-3.4c-1.1-0.9-2.4-1.6-3.8-1.9
		c-1.4-0.4-2.9-0.5-4.5-0.5c1.5-0.6,3.1-0.9,4.7-0.7c1.6,0.2,3.3,0.9,4.6,1.9c1.3,1.1,2.2,2.5,2.8,4.1c0.3,0.8,0.5,1.5,0.6,2.3
		C23.4,21.3,23.4,21.7,23.5,22.1l0,0.3l0,0.1l0,0.1c0,0,0,0,0,0c0,0,0,0,0,0c0,0-0.1,0-0.1,0c-0.1,0.1,0,0.1-0.1,0c0,0,0,0,0,0
		c0,0,0,0,0-0.1l0-0.1L23.5,22.1z"/>
</g>
<path fill="#CC9966" d="M28.6,9.5c1.9,4.3,4,15.9,4,15.9s-1.5,3.5-10.1,2.1c-12.3-2-12.9-14.3-12.9-14.3L8.4,8.5
	c0,0-1.4,5.4-1.4,9.5c0,0.1,0,0.3,0,0.5c0.4,4.3,3.7,10.9,6.4,13.3c7,6.2,15.7,5.2,16.1,5.2c3.3,0,5.9-4.8,5.9-5
	C39.1,25.9,26.9,5.5,28.6,9.5z"/>
</svg>
